<svg xmlns="http://www.w3.org/2000/svg" width="65" height="65" viewBox="0 0 65 65" fill="none">
    <g clip-path="url(#clip0_123_132)">
        <path d="M49.7656 0H15.2344C6.82066 0 0 6.82066 0 15.2344V49.7656C0 58.1793 6.82066 65 15.2344 65H49.7656C58.1793 65 65 58.1793 65 49.7656V15.2344C65 6.82066 58.1793 0 49.7656 0Z" fill="#242938"/>
        <mask id="mask0_123_132" style="mask-type:luminance" maskUnits="userSpaceOnUse" x="15" y="7" width="35" height="51">
            <path d="M49.3492 7.10938H15.4883V57.8906H49.3492V7.10938Z" fill="white"/>
        </mask>
        <g mask="url(#mask0_123_132)">
            <path d="M23.9553 57.8907C28.6272 57.8907 32.4188 54.0991 32.4188 49.4272V40.9635H23.9553C19.2834 40.9635 15.4917 44.7553 15.4917 49.4272C15.4917 54.0991 19.2834 57.8907 23.9553 57.8907Z" fill="#0ACF83"/>
            <path d="M15.4917 32.5C15.4917 27.8282 19.2834 24.0365 23.9553 24.0365H32.4188V40.9635H23.9553C19.2834 40.9635 15.4917 37.1719 15.4917 32.5Z" fill="#A259FF"/>
            <path d="M15.4917 15.5729C15.4917 10.901 19.2834 7.10938 23.9553 7.10938H32.4188V24.0365H23.9553C19.2834 24.0365 15.4917 20.2448 15.4917 15.5729Z" fill="#F24E1E"/>
            <path d="M32.4189 7.10938H40.8824C45.5543 7.10938 49.3461 10.901 49.3461 15.5729C49.3461 20.2448 45.5543 24.0365 40.8824 24.0365H32.4189V7.10938Z" fill="#FF7262"/>
            <path d="M49.3461 32.5C49.3461 37.1719 45.5543 40.9635 40.8824 40.9635C36.2105 40.9635 32.4189 37.1719 32.4189 32.5C32.4189 27.8282 36.2105 24.0365 40.8824 24.0365C45.5543 24.0365 49.3461 27.8282 49.3461 32.5Z" fill="#1ABCFE"/>
        </g>
    </g>
    <defs>
        <clipPath id="clip0_123_132">
            <rect width="65" height="65" fill="white"/>
        </clipPath>
    </defs>
</svg>
