<svg xmlns="http://www.w3.org/2000/svg" width="65" height="65" viewBox="0 0 65 65" fill="none">
    <g clip-path="url(#clip0_123_145)">
        <path d="M49.7656 0H15.2344C6.82066 0 0 6.82066 0 15.2344V49.7656C0 58.1793 6.82066 65 15.2344 65H49.7656C58.1793 65 65 58.1793 65 49.7656V15.2344C65 6.82066 58.1793 0 49.7656 0Z" fill="#242938"/>
        <path d="M30.4378 7.90065C31.6867 7.18575 33.3133 7.18257 34.561 7.90065C40.838 11.4475 47.1171 14.9889 53.3932 18.5379C54.5739 19.2028 55.3632 20.5166 55.3513 21.8768V43.2164C55.3602 44.6329 54.4926 45.9781 53.2472 46.6278C46.9907 50.1554 40.7372 53.687 34.4817 57.2145C33.2074 57.9432 31.5481 57.8871 30.3131 57.0984C28.4375 56.0112 26.5586 54.9291 24.6828 53.8428C24.2994 53.6143 23.8673 53.4325 23.5967 53.0608C23.8359 52.7384 24.2637 52.6982 24.6114 52.5573C25.3942 52.3082 26.1135 51.9086 26.8326 51.5209C27.0146 51.3965 27.2365 51.4442 27.411 51.5554C29.0149 52.4751 30.6048 53.4216 32.2141 54.3324C32.5574 54.5307 32.905 54.2674 33.1985 54.1039C39.338 50.6337 45.485 47.177 51.6237 43.7059C51.8512 43.5965 51.9769 43.355 51.9584 43.1059C51.9627 36.0664 51.9594 29.0258 51.9606 21.9862C51.9865 21.7035 51.823 21.4436 51.5673 21.3279C45.3327 17.8166 39.1008 14.3001 32.8671 10.788C32.646 10.636 32.3543 10.6356 32.1329 10.7869C25.8989 14.3001 19.6685 17.82 13.4348 21.3309C13.1801 21.4468 13.0091 21.7025 13.0395 21.9862C13.0405 29.0258 13.0395 36.0664 13.0395 43.1069C13.0173 43.356 13.1526 43.5924 13.3785 43.6995C15.042 44.6428 16.7076 45.5795 18.3722 46.5197C19.31 47.0242 20.4614 47.3243 21.4946 46.9376C22.4063 46.6106 23.0454 45.68 23.028 44.7121C23.0366 37.7137 23.0237 30.7143 23.0345 23.7168C23.0118 23.4061 23.3064 23.1494 23.6085 23.1787C24.4078 23.1733 25.2081 23.168 26.0074 23.1809C26.341 23.1733 26.5705 23.5078 26.5294 23.8208C26.5261 30.8636 26.538 37.9064 26.5241 44.949C26.5261 46.8261 25.755 48.8686 24.0188 49.7869C21.88 50.8947 19.2364 50.6599 17.1234 49.5975C15.2942 48.6845 13.5485 47.6069 11.7517 46.6289C10.5031 45.9827 9.63981 44.6321 9.64859 43.2166V21.8768C9.63549 20.4884 10.4565 19.1508 11.6737 18.4957C17.9292 14.9654 24.1836 11.4324 30.4378 7.90065Z" fill="#81CD39"/>
        <path d="M35.895 22.6827C38.6233 22.5071 41.5439 22.5787 43.999 23.9227C45.9 24.9527 46.9537 27.1144 46.9872 29.2261C46.9341 29.5108 46.6363 29.6679 46.3643 29.6484C45.5729 29.6474 44.781 29.6593 43.9896 29.643C43.6536 29.656 43.4586 29.3465 43.4165 29.0497C43.189 28.0391 42.6378 27.0385 41.6869 26.551C40.2269 25.8202 38.5344 25.857 36.9424 25.8723C35.7803 25.9337 34.5305 26.0345 33.5459 26.7178C32.79 27.2355 32.5605 28.2806 32.8301 29.1223C33.0845 29.7266 33.782 29.9216 34.3531 30.1013C37.6409 30.9613 41.125 30.8755 44.3501 32.0072C45.6854 32.4685 46.9915 33.3656 47.4485 34.7636C48.0465 36.6374 47.7845 38.8768 46.4512 40.381C45.3701 41.6188 43.7956 42.2926 42.2252 42.6585C40.136 43.1244 37.9679 43.1364 35.8463 42.9294C33.8513 42.7019 31.7752 42.1779 30.2352 40.8187C28.9182 39.6751 28.2751 37.8932 28.3388 36.1738C28.354 35.8833 28.6432 35.6807 28.9215 35.7045C29.7185 35.6982 30.5158 35.6959 31.3128 35.7058C31.6314 35.683 31.8673 35.9582 31.8838 36.2583C32.0306 37.2209 32.3924 38.2314 33.2321 38.8019C34.852 39.8473 36.885 39.7757 38.7401 39.8049C40.2769 39.7368 42.0022 39.7163 43.2563 38.7004C43.918 38.121 44.114 37.1516 43.9352 36.3177C43.7415 35.6136 43.0049 35.2856 42.3724 35.071C39.1268 34.0445 35.6036 34.417 32.3894 33.2559C31.0843 32.7948 29.8224 31.9229 29.3211 30.5822C28.6216 28.6848 28.9421 26.3377 30.415 24.8844C31.8511 23.4386 33.924 22.8819 35.895 22.6827Z" fill="#81CD39"/>
    </g>
    <defs>
        <clipPath id="clip0_123_145">
            <rect width="65" height="65" fill="white"/>
        </clipPath>
    </defs>
</svg>
