<svg xmlns="http://www.w3.org/2000/svg" width="65" height="65" viewBox="0 0 65 65" fill="none">
    <g clip-path="url(#clip0_123_119)">
        <path d="M49.7656 0H15.2344C6.82066 0 0 6.82066 0 15.2344V49.7656C0 58.1793 6.82066 65 15.2344 65H49.7656C58.1793 65 65 58.1793 65 49.7656V15.2344C65 6.82066 58.1793 0 49.7656 0Z" fill="#242938"/>
        <path d="M35.2389 48.0728H52.7005C53.2551 48.0731 53.7999 47.9284 54.2803 47.6534C54.7607 47.3787 55.1594 46.9833 55.4366 46.507C55.7139 46.0309 55.8596 45.4909 55.8594 44.9412C55.8591 44.3914 55.7129 43.8516 55.4351 43.3758L43.7084 23.2447C43.4312 22.7687 43.0325 22.3734 42.5524 22.0986C42.072 21.8238 41.5274 21.679 40.9729 21.679C40.4183 21.679 39.8737 21.8238 39.3933 22.0986C38.9132 22.3734 38.5145 22.7687 38.2373 23.2447L35.2389 28.3956L29.3762 18.3232C29.0989 17.8473 28.7 17.452 28.2196 17.1772C27.7393 16.9025 27.1944 16.7578 26.6398 16.7578C26.0853 16.7578 25.5404 16.9025 25.0601 17.1772C24.5797 17.452 24.1808 17.8473 23.9034 18.3232L9.31084 43.3758C9.03325 43.8516 8.88697 44.3914 8.88672 44.9412C8.88649 45.4909 9.03228 46.0309 9.30947 46.507C9.58666 46.9833 9.98547 47.3787 10.4658 47.6534C10.9461 47.9284 11.491 48.0731 12.0456 48.0728H23.0066C27.3495 48.0728 30.5523 46.1822 32.7559 42.4937L38.1063 33.3102L40.9721 28.3956L49.5727 43.1582H38.1063L35.2389 48.0728ZM22.8279 43.1531L15.1785 43.1514L26.6449 23.469L32.3662 33.3102L28.5355 39.8879C27.072 42.2812 25.4094 43.1531 22.8279 43.1531Z" fill="#00DC82"/>
    </g>
    <defs>
        <clipPath id="clip0_123_119">
            <rect width="65" height="65" fill="white"/>
        </clipPath>
    </defs>
</svg>
