<svg width="375" height="65" viewBox="0 0 375 65" fill="none" xmlns="http://www.w3.org/2000/svg">
    <path d="M375 49.0096C359.375 58.0121 343.75 67.0147 328.125 64.6032C312.5 62.1921 296.875 48.3664 281.25 49.0096C265.625 49.6523 250 64.7642 234.375 64.6032C218.75 64.4426 203.125 49.0096 187.5 49.0096C171.875 49.0096 156.25 64.4426 140.625 64.6032C125 64.7642 109.375 49.6523 93.75 49.0096C78.125 48.3664 62.5 62.1921 46.875 64.6032C31.25 67.0147 15.625 58.0121 1.37687e-05 49.0096V-1.97475e-06C15.625 -1.97475e-06 31.25 -1.97475e-06 46.875 -1.97475e-06C62.5 -1.97475e-06 78.125 -1.97475e-06 93.75 -1.97475e-06C109.375 -1.97475e-06 125 -1.97475e-06 140.625 -1.97475e-06C156.25 -1.97475e-06 171.875 -1.97475e-06 187.5 -1.97475e-06C203.125 -1.97475e-06 218.75 -1.97475e-06 234.375 -1.97475e-06C250 -1.97475e-06 265.625 -1.97475e-06 281.25 -1.97475e-06C296.875 -1.97475e-06 312.5 -1.97475e-06 328.125 -1.97475e-06C343.75 -1.97475e-06 359.375 -1.97475e-06 375 -1.97475e-06V49.0096Z" fill="#403886"/>
</svg>
