<svg width="1280" height="107" viewBox="0 0 1280 107" fill="none" xmlns="http://www.w3.org/2000/svg">
    <path d="M1280 71.387C1237.33 91.4376 1194.67 111.488 1152 106.116C1109.33 100.744 1066.67 69.9481 1024 71.387C981.333 72.8264 938.667 106.5 896 106.116C853.333 105.732 810.667 71.2912 768 71.387C725.333 71.4833 682.667 106.116 640 106.116C597.333 106.116 554.667 71.4833 512 71.387C469.333 71.2912 426.667 105.732 384 106.116C341.333 106.5 298.667 72.8264 256 71.387C213.333 69.9481 170.667 100.744 128 106.116C85.3333 111.488 42.6667 91.4376 -1.3113e-05 71.387V-2.84042e-06C42.6667 -2.84042e-06 85.3333 -2.84042e-06 128 -2.84042e-06C170.667 -2.84042e-06 213.333 -2.84042e-06 256 -2.84042e-06C298.667 -2.84042e-06 341.333 -2.84042e-06 384 -2.84042e-06C426.667 -2.84042e-06 469.333 -2.84042e-06 512 -2.84042e-06C554.667 -2.84042e-06 597.333 -2.84042e-06 640 -2.84042e-06C682.667 -2.84042e-06 725.333 -2.84042e-06 768 -2.84042e-06C810.667 -2.84042e-06 853.333 -2.84042e-06 896 -2.84042e-06C938.667 -2.84042e-06 981.333 -2.84042e-06 1024 -2.84042e-06C1066.67 -2.84042e-06 1109.33 -2.84042e-06 1152 -2.84042e-06C1194.67 -2.84042e-06 1237.33 -2.84042e-06 1280 -2.84042e-06V71.387Z" fill="#403886"/>
</svg>
