<svg xmlns="http://www.w3.org/2000/svg" width="375" height="61" viewBox="0 0 375 61" fill="none">
    <path d="M375 48.557C359.375 55.3372 343.75 62.1175 328.125 60.3011C312.5 58.4851 296.875 48.0724 281.25 48.557C265.625 49.0411 250 60.4224 234.375 60.3011C218.75 60.1802 203.125 48.557 187.5 48.557C171.875 48.557 156.25 60.1802 140.625 60.3011C125 60.4224 109.375 49.0411 93.75 48.557C78.125 48.0724 62.5 58.4851 46.875 60.3011C31.25 62.1175 15.625 55.3372 0 48.557V0.599976C15.625 0.599976 31.25 0.599976 46.875 0.599976C62.5 0.599976 78.125 0.599976 93.75 0.599976C109.375 0.599976 125 0.599976 140.625 0.599976C156.25 0.599976 171.875 0.599976 187.5 0.599976C203.125 0.599976 218.75 0.599976 234.375 0.599976C250 0.599976 265.625 0.599976 281.25 0.599976C296.875 0.599976 312.5 0.599976 328.125 0.599976C343.75 0.599976 359.375 0.599976 375 0.599976V48.557Z" fill="#403886"/>
</svg>
