<svg xmlns="http://www.w3.org/2000/svg" width="65" height="65" viewBox="0 0 65 65" fill="none">
    <g clip-path="url(#clip0_123_162)">
        <path d="M49.7656 0H15.2344C6.82066 0 0 6.82066 0 15.2344V49.7656C0 58.1793 6.82066 65 15.2344 65H49.7656C58.1793 65 65 58.1793 65 49.7656V15.2344C65 6.82066 58.1793 0 49.7656 0Z" fill="#242938"/>
        <path d="M24.0384 8.6334H39.065L23.4659 54.8519C23.3056 55.3267 23.0003 55.7395 22.5932 56.0318C22.186 56.3243 21.6974 56.4814 21.1962 56.4817H9.50175C9.12195 56.4817 8.74762 56.3913 8.4097 56.2179C8.07177 56.0445 7.77996 55.7934 7.55845 55.4849C7.33692 55.1764 7.19204 54.8196 7.13577 54.4438C7.07951 54.0683 7.11348 53.6847 7.23487 53.3249L21.7681 10.2631C21.9283 9.78801 22.2336 9.37513 22.6409 9.08266C23.0482 8.79018 23.537 8.63284 24.0384 8.63281V8.6334Z" fill="url(#paint0_linear_123_162)"/>
        <path d="M45.874 39.6335H22.0455C21.8239 39.6333 21.6075 39.6998 21.4243 39.8245C21.241 39.9489 21.0996 40.1259 21.0183 40.3318C20.937 40.538 20.9197 40.7637 20.9686 40.9798C21.0175 41.1958 21.1303 41.3924 21.2924 41.5432L36.6042 55.8348C37.0498 56.2504 37.6368 56.4817 38.2464 56.4817H51.7393L45.874 39.6335Z" fill="#0078D4"/>
        <path d="M24.0383 8.63344C23.5314 8.63149 23.0371 8.79167 22.6278 9.0906C22.2184 9.3895 21.9153 9.81149 21.7628 10.2949L7.25264 53.2856C7.12307 53.6469 7.08239 54.0338 7.13406 54.4142C7.18571 54.7943 7.32818 55.1566 7.5494 55.4699C7.77066 55.7835 8.06412 56.0392 8.40504 56.2151C8.74596 56.3914 9.12426 56.4828 9.50796 56.4817H21.5042C21.951 56.4018 22.3686 56.2047 22.7144 55.9107C23.0601 55.6167 23.3216 55.2363 23.4721 54.808L26.3657 46.2803L36.7017 55.9206C37.1349 56.2789 37.6783 56.4772 38.2401 56.4817H51.6827L45.787 39.6338L28.6003 39.6379L39.1192 8.63344H24.0383Z" fill="url(#paint1_linear_123_162)"/>
        <path d="M43.231 10.2609C43.071 9.78649 42.7664 9.3743 42.3596 9.08233C41.9528 8.79039 41.4648 8.63337 40.9641 8.63342H24.2173C24.7179 8.63345 25.2059 8.79049 25.6124 9.08246C26.0192 9.3744 26.3241 9.78654 26.4841 10.2609L41.018 53.3244C41.1393 53.6842 41.1733 54.0679 41.1172 54.4436C41.0611 54.8194 40.9161 55.1762 40.6947 55.4849C40.4731 55.7934 40.1813 56.0448 39.8434 56.2182C39.5054 56.3916 39.1309 56.4823 38.7511 56.4823H55.4985C55.8783 56.482 56.2528 56.3916 56.5905 56.2182C56.9285 56.0445 57.2202 55.7932 57.4419 55.4847C57.6633 55.1759 57.808 54.8192 57.8641 54.4434C57.9205 54.0679 57.8865 53.6842 57.7649 53.3244L43.231 10.2609Z" fill="url(#paint2_linear_123_162)"/>
    </g>
    <defs>
        <linearGradient id="paint0_linear_123_162" x1="29.5151" y1="12.1791" x2="13.9097" y2="58.2816" gradientUnits="userSpaceOnUse">
            <stop stop-color="#114A8B"/>
            <stop offset="1" stop-color="#0669BC"/>
        </linearGradient>
        <linearGradient id="paint1_linear_123_162" x1="34.3899" y1="33.6642" x2="30.7801" y2="34.8847" gradientUnits="userSpaceOnUse">
            <stop stop-opacity="0.3"/>
            <stop offset="0.071" stop-opacity="0.2"/>
            <stop offset="0.321" stop-opacity="0.1"/>
            <stop offset="0.623" stop-opacity="0.05"/>
            <stop offset="1" stop-opacity="0"/>
        </linearGradient>
        <linearGradient id="paint2_linear_123_162" x1="32.4047" y1="10.8345" x2="49.5347" y2="56.4724" gradientUnits="userSpaceOnUse">
            <stop stop-color="#3CCBF4"/>
            <stop offset="1" stop-color="#2892DF"/>
        </linearGradient>
        <clipPath id="clip0_123_162">
            <rect width="65" height="65" fill="white"/>
        </clipPath>
    </defs>
</svg>
