<svg xmlns="http://www.w3.org/2000/svg" width="65" height="65" viewBox="0 0 65 65" fill="none">
    <g clip-path="url(#clip0_123_65)">
        <path d="M49.7656 0H15.2344C6.82066 0 0 6.82066 0 15.2344V49.7656C0 58.1793 6.82066 65 15.2344 65H49.7656C58.1793 65 65 58.1793 65 49.7656V15.2344C65 6.82066 58.1793 0 49.7656 0Z" fill="#0277BD"/>
        <path d="M13.6479 26.0637L14.3748 34.174H32.5242V26.0637H13.6479Z" fill="#EBEBEB"/>
        <path d="M32.5241 9.64844H32.4962H12.1875L12.9247 17.7588H32.5241V9.64844Z" fill="#EBEBEB"/>
        <path d="M32.5241 55.5651V47.127L32.4885 47.1364L23.4561 44.6976L22.8787 38.2291H18.4897H14.7373L15.8735 50.9635L32.4867 55.5755L32.5241 55.5651Z" fill="#EBEBEB"/>
        <path d="M42.483 34.174L41.5415 44.6923L32.4961 47.1339V55.5714L49.1226 50.9636L49.2445 49.5932L51.1503 28.2417L51.3481 26.0637L52.8124 9.64844H32.4961V17.7588H43.9242L43.1863 26.0637H32.4961V34.174H42.483Z" fill="white"/>
    </g>
    <defs>
        <clipPath id="clip0_123_65">
            <rect width="65" height="65" fill="white"/>
        </clipPath>
    </defs>
</svg>
