<svg xmlns="http://www.w3.org/2000/svg" width="65" height="65" viewBox="0 0 65 65" fill="none">
    <g clip-path="url(#clip0_139_15)">
        <path d="M49.7656 0H15.2344C6.82066 0 0 6.82066 0 15.2344V49.7656C0 58.1793 6.82066 65 15.2344 65H49.7656C58.1793 65 65 58.1793 65 49.7656V15.2344C65 6.82066 58.1793 0 49.7656 0Z" fill="#F03C2E"/>
        <path d="M49.7656 0H15.2344C6.82066 0 0 6.82066 0 15.2344V49.7656C0 58.1793 6.82066 65 15.2344 65H49.7656C58.1793 65 65 58.1793 65 49.7656V15.2344C65 6.82066 58.1793 0 49.7656 0Z" fill="#F03C2E"/>
        <mask id="mask0_139_15" style="mask-type:luminance" maskUnits="userSpaceOnUse" x="7" y="7" width="51" height="51">
            <path d="M57.8906 7.10938H7.10938V57.8906H57.8906V7.10938Z" fill="white"/>
        </mask>
        <g mask="url(#mask0_139_15)">
            <path d="M56.9321 30.2388L34.7613 8.06793C34.4578 7.76418 34.0973 7.52325 33.7007 7.35887C33.3038 7.19447 32.8786 7.10986 32.4492 7.10986C32.0198 7.10986 31.5945 7.19447 31.1977 7.35887C30.8011 7.52325 30.4405 7.76418 30.1371 8.06793L25.5351 12.67L31.3749 18.5098C32.7333 18.0337 34.2885 18.3591 35.3706 19.4413C35.8858 19.9574 36.2456 20.6081 36.4086 21.3188C36.5716 22.0296 36.5315 22.7719 36.2926 23.461L41.9214 29.0898C43.2831 28.6201 44.854 28.923 45.941 30.0133C46.3026 30.3749 46.5892 30.804 46.7847 31.2762C46.9802 31.7485 47.0808 32.2545 47.0808 32.7656C47.0805 33.2768 46.98 33.7828 46.7842 34.2551C46.5885 34.7271 46.3018 35.1562 45.9403 35.5175C45.5789 35.879 45.1498 36.1654 44.6776 36.361C44.2053 36.5567 43.6993 36.6573 43.1882 36.657C42.677 36.657 42.1708 36.5562 41.6987 36.3607C41.2265 36.1649 40.7974 35.8783 40.4361 35.5167C39.2935 34.3741 39.0112 32.692 39.5888 31.2844L34.3393 26.0348V39.8491C34.7204 40.0375 35.0685 40.2863 35.3706 40.5854C35.7319 40.9468 36.0186 41.3756 36.2144 41.8479C36.4099 42.3199 36.5104 42.8259 36.5104 43.337C36.5104 43.8481 36.4099 44.3542 36.2144 44.8262C36.0186 45.2985 35.7319 45.7276 35.3706 46.0889C35.0093 46.4502 34.5802 46.7368 34.1082 46.9323C33.636 47.1279 33.1299 47.2286 32.6191 47.2286C32.1079 47.2286 31.6019 47.1279 31.1299 46.9323C30.6576 46.7368 30.2285 46.4502 29.8672 46.0889C29.5054 45.7276 29.2185 45.2987 29.0227 44.8267C28.8267 44.3544 28.7259 43.8481 28.7259 43.337C28.7259 42.8259 28.8267 42.3199 29.0227 41.8476C29.2185 41.3754 29.5054 40.9465 29.8672 40.5854C30.2433 40.2109 30.6607 39.9268 31.1416 39.7364V25.7936C30.6782 25.6032 30.2433 25.3224 29.8672 24.9447C29.3208 24.399 28.9494 23.7029 28.8001 22.9452C28.651 22.1874 28.7307 21.4024 29.0293 20.6902L23.2689 14.9329L8.06625 30.1197C7.7623 30.4234 7.52116 30.7839 7.35663 31.1808C7.1921 31.5776 7.10742 32.0029 7.10742 32.4325C7.10742 32.8621 7.1921 33.2877 7.35663 33.6845C7.52116 34.0814 7.7623 34.4419 8.06625 34.7456L30.2387 56.9147C30.5421 57.2183 30.9027 57.4593 31.2993 57.6238C31.6961 57.7881 32.1214 57.8727 32.5508 57.8727C32.9801 57.8727 33.4054 57.7881 33.8023 57.6238C34.1989 57.4593 34.5594 57.2183 34.8628 56.9147L56.9321 34.8804C57.236 34.5768 57.4772 34.2162 57.6418 33.8194C57.8063 33.4225 57.8909 32.9972 57.8909 32.5676C57.8909 32.138 57.8063 31.7124 57.6418 31.3156C57.4772 30.9187 57.236 30.5582 56.9321 30.2545" fill="white"/>
        </g>
    </g>
    <defs>
        <clipPath id="clip0_139_15">
            <rect width="65" height="65" fill="white"/>
        </clipPath>
    </defs>
</svg>
