<svg xmlns="http://www.w3.org/2000/svg" width="65" height="65" viewBox="0 0 65 65" fill="none">
    <g clip-path="url(#clip0_123_72)">
        <path d="M49.7656 0H15.2344C6.82066 0 0 6.82066 0 15.2344V49.7656C0 58.1793 6.82066 65 15.2344 65H49.7656C58.1793 65 65 58.1793 65 49.7656V15.2344C65 6.82066 58.1793 0 49.7656 0Z" fill="#E14E1D"/>
        <path d="M12.1875 9.64844L14.3736 34.174H42.4836L41.5403 44.6933L32.4896 47.1405L23.4559 44.6969L22.8519 37.9425H14.711L15.8751 50.963L32.4876 55.577L49.121 50.963L51.351 26.0647H21.7913L21.0491 17.7594H52.0612H52.0861L52.8125 9.64844H12.1875Z" fill="white"/>
        <path d="M32.5 9.64844H12.1875L14.3736 34.174H32.5V26.0647H21.7913L21.0491 17.7594H32.5V9.64844Z" fill="#EBEBEB"/>
        <path d="M32.4999 47.137L32.4895 47.1405L23.4558 44.6969L22.8518 37.9425H14.7109L15.875 50.9631L32.4875 55.5771L32.4999 55.5735V47.137Z" fill="#EBEBEB"/>
    </g>
    <defs>
        <clipPath id="clip0_123_72">
            <rect width="65" height="65" fill="white"/>
        </clipPath>
    </defs>
</svg>
