<svg xmlns="http://www.w3.org/2000/svg" width="65" height="65" viewBox="0 0 65 65" fill="none">
    <g clip-path="url(#clip0_139_34)">
        <path d="M49.7656 0H15.2344C6.82066 0 0 6.82066 0 15.2344V49.7656C0 58.1793 6.82066 65 15.2344 65H49.7656C58.1793 65 65 58.1793 65 49.7656V15.2344C65 6.82066 58.1793 0 49.7656 0Z" fill="#99424F"/>
        <path d="M54.1717 32.1179C54.1717 29.0596 52.0693 26.4867 49.2466 25.7517L55.5684 7.10938H24.2381L30.5749 25.8106C27.8401 26.6046 25.8261 29.1332 25.8261 32.1323C25.8261 34.3378 26.9285 36.2931 28.6046 37.4987C27.9431 38.4396 27.1786 39.3072 26.311 40.1304C24.6792 41.6594 22.8709 42.8355 20.9155 43.6147C19.1512 42.4239 18.3867 40.3216 19.0777 38.4396C21.7682 37.6165 23.7236 35.1023 23.7236 32.1471C23.7236 28.5157 20.7684 25.5752 17.1517 25.5752C13.5203 25.5752 10.5651 28.5304 10.5651 32.1618C10.5651 33.9554 11.3003 35.6022 12.4764 36.7783C12.3735 36.9842 12.2706 37.1899 12.1677 37.4105C11.1826 39.4395 10.0653 41.733 9.63892 44.3059C8.78617 49.4515 10.1829 53.5829 13.5497 55.9206C15.4463 57.2289 17.534 57.8906 19.7834 57.8906C23.6501 57.8906 27.5755 55.95 31.3686 54.0681C34.074 52.7302 36.8672 51.3335 39.6165 50.6571C40.6311 50.4072 41.6896 50.2602 42.8071 50.0985C45.0712 49.775 47.4089 49.4368 49.5112 48.2165C51.9665 46.7906 53.6425 44.4087 54.1277 41.6741C54.4951 39.5718 54.1277 37.4547 53.1868 35.6022C53.819 34.5876 54.1717 33.3968 54.1717 32.1179ZM51.3048 32.1179C51.3048 34.1613 49.6435 35.8226 47.5998 35.8226C45.5564 35.8226 43.8951 34.1613 43.8951 32.1179C43.8951 31.4562 44.0713 30.824 44.38 30.2801C44.4978 30.0742 44.6448 29.8683 44.7919 29.6918C44.9389 29.5156 45.1153 29.3538 45.3063 29.2068L45.321 29.1921C45.4386 29.1038 45.5711 29.0156 45.7034 28.9273C45.7034 28.9273 45.7181 28.9273 45.7181 28.9126C45.7768 28.8834 45.8357 28.8392 45.8943 28.8097C45.909 28.8097 45.9238 28.795 45.9385 28.795C45.9974 28.7655 46.0708 28.7363 46.1444 28.7069C46.2178 28.6774 46.2914 28.648 46.3501 28.6185C46.3648 28.6185 46.3795 28.6038 46.3943 28.6038C46.4532 28.5893 46.5118 28.5599 46.5707 28.5452C46.5854 28.5452 46.6149 28.5304 46.6296 28.5304C46.703 28.5157 46.7619 28.501 46.8353 28.4862H46.85L47.0707 28.4423C47.0854 28.4423 47.1146 28.4423 47.1293 28.4276C47.1882 28.4276 47.2471 28.4129 47.3058 28.4129H47.3794C47.4528 28.4129 47.5264 28.3981 47.6145 28.3981H47.8057C47.8646 28.3981 47.9086 28.3981 47.9675 28.4129H47.9969C48.1145 28.4276 48.232 28.4423 48.3496 28.4715C50.0256 28.8245 51.3048 30.324 51.3048 32.1179ZM28.34 10.0498H51.4665L46.1591 25.7075C45.9385 25.7517 45.7181 25.8253 45.4975 25.8987L39.9108 14.5046L34.3091 25.8253C34.0887 25.7517 33.8533 25.7075 33.6182 25.6636L28.34 10.0498ZM38.852 30.8387C38.5727 29.4567 37.8671 28.2217 36.8672 27.3102L39.9108 21.1646L42.9833 27.4424C42.0718 28.354 41.4103 29.5156 41.1455 30.8387H38.852ZM31.4864 28.5157C31.5598 28.501 31.6187 28.4862 31.6921 28.4715H31.7363C31.7952 28.4568 31.8538 28.4568 31.9127 28.4423H31.9714C32.0303 28.4423 32.0745 28.4276 32.1331 28.4276H32.7067C32.7653 28.4276 32.8095 28.4423 32.8537 28.4423C32.8831 28.4423 32.8976 28.4423 32.9271 28.4568C32.986 28.4715 33.0302 28.4715 33.0888 28.4862C33.1035 28.4862 33.1183 28.4862 33.1477 28.501C33.2211 28.5157 33.2947 28.5304 33.3534 28.5452H33.3681C33.427 28.5599 33.4859 28.5746 33.5446 28.6038C33.5593 28.6038 33.574 28.6185 33.6035 28.6185C33.6477 28.6333 33.7063 28.648 33.7505 28.6774C33.7652 28.6774 33.7799 28.6922 33.7947 28.6922C33.8533 28.7216 33.9122 28.7363 33.9709 28.7655H33.9856C34.0592 28.795 34.1179 28.8245 34.1768 28.8686H34.1915C34.2504 28.8981 34.3091 28.942 34.368 28.9715C34.3827 28.9715 34.3827 28.9862 34.3974 28.9862C34.4561 29.0156 34.5003 29.0596 34.5592 29.089L34.5737 29.1038C34.7501 29.236 34.9119 29.383 35.0736 29.5301L35.0883 29.5448C35.2353 29.7065 35.3823 29.883 35.4999 30.0742C35.8823 30.6622 36.1027 31.3531 36.1027 32.1031C36.1027 34.1466 34.4414 35.8079 32.3979 35.8079C30.3542 35.8079 28.6929 34.1466 28.6929 32.1031C28.6782 30.3829 29.869 28.9273 31.4864 28.5157ZM17.0194 28.4129C19.063 28.4129 20.7243 30.0742 20.7243 32.1179C20.7243 34.1613 19.063 35.8226 17.0194 35.8226C14.9758 35.8226 13.3144 34.1613 13.3144 32.1179C13.3144 30.0742 14.9758 28.4129 17.0194 28.4129ZM51.2167 41.1595C50.8932 43.0414 49.7316 44.688 48.0261 45.6732C46.4237 46.5994 44.4537 46.8934 42.3805 47.1875C41.2486 47.3492 40.0578 47.5257 38.9109 47.805C35.8528 48.5547 32.9123 50.0249 30.0602 51.4363C26.4141 53.2446 22.9738 54.9501 19.7834 54.9501C18.1221 54.9501 16.6371 54.4796 15.2257 53.4947C11.9913 51.2599 12.153 47.0699 12.5352 44.7764C12.8881 42.6298 13.8731 40.6156 14.8141 38.6897C14.8729 38.5719 14.917 38.4691 14.9758 38.3515C15.2992 38.4691 15.6374 38.5572 15.9903 38.6161C15.4316 41.733 17.0194 44.9528 20.1068 46.5405L20.6655 46.8345L21.2683 46.6141C23.8412 45.7026 26.2229 44.2175 28.3253 42.2327C29.5163 41.1155 30.5307 39.91 31.3833 38.6014C31.7215 38.6603 32.0597 38.675 32.3979 38.675C35.456 38.675 38.0288 36.5724 38.7639 33.7497H41.2339C41.9689 36.5871 44.5418 38.675 47.5998 38.675C48.8201 38.675 49.9522 38.3368 50.9227 37.7635C51.3048 38.8659 51.4224 40.0128 51.2167 41.1595Z" fill="white"/>
    </g>
    <defs>
        <clipPath id="clip0_139_34">
            <rect width="65" height="65" fill="white"/>
        </clipPath>
    </defs>
</svg>
