<svg xmlns="http://www.w3.org/2000/svg" width="65" height="65" viewBox="0 0 65 65" fill="none">
    <g clip-path="url(#clip0_123_188)">
        <path d="M49.7656 0H15.2344C6.82066 0 0 6.82066 0 15.2344V49.7656C0 58.1793 6.82066 65 15.2344 65H49.7656C58.1793 65 65 58.1793 65 49.7656V15.2344C65 6.82066 58.1793 0 49.7656 0Z" fill="#023430"/>
        <path d="M43.4619 27.318C40.7865 15.5161 35.2107 12.3743 33.7883 10.1534C33.2018 9.17498 32.6821 8.15798 32.2332 7.10938C32.158 8.1578 32.0199 8.81834 31.1287 9.6134C29.3394 11.2088 21.7399 17.4016 21.1003 30.811C20.5045 43.3139 30.2918 51.0232 31.5847 51.8202C32.579 52.3095 33.7899 51.8306 34.3807 51.3815C39.0985 48.1437 45.5447 39.5114 43.467 27.318" fill="#10AA50"/>
        <path d="M32.6382 45.1626C32.3919 48.2572 32.2155 50.0554 31.5898 51.8238C31.5898 51.8238 32.0004 54.7699 32.2888 57.8907H33.3093C33.5528 55.6931 33.9243 53.5115 34.4224 51.3571C33.1013 50.7071 32.689 47.8781 32.6382 45.1626Z" fill="#B8C4C2"/>
        <path d="M34.4208 51.3589C33.0858 50.7422 32.6996 47.8535 32.6402 45.1626C32.9703 40.7235 33.0665 36.2703 32.9286 31.8211C32.8585 29.4867 32.9616 10.1988 32.3535 7.375C32.7697 8.33141 33.2488 9.25901 33.7883 10.1516C35.2107 12.3743 40.7883 15.5162 43.4619 27.318C45.5447 39.4906 39.1336 48.1 34.4208 51.3589Z" fill="#12924F"/>
    </g>
    <defs>
        <clipPath id="clip0_123_188">
            <rect width="65" height="65" fill="white"/>
        </clipPath>
    </defs>
</svg>
