<svg xmlns="http://www.w3.org/2000/svg" width="65" height="65" viewBox="0 0 65 65" fill="none">
    <g clip-path="url(#clip0_283_2)">
        <path d="M49.7656 0H15.2344C6.82066 0 0 6.82066 0 15.2344V49.7656C0 58.1793 6.82066 65 15.2344 65H49.7656C58.1793 65 65 58.1793 65 49.7656V15.2344C65 6.82066 58.1793 0 49.7656 0Z" fill="#242938"/>
        <path d="M37.2552 4.57031C36.8601 4.57031 36.4932 4.6572 36.1545 4.77306C36.8743 5.26548 37.2694 5.91718 37.4669 6.6558C37.4811 6.75718 37.5093 6.8296 37.5233 6.93096C37.5375 7.01787 37.5517 7.10475 37.5517 7.19167C37.6081 8.46612 37.227 8.62542 36.9588 9.37851C36.5496 10.3489 36.6625 11.3916 37.1564 12.2316C37.1988 12.333 37.2552 12.4488 37.3257 12.5502C36.7895 8.88611 39.7673 8.33577 40.3178 7.19167C40.3599 6.19237 39.5555 5.52617 38.9205 5.06271C38.3137 4.68617 37.7632 4.57031 37.2552 4.57031ZM41.7432 5.39581C41.6866 5.72891 41.729 5.64203 41.715 5.81582C41.7008 5.93168 41.7008 6.07651 41.6866 6.19237C41.6584 6.30822 41.6302 6.42408 41.5878 6.53994C41.5596 6.6558 41.5172 6.77165 41.4751 6.88751C41.4185 7.00339 41.3763 7.10475 41.3197 7.22061C41.2775 7.27858 41.2491 7.33647 41.207 7.39441C41.1788 7.43785 41.1503 7.4813 41.1221 7.52477C41.0516 7.62615 40.981 7.72751 40.9104 7.8144C40.8258 7.90131 40.7553 8.00267 40.6565 8.07511C40.6565 8.08961 40.6565 8.08961 40.6565 8.08961C40.5717 8.16202 40.4871 8.24891 40.3884 8.32132C40.092 8.55304 39.7533 8.72683 39.4428 8.94408C39.344 9.01646 39.2453 9.07441 39.1605 9.16129C39.0617 9.23371 38.9771 9.30612 38.8923 9.39303C38.7936 9.47992 38.723 9.56681 38.6384 9.66819C38.5679 9.7551 38.483 9.85646 38.4267 9.95785C38.3561 10.0592 38.2855 10.1606 38.2291 10.262C38.1725 10.3778 38.1304 10.4792 38.0737 10.5951C38.0316 10.7109 37.9892 10.8123 37.961 10.9282C37.9186 11.0585 37.8904 11.1744 37.8622 11.2902C37.848 11.3482 37.848 11.4206 37.8338 11.4785C37.8198 11.5365 37.8198 11.5944 37.8056 11.6523C37.8056 11.7682 37.7917 11.8985 37.7917 12.0144C37.7917 12.1013 37.7917 12.1882 37.8056 12.275C37.8056 12.3909 37.8198 12.5068 37.848 12.6371C37.8622 12.753 37.8904 12.8688 37.9186 12.9847C37.961 13.1005 37.9892 13.2164 38.0316 13.3323C38.0598 13.4047 38.1022 13.4771 38.1304 13.535L34.8844 12.2461C34.334 12.0868 33.7977 11.9419 33.2472 11.8116C32.9509 11.7392 32.6546 11.6668 32.3581 11.5944C31.5113 11.4206 30.6505 11.2902 29.7896 11.2034C29.7614 11.2034 29.7474 11.1888 29.719 11.1888C28.8722 11.1019 28.0396 11.0585 27.1929 11.0585C26.5718 11.0585 25.951 11.0875 25.3441 11.1309C24.4832 11.1889 23.6223 11.3047 22.7615 11.4495C22.5498 11.4785 22.3381 11.5219 22.1264 11.5654C21.6889 11.6523 21.2655 11.7537 20.8562 11.855C20.6445 11.913 20.4329 11.9709 20.2211 12.0288C20.0095 12.1157 19.8119 12.2171 19.6143 12.304C19.459 12.3764 19.3038 12.4488 19.1486 12.5212C19.1204 12.5357 19.0921 12.5357 19.078 12.5502C18.9369 12.6226 18.8099 12.6805 18.6829 12.7529C18.6405 12.7674 18.6123 12.7819 18.5841 12.7964C18.4288 12.8688 18.2736 12.9557 18.1466 13.0281C18.0478 13.0716 17.949 13.1295 17.8643 13.1729C17.822 13.2019 17.7655 13.2309 17.7373 13.2453C17.6103 13.3178 17.4833 13.3902 17.3704 13.4626C17.2434 13.535 17.1304 13.6074 17.0317 13.6798C16.9329 13.7522 16.8341 13.8102 16.7494 13.8826C16.7353 13.8971 16.7212 13.8971 16.7071 13.9115C16.6224 13.9695 16.5236 14.0419 16.4389 14.1143C16.4389 14.1143 16.4248 14.1288 16.4107 14.1432C16.3402 14.2012 16.2696 14.2591 16.199 14.317C16.1708 14.3315 16.1425 14.3605 16.1143 14.375C16.0438 14.4329 15.9732 14.5053 15.9027 14.5632C15.8885 14.5922 15.8603 14.6067 15.8462 14.6212C15.7615 14.7081 15.6768 14.7805 15.5922 14.8674C15.578 14.8674 15.578 14.8819 15.5639 14.8963C15.4793 14.9687 15.3946 15.0557 15.3099 15.1425C15.2958 15.157 15.2958 15.1715 15.2817 15.1715C15.2111 15.2439 15.1406 15.3163 15.07 15.4032C15.0418 15.4321 14.9995 15.4612 14.9712 15.4901C14.9007 15.577 14.816 15.6639 14.7313 15.7508C14.7172 15.7797 14.689 15.7942 14.6748 15.8232C14.5619 15.9391 14.4631 16.0549 14.3502 16.1708C14.3361 16.1853 14.322 16.1997 14.3079 16.2142C14.0821 16.4604 13.8422 16.7066 13.5881 16.9239C13.3341 17.1556 13.066 17.3728 12.7978 17.5611C12.5156 17.7639 12.2474 17.9376 11.9511 18.1114C11.6688 18.2707 11.3724 18.4156 11.062 18.5459C10.7656 18.6763 10.4551 18.7921 10.1446 18.8935C9.55188 19.0238 8.94504 19.27 8.42286 19.3135C8.30995 19.3135 8.18294 19.3424 8.07003 19.3569C7.94303 19.3859 7.83011 19.4149 7.71723 19.4438C7.60431 19.4873 7.4914 19.5307 7.37852 19.5742C7.2656 19.6176 7.15272 19.6755 7.0398 19.7335C6.94101 19.8059 6.82812 19.8638 6.72933 19.9362C6.63053 20.0086 6.53174 20.0955 6.44706 20.1824C6.34829 20.2549 6.2495 20.3562 6.16482 20.4431C6.08014 20.5445 5.99546 20.6314 5.9249 20.7328C5.85434 20.8486 5.76966 20.95 5.7132 21.0659C5.64263 21.1673 5.57207 21.2831 5.51563 21.399C5.45914 21.5293 5.40272 21.6452 5.36037 21.7755C5.31804 21.8914 5.27569 22.0217 5.23336 22.1521C5.20515 22.2679 5.17689 22.3838 5.1628 22.4996C5.1628 22.5142 5.14866 22.5286 5.14866 22.5431C5.12045 22.6734 5.12045 22.8472 5.10633 22.9341C5.09219 23.0355 5.07812 23.1224 5.07812 23.2238C5.07812 23.2818 5.07813 23.3541 5.09227 23.4121C5.10638 23.5134 5.12045 23.6003 5.14874 23.6872C5.17695 23.7741 5.20521 23.861 5.24751 23.9479C5.24751 23.9624 5.24751 23.9624 5.24751 23.9624C5.28986 24.0493 5.3463 24.1362 5.40277 24.2231C5.45924 24.31 5.51566 24.3969 5.58622 24.4838C5.6568 24.5562 5.74148 24.6431 5.82616 24.7155C5.91081 24.8024 5.99551 24.8748 6.09428 24.9472C6.43299 25.2514 6.51767 25.3527 6.95518 25.5844C7.02574 25.628 7.0963 25.657 7.18098 25.7004C7.19512 25.7004 7.20919 25.7149 7.22333 25.7149C7.22333 25.7438 7.22333 25.7583 7.23745 25.7872C7.25159 25.903 7.2798 26.019 7.30801 26.1348C7.33622 26.2651 7.37859 26.3811 7.42092 26.4824C7.46327 26.5693 7.49148 26.6561 7.53383 26.7432C7.54797 26.7721 7.56204 26.8011 7.57616 26.8155C7.63265 26.9313 7.68907 27.0326 7.74551 27.1342C7.81607 27.2355 7.88663 27.3368 7.95722 27.4384C8.02778 27.5252 8.11246 27.6265 8.19713 27.7134C8.28181 27.8004 8.36649 27.8728 8.46526 27.9596C8.46526 27.9596 8.4794 27.9741 8.49347 27.9741C8.57815 28.0465 8.66282 28.1191 8.7475 28.177C8.8463 28.2494 8.94509 28.3072 9.05798 28.3651C9.15677 28.423 9.26969 28.4809 9.38257 28.5246C9.46725 28.568 9.56605 28.597 9.66484 28.6259C9.67898 28.6404 9.69305 28.6404 9.72131 28.6548C9.77778 28.6693 9.84831 28.6838 9.90478 28.6983C9.86243 29.4803 9.84831 30.2189 9.96125 30.4797C10.0883 30.7694 10.7092 29.8858 11.3302 28.8719C11.2455 29.8713 11.1891 31.0444 11.3302 31.392C11.4854 31.754 12.3322 30.6244 13.0661 29.379C23.0721 27.0037 32.2029 34.1004 33.1627 44.1223C32.9791 42.558 31.1022 41.6891 30.2412 41.9065C29.818 42.9779 29.0982 44.3539 27.9409 45.2083C28.0399 44.2526 27.9975 43.2677 27.7999 42.312C27.4894 43.6442 26.8826 44.8899 26.0498 45.9613C24.7091 46.0629 23.3684 45.3967 22.6628 44.3973C22.6063 44.3539 22.5922 44.267 22.5499 44.2091C22.5075 44.1076 22.4652 44.0063 22.437 43.905C22.3946 43.8037 22.3664 43.7021 22.3523 43.6008C22.3382 43.4995 22.3382 43.3982 22.3382 43.2821C22.3382 43.2098 22.3382 43.1374 22.3382 43.065C22.3523 42.9635 22.3805 42.8622 22.4087 42.7609C22.4369 42.6595 22.4652 42.558 22.5075 42.4567C22.564 42.3554 22.6063 42.2541 22.6769 42.1525C22.9168 41.4573 22.9168 40.8926 22.4793 40.5595C22.3946 40.5016 22.3099 40.4582 22.2111 40.4148C22.1547 40.4 22.0841 40.3711 22.0277 40.3566C21.9853 40.3421 21.9571 40.3277 21.9148 40.3132C21.816 40.2843 21.7172 40.2553 21.6184 40.2408C21.5196 40.2119 21.4208 40.1974 21.322 40.1974C21.2232 40.1829 21.1103 40.1685 21.0116 40.1685C20.941 40.1685 20.8704 40.1829 20.7998 40.1829C20.687 40.1829 20.5882 40.1974 20.4894 40.2264C20.3906 40.2408 20.2918 40.2553 20.193 40.2843C20.0942 40.3132 19.9954 40.3424 19.8966 40.3858C19.7979 40.4292 19.7132 40.4727 19.6144 40.5161C19.5297 40.5595 19.445 40.6174 19.3462 40.6608C16.0579 42.8622 18.0196 48.018 20.2636 49.5097C19.4168 49.6691 18.5559 49.8573 18.316 50.0457C18.3019 50.0602 18.2878 50.0746 18.2878 50.0746C18.8947 50.4512 19.5297 50.7698 20.193 51.0448C21.0963 51.349 22.0559 51.6242 22.4793 51.74V51.7545C23.6507 52.0008 24.8361 52.0876 26.0358 52.0152C32.2877 51.5663 37.4105 46.6857 38.3421 40.2553C38.3703 40.3858 38.3985 40.5016 38.4267 40.6319C38.4691 40.8926 38.5255 41.1679 38.5539 41.4428C38.5539 41.4428 38.5539 41.4428 38.5539 41.4576C38.5821 41.5878 38.596 41.7181 38.6103 41.8341C38.6103 41.863 38.6103 41.8775 38.6103 41.892C38.6245 42.0222 38.6384 42.1528 38.6384 42.2685C38.6527 42.4277 38.6666 42.5872 38.6666 42.7464C38.6666 42.8187 38.6666 42.8914 38.6666 42.9782C38.6666 43.0506 38.6808 43.1374 38.6808 43.2098C38.6808 43.2969 38.6666 43.3837 38.6666 43.4705C38.6666 43.5429 38.6666 43.6155 38.6666 43.6734C38.6666 43.7747 38.6527 43.8615 38.6527 43.9631C38.6527 44.021 38.6527 44.0789 38.6384 44.1512C38.6384 44.2526 38.6242 44.3541 38.6242 44.4699C38.61 44.5133 38.61 44.5567 38.61 44.6002C38.596 44.7162 38.5818 44.8175 38.5679 44.9333C38.5679 44.9767 38.5679 45.0201 38.5536 45.0638C38.5394 45.2085 38.5112 45.3388 38.4973 45.4837V45.4982V45.5127C38.4691 45.6429 38.4406 45.7879 38.4125 45.9182C38.4125 45.9327 38.4125 45.9471 38.4125 45.9616C38.3843 46.0919 38.3561 46.2224 38.3279 46.3526C38.3279 46.3671 38.3137 46.396 38.3137 46.4105C38.2855 46.541 38.2573 46.6713 38.2149 46.8018C38.2149 46.8162 38.2149 46.8305 38.2149 46.8452C38.1725 46.9899 38.1301 47.1202 38.1019 47.2507C38.088 47.2652 38.088 47.2796 38.088 47.2796C38.0456 47.4244 38.0032 47.5691 37.9608 47.7141C37.9044 47.8588 37.862 47.9893 37.8056 48.134C37.7493 48.2788 37.7069 48.4237 37.6505 48.554C37.5939 48.699 37.5375 48.8292 37.4811 48.9739H37.4669C37.4103 49.1045 37.3539 49.2492 37.2833 49.3794C37.2691 49.4229 37.2552 49.452 37.2409 49.481C37.227 49.4955 37.227 49.5099 37.2128 49.5244C36.2954 51.4216 34.9408 53.087 33.2472 54.3905C33.1343 54.4629 33.0213 54.5497 32.9085 54.6368C32.8804 54.6655 32.8379 54.6802 32.8098 54.7092C32.7107 54.7815 32.612 54.8539 32.4992 54.9263L32.5414 55.0134H32.5556C32.7531 54.9844 32.9507 54.9552 33.1485 54.9263H33.1624C33.5293 54.8684 33.8965 54.796 34.2634 54.7237C34.3622 54.7092 34.4749 54.6802 34.5739 54.6513C34.6442 54.6366 34.7009 54.6223 34.7714 54.6076C34.8702 54.5931 34.969 54.5642 35.0678 54.5497C35.1523 54.5208 35.2371 54.5063 35.3217 54.4774C36.7331 54.1298 38.1019 53.6519 39.4144 53.087C37.1706 56.2298 34.1646 58.7643 30.6505 60.4297C32.2735 60.3139 33.8965 60.0387 35.4628 59.5753C41.1503 57.8518 45.9347 53.9269 48.7995 48.6408C48.2209 51.9863 46.9224 55.1726 45.0031 57.9531C46.3722 57.0263 47.6282 55.9546 48.7713 54.7381C51.9325 51.3492 54.0071 47.0478 54.7127 42.428C55.1926 44.7162 55.3338 47.0768 55.122 49.4084C65.3115 34.8245 55.9688 19.7047 52.0597 15.722C52.0454 15.6931 52.0315 15.6786 52.0315 15.6496C52.0173 15.6641 52.0173 15.6641 52.0173 15.6786C52.0173 15.6641 52.0173 15.6641 52.003 15.6496C52.003 15.8234 51.9888 15.9972 51.9749 16.171C51.9325 16.5041 51.8903 16.8227 51.8337 17.1413C51.7631 17.4599 51.6786 17.7785 51.5938 18.0972C51.495 18.4013 51.3822 18.7199 51.255 19.0241C51.1281 19.3137 50.9869 19.6178 50.8318 19.9075C50.6764 20.1827 50.507 20.4723 50.3237 20.733C50.1401 21.0082 49.9426 21.2688 49.7451 21.5151C49.5333 21.7757 49.3076 22.0075 49.0819 22.2392C48.9407 22.3695 48.8135 22.4854 48.6726 22.6012C48.5596 22.7026 48.4608 22.7895 48.3478 22.8909C48.0939 23.0936 47.8397 23.2819 47.5577 23.4557C47.2895 23.6295 47.0072 23.8033 46.7248 23.9481C46.4285 24.0929 46.1322 24.2233 45.8359 24.3536C45.5394 24.4695 45.2288 24.5709 44.9186 24.6578C44.608 24.7447 44.2833 24.8171 43.973 24.875C43.6483 24.933 43.3238 24.9619 43.0132 24.9909C42.7875 25.0054 42.5615 25.0198 42.3358 25.0198C42.0113 25.0198 41.6866 24.9909 41.3761 24.9619C41.0516 24.9329 40.7271 24.8894 40.4165 24.817C40.0918 24.7591 39.7815 24.6722 39.471 24.5708H39.4568C39.7673 24.5419 40.0778 24.5129 40.3884 24.455C40.7128 24.397 41.0234 24.3246 41.3339 24.2377C41.6442 24.1508 41.9547 24.0494 42.251 23.9336C42.5615 23.8177 42.8579 23.6729 43.1402 23.5281C43.4365 23.3832 43.7046 23.2239 43.987 23.0501C44.2551 22.8619 44.5232 22.6736 44.7774 22.4709C45.0313 22.2681 45.2712 22.0509 45.497 21.8191C45.7369 21.6019 45.9487 21.3557 46.1604 21.1095C46.3722 20.8488 46.5697 20.5881 46.753 20.3274C46.7812 20.284 46.8096 20.226 46.8378 20.1826C46.979 19.9509 47.1199 19.7192 47.2471 19.4874C47.4023 19.1978 47.5434 18.9081 47.6704 18.604C47.7973 18.2999 47.9103 17.9957 48.0091 17.6771C48.1079 17.373 48.1785 17.0544 48.249 16.7357C48.3057 16.4026 48.362 16.084 48.3902 15.7654C48.4184 15.4323 48.4466 15.0992 48.4466 14.7806C48.4466 14.5489 48.4326 14.3172 48.4184 14.0854C48.3902 13.7523 48.3478 13.4337 48.3057 13.1151C48.249 12.782 48.1785 12.4634 48.0939 12.1448C47.9951 11.8407 47.8964 11.522 47.7834 11.2179C47.6704 10.9138 47.5295 10.6096 47.3883 10.32C47.2329 10.0303 47.0778 9.74068 46.9084 9.46552C46.7248 9.19034 46.5415 8.92965 46.344 8.66897C46.1322 8.42276 45.9205 8.17657 45.6947 7.93036C45.5818 7.8145 45.4548 7.68417 45.3279 7.56831C44.6926 7.06141 44.0294 6.58348 43.3662 6.149C43.2674 6.09106 43.1826 6.04764 43.0838 6.00417C42.6182 5.70004 42.1807 5.54064 41.7432 5.39581Z" fill="#E0234E"/>
    </g>
    <defs>
        <clipPath id="clip0_283_2">
            <rect width="65" height="65" fill="white"/>
        </clipPath>
    </defs>
</svg>
