<svg xmlns="http://www.w3.org/2000/svg" width="65" height="65" viewBox="0 0 65 65" fill="none">
    <g clip-path="url(#clip0_123_45)">
        <path d="M49.7656 0H15.2344C6.82066 0 0 6.82066 0 15.2344V49.7656C0 58.1793 6.82066 65 15.2344 65H49.7656C58.1793 65 65 58.1793 65 49.7656V15.2344C65 6.82066 58.1793 0 49.7656 0Z" fill="#242938"/>
        <path d="M30.8372 7.12304C30.728 7.13297 30.3804 7.16773 30.0676 7.19253C22.855 7.84281 16.0991 11.7346 11.8202 17.7161C9.43747 21.042 7.91355 24.8146 7.33771 28.8105C7.13421 30.2055 7.10938 30.6176 7.10938 32.5087C7.10938 34.4 7.13421 34.8121 7.33771 36.2068C8.71769 45.7425 15.5034 53.7545 24.7066 56.7229C26.3547 57.2541 28.0919 57.6164 30.0676 57.8348C30.8372 57.9191 34.1628 57.9191 34.9324 57.8348C38.3426 57.4575 41.2316 56.6138 44.0809 55.1591C44.5176 54.936 44.6022 54.8763 44.5425 54.8268C44.5029 54.7968 42.6413 52.2999 40.4077 49.282L36.3472 43.7968L31.2589 36.2665C28.4593 32.1265 26.1562 28.7409 26.1361 28.7409C26.1163 28.7361 26.0965 32.0818 26.0866 36.1672C26.0716 43.3202 26.0668 43.6082 25.9774 43.7768C25.8484 44.02 25.7491 44.1193 25.5404 44.2287C25.3817 44.3079 25.2427 44.3229 24.4931 44.3229H23.6344L23.406 44.179C23.2571 44.0848 23.1479 43.9606 23.0735 43.8166L22.9692 43.5932L22.9791 33.6406L22.994 23.6828L23.1479 23.4892C23.2273 23.385 23.3961 23.2509 23.5152 23.1864C23.7188 23.0871 23.7982 23.0772 24.657 23.0772C25.6697 23.0772 25.8383 23.1169 26.1016 23.4048C26.176 23.4843 28.9308 27.6342 32.2271 32.6328C35.523 37.6315 40.0303 44.457 42.2442 47.8075L46.265 53.8985L46.4687 53.7644C48.2704 52.5929 50.1767 50.925 51.6857 49.1875C54.8973 45.4993 56.9674 41.0021 57.6624 36.2068C57.8657 34.8121 57.8906 34.4 57.8906 32.5087C57.8906 30.6176 57.8657 30.2055 57.6624 28.8105C56.2824 19.2748 49.4965 11.263 40.2934 8.29454C38.6702 7.76837 36.9429 7.40599 35.0068 7.18758C34.5302 7.13794 31.249 7.08333 30.8372 7.12304ZM41.2316 22.4815C41.4697 22.6007 41.6635 22.829 41.733 23.0673C41.7727 23.1963 41.7826 25.9564 41.7727 32.176L41.7577 41.1014L40.1842 38.6887L38.6057 36.2764V29.7886C38.6057 25.594 38.6255 23.236 38.6552 23.1219C38.7347 22.8439 38.9083 22.6255 39.1468 22.4964C39.3501 22.3922 39.4248 22.3822 40.204 22.3822C40.9388 22.3822 41.0678 22.3922 41.2316 22.4815Z" fill="white"/>
    </g>
    <defs>
        <clipPath id="clip0_123_45">
            <rect width="65" height="65" fill="white"/>
        </clipPath>
    </defs>
</svg>
