<svg width="65" height="65" viewBox="0 0 65 65" fill="none" xmlns="http://www.w3.org/2000/svg">
    <path d="M49.7656 0H15.2344C6.82066 0 0 6.82066 0 15.2344V49.7656C0 58.1793 6.82066 65 15.2344 65H49.7656C58.1793 65 65 58.1793 65 49.7656V15.2344C65 6.82066 58.1793 0 49.7656 0Z" fill="#242938"/>
    <g clip-path="url(#clip0_123_128)">
        <path opacity="0.991" fill-rule="evenodd" clip-rule="evenodd" d="M37.621 8.00627C35.9038 7.80334 34.1897 7.59013 32.4785 7.36664C33.0823 6.54049 33.8048 5.83689 34.646 5.25585C35.0266 4.99085 35.4091 4.97664 35.7935 5.21321C36.306 5.6707 36.724 6.20373 37.0473 6.81229C37.2506 7.20601 37.4418 7.604 37.621 8.00627Z" fill="#81E493"/>
        <path opacity="0.995" fill-rule="evenodd" clip-rule="evenodd" d="M32.4789 7.36664C34.1901 7.59013 35.9043 7.80334 37.6214 8.00627C37.8395 8.45859 38.0236 8.92765 38.1739 9.41346C35.9676 9.18116 33.7718 8.91109 31.5864 8.60326C31.8349 8.15505 32.1324 7.74284 32.4789 7.36664Z" fill="#7AE18C"/>
        <path opacity="0.997" fill-rule="evenodd" clip-rule="evenodd" d="M31.5864 8.60327C33.7717 8.9111 35.9676 9.18117 38.1739 9.41347C38.3855 9.96552 38.5555 10.5341 38.6839 11.1192C38.6866 11.1378 38.6796 11.1521 38.6626 11.1618C35.9825 10.8123 33.2979 10.4854 30.6089 10.181C30.8845 9.62093 31.2104 9.09502 31.5864 8.60327Z" fill="#74DE86"/>
        <path opacity="0.997" fill-rule="evenodd" clip-rule="evenodd" d="M30.6088 10.181C33.2979 10.4854 35.9824 10.8123 38.6626 11.1618C38.6795 11.1521 38.6866 11.1378 38.6838 11.1192C38.8735 11.7576 39.0151 12.4114 39.1088 13.0807C36.048 12.7205 32.988 12.351 29.9288 11.972C29.8541 11.9759 29.7833 11.9901 29.7163 12.0146C29.9582 11.373 30.2557 10.7618 30.6088 10.181Z" fill="#6EDB7F"/>
        <path opacity="0.993" fill-rule="evenodd" clip-rule="evenodd" d="M24.4039 12.4411C22.6347 13.1753 20.8497 13.886 19.0489 14.5732C19.0199 14.5415 18.9916 14.5131 18.9639 14.4879C19.0101 13.7089 19.173 12.9555 19.4526 12.2279C19.5935 11.9443 19.8131 11.7524 20.1114 11.6522C21.0322 11.5086 21.9389 11.5797 22.8314 11.8654C23.3679 12.0282 23.8921 12.2201 24.4039 12.4411Z" fill="#52C560"/>
        <path opacity="0.997" fill-rule="evenodd" clip-rule="evenodd" d="M39.1085 13.0807C39.2035 13.5445 39.2602 14.0135 39.2785 14.4879C35.9269 14.0827 32.5836 13.6563 29.2485 13.2086C29.3718 12.7944 29.5276 12.3964 29.716 12.0146C29.783 11.9901 29.8538 11.9759 29.9285 11.972C32.9878 12.3509 36.0478 12.7205 39.1085 13.0807Z" fill="#67D879"/>
        <path opacity="0.997" fill-rule="evenodd" clip-rule="evenodd" d="M24.4039 12.441C24.9994 12.7111 25.5661 13.0238 26.1039 13.3792C23.7053 14.3474 21.297 15.2997 18.8789 16.2362C18.8777 15.6513 18.906 15.0685 18.9639 14.4879C18.9916 14.5131 19.02 14.5415 19.0489 14.5731C20.8498 13.886 22.6348 13.1753 24.4039 12.441Z" fill="#52BE5E"/>
        <path opacity="0.998" fill-rule="evenodd" clip-rule="evenodd" d="M26.1039 13.3792C26.6355 13.6852 27.1313 14.0405 27.5914 14.4452C24.7113 15.5418 21.8355 16.6505 18.9639 17.7713C18.9168 17.2613 18.8884 16.7496 18.8789 16.2362C21.297 15.2997 23.7053 14.3474 26.1039 13.3792Z" fill="#51B85C"/>
        <path opacity="0.998" fill-rule="evenodd" clip-rule="evenodd" d="M29.2487 13.2086C32.5837 13.6563 35.9271 14.0827 39.2787 14.4879C39.3467 14.9766 39.375 15.4741 39.3637 15.9804C35.8485 15.5679 32.3351 15.1415 28.8237 14.7011C28.8237 14.6443 28.8237 14.5874 28.8237 14.5305C28.9155 14.0695 29.0572 13.6289 29.2487 13.2086Z" fill="#62D573"/>
        <path opacity="0.998" fill-rule="evenodd" clip-rule="evenodd" d="M27.5914 14.4453C27.9565 14.712 28.2965 15.0105 28.6114 15.3407C28.5865 15.5486 28.544 15.7476 28.4839 15.9377C25.4205 17.1119 22.3605 18.2988 19.3039 19.4983C19.2533 19.5281 19.2108 19.5636 19.1764 19.6049C19.0672 18.9989 18.9964 18.3877 18.9639 17.7713C21.8354 16.6505 24.7113 15.5418 27.5914 14.4453Z" fill="#51B15A"/>
        <path opacity="0.997" fill-rule="evenodd" clip-rule="evenodd" d="M47.0564 14.829C47.6863 16.4619 48.338 18.0823 49.0114 19.6902C48.8498 20.4536 48.6231 21.1927 48.3314 21.9076C47.394 19.6135 46.4661 17.3109 45.5477 14.9996C45.5297 14.9174 45.4801 14.8748 45.3989 14.8716C45.944 14.7944 46.4965 14.7802 47.0564 14.829Z" fill="#52BE5E"/>
        <path opacity="0.989" fill-rule="evenodd" clip-rule="evenodd" d="M47.0562 14.829C47.7536 14.8476 48.4052 15.0252 49.0112 15.3621C49.2583 15.565 49.3929 15.828 49.4149 16.1509C49.4925 17.3605 49.3579 18.5402 49.0112 19.6902C48.3377 18.0824 47.686 16.462 47.0562 14.829Z" fill="#52C460"/>
        <path opacity="0.998" fill-rule="evenodd" clip-rule="evenodd" d="M45.3986 14.8716C45.4798 14.8748 45.5294 14.9174 45.5473 14.9996C46.4658 17.3109 47.3937 19.6135 48.3311 21.9076C48.1232 22.5522 47.8682 23.1776 47.5661 23.7839C47.513 23.7806 47.4776 23.7521 47.4598 23.6986C46.3164 20.8214 45.1618 17.9502 43.9961 15.0849C44.4504 14.9628 44.9179 14.8918 45.3986 14.8716Z" fill="#51B85C"/>
        <path opacity="0.998" fill-rule="evenodd" clip-rule="evenodd" d="M43.9964 15.0848C45.1621 17.9502 46.3167 20.8214 47.4601 23.6986C47.4778 23.7521 47.5132 23.7806 47.5664 23.7838C47.2554 24.4651 46.9012 25.1189 46.5039 25.7454C46.449 25.7216 46.4136 25.6789 46.3976 25.6174C45.0568 22.2424 43.7039 18.8736 42.3389 15.5113C42.8773 15.317 43.4298 15.1749 43.9964 15.0848Z" fill="#51B15A"/>
        <path opacity="0.999" fill-rule="evenodd" clip-rule="evenodd" d="M28.8239 14.5305C28.8239 14.5874 28.8239 14.6442 28.8239 14.7011C32.3353 15.1415 35.8486 15.5679 39.3639 15.9804C39.3639 16.293 39.3639 16.6058 39.3639 16.9185C39.3371 17.1928 39.3088 17.4629 39.2789 17.7287C39.2789 17.6434 39.2789 17.5581 39.2789 17.4728C35.6832 17.0547 32.0919 16.6141 28.5052 16.1509C28.4933 16.19 28.4721 16.2184 28.4414 16.2362C28.4488 16.1355 28.463 16.036 28.4839 15.9377C28.544 15.7476 28.5865 15.5486 28.6114 15.3407C28.6633 15.0609 28.7342 14.7909 28.8239 14.5305Z" fill="#5CD26D"/>
        <path opacity="0.999" fill-rule="evenodd" clip-rule="evenodd" d="M42.3385 15.5113C43.7036 18.8737 45.0565 22.2424 46.3973 25.6175C46.4133 25.679 46.4487 25.7216 46.5035 25.7454C46.1953 26.2673 45.8553 26.7648 45.4835 27.2379C44.0038 23.5014 42.5021 19.7774 40.9785 16.0656C41.4097 15.8354 41.863 15.6506 42.3385 15.5113Z" fill="#51AB58"/>
        <path opacity="0.999" fill-rule="evenodd" clip-rule="evenodd" d="M28.4838 15.9377C28.4628 16.036 28.4487 16.1355 28.4413 16.2362C28.351 16.7438 28.2943 17.2555 28.2713 17.7713C28.2571 17.7713 28.2429 17.7713 28.2288 17.7713C28.2354 17.7127 28.2283 17.6559 28.2075 17.6007C25.2896 18.759 22.3642 19.8961 19.4313 21.0121C19.3244 20.5471 19.2394 20.0781 19.1763 19.6049C19.2107 19.5636 19.2532 19.5281 19.3038 19.4983C22.3604 18.2987 25.4204 17.1119 28.4838 15.9377Z" fill="#51AB58"/>
        <path opacity="0.999" fill-rule="evenodd" clip-rule="evenodd" d="M40.9786 16.0656C42.5022 19.7774 44.0038 23.5014 45.4836 27.2379C45.1633 27.6534 44.8233 28.0514 44.4636 28.4318C44.4105 28.4285 44.3751 28.4001 44.3574 28.3465C42.8056 24.4652 41.2543 20.5848 39.7036 16.7052C40.1052 16.4469 40.5302 16.2337 40.9786 16.0656Z" fill="#51A556"/>
        <path fill-rule="evenodd" clip-rule="evenodd" d="M39.279 17.7287C39.2641 18.195 39.2075 18.6499 39.109 19.0932C35.499 18.6371 31.8865 18.1964 28.2715 17.7713C28.2946 17.2556 28.3512 16.7439 28.4415 16.2362C28.4722 16.2184 28.4934 16.19 28.5052 16.1509C32.092 16.6141 35.6832 17.0547 39.279 17.4728C39.279 17.5581 39.279 17.6434 39.279 17.7287Z" fill="#55CF67"/>
        <path fill-rule="evenodd" clip-rule="evenodd" d="M39.7037 16.7053C41.2544 20.5848 42.8056 24.4652 44.3574 28.3466C44.3752 28.4001 44.4106 28.4286 44.4637 28.4319C44.407 28.5171 44.3362 28.5882 44.2512 28.6451C44.1862 28.6147 44.1295 28.5721 44.0812 28.5171C43.0127 26.6694 41.6669 25.0419 40.0437 23.6346C39.5318 23.222 39.0076 22.8311 38.4712 22.462C38.7535 21.3579 38.966 20.235 39.1087 19.0932C39.2072 18.6499 39.2638 18.195 39.2787 17.7287C39.3086 17.4629 39.3369 17.1928 39.3637 16.9185C39.477 16.8474 39.5903 16.7763 39.7037 16.7053Z" fill="#51A256"/>
        <path fill-rule="evenodd" clip-rule="evenodd" d="M28.2289 17.7713C28.243 17.7713 28.2572 17.7713 28.2714 17.7713C31.8864 18.1964 35.4989 18.6371 39.1089 19.0932C38.9662 20.235 38.7537 21.3579 38.4714 22.4619C35.2607 20.4492 31.8182 19.909 28.1439 20.8415C28.1016 20.3374 28.0874 19.8257 28.1014 19.3064C28.1532 18.8014 28.1957 18.2897 28.2289 17.7713Z" fill="#52CE63"/>
        <path opacity="0.999" fill-rule="evenodd" clip-rule="evenodd" d="M28.2287 17.7713C28.1955 18.2897 28.153 18.8014 28.1012 19.3065C28.0692 19.2607 28.0267 19.2536 27.9737 19.2851C25.257 20.3567 22.537 21.4157 19.8137 22.462C19.6729 21.9824 19.5454 21.4991 19.4312 21.0121C22.3641 19.8962 25.2895 18.759 28.2074 17.6008C28.2282 17.6559 28.2353 17.7128 28.2287 17.7713Z" fill="#51A557"/>
        <path opacity="0.999" fill-rule="evenodd" clip-rule="evenodd" d="M28.1015 19.3064C28.0875 19.8257 28.1017 20.3374 28.144 20.8416C26.15 21.4579 24.365 22.4458 22.789 23.8052C22.1997 24.3467 21.633 24.9082 21.089 25.4896C20.5644 24.5216 20.1394 23.5124 19.814 22.462C22.5373 21.4157 25.2573 20.3567 27.974 19.2851C28.027 19.2536 28.0695 19.2607 28.1015 19.3064Z" fill="#51A256"/>
        <path fill-rule="evenodd" clip-rule="evenodd" d="M38.4712 22.4619C39.0076 22.8311 39.5318 23.222 40.0437 23.6346C41.6669 25.0419 43.0127 26.6694 44.0812 28.5171C40.2893 28.1945 36.5068 27.8392 32.7337 27.4511C33.5397 26.621 34.3543 25.7966 35.1774 24.9778C35.4211 24.4434 35.2582 24.1165 34.6887 23.9971C34.5813 24.0083 34.4821 24.0438 34.3912 24.1037C33.4627 25.0424 32.5277 25.9734 31.5862 26.8967C30.6588 25.9876 29.738 25.0708 28.8237 24.1463C28.4029 23.8848 28.0842 23.9772 27.8674 24.4235C27.8325 24.6042 27.8608 24.7748 27.9524 24.9352C28.7048 25.6829 29.4485 26.4362 30.1837 27.1952C30.1287 27.2233 30.065 27.2375 29.9924 27.2379C26.8406 26.9439 23.6885 26.6525 20.5362 26.3637C20.4836 26.3538 20.4411 26.3325 20.4087 26.2997C20.6257 26.02 20.8523 25.75 21.0887 25.4895C21.6327 24.9082 22.1994 24.3467 22.7887 23.8052C24.3648 22.4457 26.1498 21.4578 28.1437 20.8415C31.818 19.909 35.2605 20.4492 38.4712 22.4619Z" fill="#FEE46B"/>
        <path fill-rule="evenodd" clip-rule="evenodd" d="M32.7338 27.4511C32.597 27.5376 32.5049 27.6513 32.4575 27.7922C33.0694 28.3776 33.6502 28.9888 34.2 29.6258C34.2819 30.0908 34.0907 30.3609 33.6263 30.436C33.5188 30.4248 33.4197 30.3893 33.3288 30.3294C32.7544 29.746 32.1736 29.1704 31.5863 28.6024C31.0131 29.1562 30.4465 29.7176 29.8863 30.2868C29.4428 30.551 29.124 30.4444 28.93 29.967C28.8913 29.7984 28.9196 29.6421 29.015 29.4979C29.5817 28.9294 30.1484 28.3608 30.715 27.7922C30.5815 27.5652 30.4044 27.3662 30.1838 27.1952C29.4486 26.4362 28.7049 25.6829 27.9525 24.9352C27.8609 24.7748 27.8325 24.6042 27.8675 24.4235C28.0843 23.9772 28.403 23.8848 28.8238 24.1463C29.7381 25.0708 30.6589 25.9876 31.5863 26.8967C32.5278 25.9734 33.4628 25.0424 34.3913 24.1037C34.4822 24.0438 34.5813 24.0083 34.6888 23.9971C35.2583 24.1165 35.4212 24.4434 35.1775 24.9778C34.3544 25.7966 33.5398 26.6211 32.7338 27.4511Z" fill="#FFC73B"/>
        <path opacity="0.999" fill-rule="evenodd" clip-rule="evenodd" d="M20.4087 26.2997C20.4411 26.3325 20.4836 26.3538 20.5362 26.3637C23.6885 26.6525 26.8406 26.9439 29.9924 27.2379C30.065 27.2375 30.1287 27.2233 30.1837 27.1952C30.4043 27.3662 30.5814 27.5652 30.7149 27.7922C30.1483 28.3608 29.5816 28.9294 29.0149 29.4979C28.9195 29.6421 28.8912 29.7984 28.9299 29.967C29.1239 30.4444 29.4427 30.551 29.8862 30.2868C30.4464 29.7176 31.013 29.1562 31.5862 28.6024C32.1735 29.1704 32.7543 29.746 33.3287 30.3294C33.4196 30.3893 33.5187 30.4248 33.6262 30.436C34.0906 30.3609 34.2818 30.0908 34.1999 29.6258C33.6501 28.9888 33.0693 28.3776 32.4574 27.7922C32.5048 27.6513 32.5969 27.5376 32.7337 27.4511C36.5068 27.8392 40.2893 28.1945 44.0812 28.5171C44.1295 28.5721 44.1861 28.6147 44.2512 28.6451C44.8672 29.7391 45.3914 30.8763 45.8237 32.0564C45.7542 32.0846 45.6763 32.0988 45.5899 32.0991C36.5587 31.2676 27.5274 30.436 18.4962 29.6045C18.4366 29.587 18.38 29.5657 18.3262 29.5405C18.9213 28.3905 19.6154 27.3102 20.4087 26.2997Z" fill="#FFE267"/>
        <path opacity="0.999" fill-rule="evenodd" clip-rule="evenodd" d="M18.3263 29.5405C18.3802 29.5657 18.4368 29.587 18.4963 29.6045C27.5276 30.436 36.5588 31.2675 45.5901 32.0991C45.6765 32.0988 45.7544 32.0846 45.8238 32.0564C45.9473 32.3139 46.0465 32.584 46.1213 32.8666C36.8053 32.033 27.4907 31.1802 18.1776 30.3081C18.0958 30.3115 18.0179 30.3257 17.9438 30.3507C18.0598 30.0753 18.1873 29.8052 18.3263 29.5405Z" fill="#FFE064"/>
        <path opacity="0.999" fill-rule="evenodd" clip-rule="evenodd" d="M46.1215 32.8666C46.5592 34.069 46.8851 35.3056 47.099 36.5765C44.9786 36.3495 42.8536 36.1505 40.724 35.9795C41.0603 34.4299 40.522 33.2999 39.109 32.5895C37.7833 32.1383 36.6854 32.4581 35.8152 33.5489C35.3996 34.1366 35.2367 34.7905 35.3265 35.5104C32.5415 35.2073 29.7507 34.9373 26.954 34.7002C26.8935 33.1113 26.086 32.1519 24.5315 31.8219C22.8574 31.7663 21.8233 32.5551 21.429 34.1885C19.8296 34.031 18.2287 33.8889 16.6265 33.7621C16.9496 32.5758 17.3887 31.4387 17.944 30.3507C18.018 30.3258 18.096 30.3116 18.1777 30.3081C27.4909 31.1802 36.8054 32.033 46.1215 32.8666Z" fill="#FFDE60"/>
        <path fill-rule="evenodd" clip-rule="evenodd" d="M26.9539 34.7002C26.8167 36.0439 26.1083 36.9109 24.8289 37.3014C23.79 37.5035 22.8975 37.2334 22.1514 36.4912C21.5962 35.8274 21.3554 35.0598 21.4289 34.1885C21.8232 32.5551 22.8574 31.7663 24.5314 31.8219C26.0859 32.1519 26.8934 33.1113 26.9539 34.7002Z" fill="#FDFDFC"/>
        <path fill-rule="evenodd" clip-rule="evenodd" d="M40.7237 35.9795C40.5868 36.4431 40.346 36.8411 40.0012 37.1735C39.2506 37.8129 38.3864 38.0687 37.4087 37.941C36.8593 37.7178 36.3706 37.3909 35.9424 36.9603C35.609 36.5328 35.4036 36.0496 35.3262 35.5104C35.2364 34.7905 35.3993 34.1366 35.8149 33.5489C36.6851 32.4581 37.783 32.1383 39.1087 32.5894C40.5217 33.2999 41.06 34.4299 40.7237 35.9795Z" fill="#FDFDFC"/>
        <path fill-rule="evenodd" clip-rule="evenodd" d="M23.8511 32.7813C24.9047 32.6949 25.6059 33.1497 25.9549 34.1459C26.1053 35.344 25.6023 36.0902 24.4461 36.3846C23.3987 36.4425 22.7258 35.9663 22.4274 34.9561C22.3073 33.8313 22.7818 33.1064 23.8511 32.7813Z" fill="#020202"/>
        <path fill-rule="evenodd" clip-rule="evenodd" d="M37.6213 33.3784C38.6722 33.2336 39.4018 33.6459 39.81 34.615C40.0073 35.4282 39.7878 36.1033 39.1513 36.6405C38.4035 37.0787 37.6669 37.0645 36.9413 36.5978C36.212 35.8954 36.0774 35.0922 36.5375 34.1886C36.8218 33.8086 37.183 33.5385 37.6213 33.3784Z" fill="#020202"/>
        <path fill-rule="evenodd" clip-rule="evenodd" d="M23.2139 33.5063C23.9219 33.4298 24.2548 33.7425 24.2126 34.4444C24.0511 34.8339 23.7607 35.0115 23.3414 34.9774C22.8083 34.7944 22.6312 34.432 22.8101 33.89C22.9124 33.7234 23.047 33.5955 23.2139 33.5063Z" fill="#FAFAFA"/>
        <path fill-rule="evenodd" clip-rule="evenodd" d="M37.1964 34.0606C37.8199 34.0395 38.1245 34.338 38.1101 34.9561C37.8936 35.5262 37.5041 35.6896 36.9414 35.4465C36.6268 35.1466 36.5631 34.7984 36.7501 34.4018C36.8715 34.2435 37.0202 34.1298 37.1964 34.0606Z" fill="#FAFAFA"/>
        <path opacity="0.997" fill-rule="evenodd" clip-rule="evenodd" d="M16.6263 33.7621C18.2286 33.8889 19.8294 34.031 21.4288 34.1886C21.3553 35.0598 21.5961 35.8274 22.1513 36.4912C21.6429 36.4873 21.1754 36.6223 20.7488 36.8963C20.4848 37.1143 20.4281 37.3772 20.5788 37.6852C18.994 37.5251 17.4073 37.383 15.8188 37.2588C15.9913 36.0658 16.2605 34.9003 16.6263 33.7621Z" fill="#FED95A"/>
        <path opacity="0.999" fill-rule="evenodd" clip-rule="evenodd" d="M26.9536 34.7003C29.7503 34.9373 32.5412 35.2073 35.3261 35.5105C35.4036 36.0496 35.609 36.5328 35.9424 36.9603C36.3706 37.3909 36.8593 37.7178 37.4086 37.9411C37.2736 38.3745 37.4153 38.6943 37.8336 38.9005C38.8244 39.3566 39.8444 39.4276 40.8936 39.1137C41.3509 39.0234 41.6839 38.7747 41.8924 38.3675C41.9319 38.0699 41.8256 37.8354 41.5736 37.6639C41.0886 37.3761 40.5644 37.2126 40.0011 37.1735C40.3459 36.8411 40.5867 36.4431 40.7236 35.9795C42.8533 36.1505 44.9783 36.3495 47.0986 36.5765C47.3364 37.7572 47.4781 38.9512 47.5236 40.1585C42.354 39.6766 37.1831 39.2075 32.0111 38.7513C32.4459 38.5862 32.8497 38.3588 33.2224 38.069C33.3675 37.6745 33.233 37.511 32.8186 37.5786C31.8124 38.3286 30.7358 38.4423 29.5886 37.9197C29.2507 37.7371 28.9815 37.4812 28.7811 37.1522C28.4341 37.0318 28.2712 37.1526 28.2924 37.5146C28.5201 37.9066 28.8247 38.2193 29.2061 38.4528C27.7993 38.35 26.3968 38.222 24.9986 38.069C25.0925 37.7769 25.0358 37.521 24.8286 37.3014C26.108 36.911 26.8164 36.0439 26.9536 34.7003Z" fill="#FED95A"/>
        <path fill-rule="evenodd" clip-rule="evenodd" d="M22.1512 36.4912C22.8973 37.2334 23.7898 37.5035 24.8287 37.3014C25.0359 37.521 25.0926 37.7769 24.9987 38.069C24.7494 38.3437 24.4378 38.5213 24.0637 38.602C23.2085 38.7421 22.3727 38.671 21.5562 38.3888C21.1659 38.2364 20.8401 38.0019 20.5787 37.6852C20.428 37.3772 20.4847 37.1143 20.7487 36.8963C21.1753 36.6223 21.6428 36.4873 22.1512 36.4912Z" fill="#EAADCB"/>
        <path fill-rule="evenodd" clip-rule="evenodd" d="M32.0111 38.7512C31.0391 38.9882 30.1041 38.8887 29.2061 38.4527C28.8247 38.2192 28.5201 37.9065 28.2924 37.5146C28.2712 37.1526 28.4341 37.0318 28.7811 37.1522C28.9815 37.4812 29.2507 37.737 29.5886 37.9197C30.7358 38.4423 31.8124 38.3286 32.8186 37.5786C33.233 37.511 33.3675 37.6745 33.2224 38.069C32.8497 38.3588 32.4459 38.5862 32.0111 38.7512Z" fill="#050401"/>
        <path fill-rule="evenodd" clip-rule="evenodd" d="M40.0013 37.1735C40.5646 37.2127 41.0888 37.3762 41.5738 37.6639C41.8258 37.8354 41.932 38.0699 41.8925 38.3675C41.684 38.7747 41.3511 39.0235 40.8938 39.1137C39.8446 39.4277 38.8246 39.3566 37.8338 38.9005C37.4154 38.6944 37.2738 38.3745 37.4088 37.9411C38.3865 38.0688 39.2507 37.8129 40.0013 37.1735Z" fill="#EAADCB"/>
        <path opacity="0.999" fill-rule="evenodd" clip-rule="evenodd" d="M15.8185 37.2588C17.407 37.383 18.9936 37.5251 20.5785 37.6852C20.8399 38.0019 21.1657 38.2364 21.556 38.3888C22.3725 38.671 23.2083 38.7421 24.0635 38.602C24.4376 38.5213 24.7492 38.3437 24.9985 38.069C26.3967 38.222 27.7992 38.35 29.206 38.4528C30.104 38.8887 31.039 38.9882 32.011 38.7513C37.183 39.2075 42.3539 39.6766 47.5235 40.1585C47.5878 41.3823 47.5736 42.6047 47.481 43.8257C46.2808 43.6884 45.0767 43.5676 43.8685 43.4632C43.8296 43.4514 43.8013 43.43 43.7835 43.3993C43.9454 43.2582 44.0658 43.0876 44.1448 42.8876C44.159 42.4753 43.9607 42.2479 43.5498 42.2053C43.4168 42.198 43.2963 42.2335 43.1885 42.3119C42.8837 42.6674 42.5579 43.0014 42.211 43.314C33.2994 42.4946 24.3886 41.6702 15.4785 40.8407C15.4785 40.5991 15.4785 40.3575 15.4785 40.1158C15.5479 39.1626 15.6612 38.2103 15.8185 37.2588Z" fill="#FED654"/>
        <path opacity="0.999" fill-rule="evenodd" clip-rule="evenodd" d="M15.4785 40.8407C24.3886 41.6702 33.2994 42.4946 42.211 43.3139C41.3762 44.2084 40.5262 45.0897 39.661 45.9578C38.8057 45.0498 37.9416 44.1472 37.0685 43.25C36.7772 43.0826 36.5151 43.1181 36.2823 43.3566C36.1611 43.5775 36.1469 43.8049 36.2398 44.0389C37.0898 44.9485 37.9398 45.8583 38.7898 46.768C38.7911 46.903 38.7274 47.0025 38.5985 47.0665C34.0831 46.6779 29.5781 46.2514 25.0835 45.7872C25.6061 45.2131 26.1373 44.6445 26.6773 44.0815C26.8846 43.5736 26.7217 43.2609 26.1885 43.1434C26.0639 43.1419 25.9505 43.1774 25.8485 43.25C24.9914 44.1668 24.1344 45.0836 23.2773 46.0004C22.0956 44.7437 20.8985 43.5 19.686 42.2692C19.0918 42.0942 18.8014 42.3145 18.8148 42.9302C18.8348 43.0046 18.8631 43.0757 18.8998 43.1434C19.6239 43.8911 20.3393 44.6445 21.046 45.4034C20.9838 45.4316 20.9129 45.4458 20.8335 45.446C19.1198 45.282 17.4056 45.1256 15.691 44.977C15.5978 44.3824 15.5269 43.7854 15.4785 43.186C15.4785 42.4043 15.4785 41.6225 15.4785 40.8407Z" fill="#FED24E"/>
        <path fill-rule="evenodd" clip-rule="evenodd" d="M25.0836 45.7872C24.7443 46.1278 24.4185 46.4831 24.1061 46.8533C24.2912 47.0674 24.4895 47.2664 24.7011 47.4502C25.3527 48.1607 26.0185 48.8574 26.6986 49.5397C27.0073 49.9137 27.3402 50.2689 27.6974 50.6058C27.9813 51.1439 27.8255 51.471 27.2299 51.5865C27.107 51.5968 27.0008 51.5614 26.9111 51.4799C25.6833 50.2339 24.472 48.976 23.2774 47.7061C22.6895 48.3244 22.1015 48.9427 21.5136 49.561C20.9248 49.7772 20.6273 49.5713 20.6211 48.9427C20.6478 48.8323 20.6974 48.7329 20.7699 48.6442C21.3373 48.0536 21.8968 47.4567 22.4486 46.8533C22.01 46.342 21.5425 45.8588 21.0461 45.4034C20.3394 44.6445 19.624 43.8912 18.8999 43.1434C18.8632 43.0757 18.8349 43.0046 18.8149 42.9302C18.8015 42.3145 19.0919 42.0942 19.6861 42.2692C20.8987 43.5 22.0958 44.7438 23.2774 46.0004C24.1345 45.0836 24.9915 44.1668 25.8486 43.25C25.9506 43.1775 26.064 43.1419 26.1886 43.1434C26.7218 43.261 26.8848 43.5737 26.6774 44.0815C26.1374 44.6445 25.6062 45.2131 25.0836 45.7872Z" fill="#ECB732"/>
        <path fill-rule="evenodd" clip-rule="evenodd" d="M43.7838 43.3993C42.6957 44.5408 41.5977 45.678 40.49 46.8106C40.5806 46.9947 40.7152 47.1511 40.8938 47.2797C41.3313 47.7684 41.7775 48.2519 42.2325 48.7295C42.4406 49.2502 42.2706 49.5628 41.7225 49.6677C41.6064 49.663 41.5002 49.6271 41.4038 49.561C40.8159 48.9427 40.2279 48.3244 39.64 47.7061C38.7756 48.6374 37.9044 49.561 37.0263 50.4779C36.6935 50.7763 36.3819 51.0962 36.0913 51.4373C35.7063 51.6868 35.3875 51.6228 35.135 51.2454C35.1067 51.0889 35.1067 50.9328 35.135 50.7763C35.2497 50.6262 35.3701 50.4838 35.4963 50.3499C36.0643 49.7802 36.6168 49.1973 37.1538 48.6016C37.6498 48.104 38.1315 47.5922 38.5988 47.0665C38.7276 47.0026 38.7914 46.9031 38.79 46.768C37.94 45.8583 37.09 44.9486 36.24 44.0389C36.1472 43.8049 36.1614 43.5775 36.2825 43.3566C36.5154 43.1182 36.7774 43.0826 37.0688 43.25C37.9419 44.1472 38.806 45.0498 39.6613 45.9578C40.5265 45.0897 41.3765 44.2085 42.2113 43.314C42.5582 43.0014 42.884 42.6674 43.1888 42.3119C43.2966 42.2335 43.417 42.198 43.55 42.2053C43.961 42.2479 44.1593 42.4753 44.145 42.8876C44.0661 43.0876 43.9457 43.2582 43.7838 43.3993Z" fill="#ECB732"/>
        <path opacity="0.997" fill-rule="evenodd" clip-rule="evenodd" d="M43.784 43.3992C43.8017 43.43 43.8301 43.4513 43.869 43.4632C45.0771 43.5675 46.2813 43.6884 47.4815 43.8257C47.3911 45.1942 47.1361 46.5303 46.7165 47.834C44.7752 47.6519 42.8344 47.467 40.894 47.2797C40.7154 47.1511 40.5808 46.9947 40.4902 46.8106C41.598 45.6779 42.6959 44.5408 43.784 43.3992Z" fill="#FED24D"/>
        <path fill-rule="evenodd" clip-rule="evenodd" d="M25.0839 45.7872C29.5786 46.2515 34.0836 46.6779 38.5989 47.0665C38.1317 47.5922 37.65 48.104 37.1539 48.6016C33.0015 48.2306 28.8507 47.8468 24.7014 47.4503C24.4898 47.2664 24.2915 47.0674 24.1064 46.8533C24.4188 46.4832 24.7446 46.1278 25.0839 45.7872Z" fill="#FECF49"/>
        <path opacity="0.997" fill-rule="evenodd" clip-rule="evenodd" d="M15.6914 44.977C17.406 45.1256 19.1202 45.282 20.8339 45.4461C20.9133 45.4458 20.9842 45.4316 21.0464 45.4034C21.5427 45.8587 22.0102 46.342 22.4489 46.8532C21.8971 47.4567 21.3375 48.0536 20.7702 48.6442C20.6977 48.7329 20.6481 48.8323 20.6214 48.9427C20.5616 48.9666 20.4978 48.9807 20.4302 48.9854C19.1633 48.8574 17.8954 48.744 16.6264 48.6442C16.1553 47.4642 15.8436 46.2418 15.6914 44.977Z" fill="#FECE47"/>
        <path fill-rule="evenodd" clip-rule="evenodd" d="M24.7012 47.4503C28.8504 47.8468 33.0013 48.2306 37.1537 48.6016C36.6167 49.1973 36.0642 49.7802 35.4962 50.3499C32.561 50.0996 29.6285 49.8293 26.6987 49.5397C26.0185 48.8574 25.3527 48.1607 24.7012 47.4503Z" fill="#FECD46"/>
        <path opacity="0.998" fill-rule="evenodd" clip-rule="evenodd" d="M26.699 49.5397C29.6288 49.8293 32.5613 50.0996 35.4965 50.3499C35.3703 50.4838 35.2499 50.6262 35.1352 50.7763C35.1069 50.9328 35.1069 51.0889 35.1352 51.2454C35.3877 51.6228 35.7065 51.6868 36.0915 51.4373C36.3821 51.0962 36.6937 50.7763 37.0265 50.4779C39.6107 50.7452 42.2032 50.9938 44.804 51.2241C44.8429 51.236 44.8712 51.2574 44.889 51.2881C43.785 52.694 42.4109 53.7459 40.7665 54.4436C33.5913 53.7634 26.4088 53.0952 19.219 52.4394C18.4279 51.7234 17.7691 50.8992 17.2427 49.9661C17.0135 49.5346 16.8081 49.0941 16.6265 48.6442C17.8954 48.744 19.1633 48.8575 20.4302 48.9854C20.4979 48.9807 20.5616 48.9666 20.6215 48.9427C20.6276 49.5713 20.9251 49.7772 21.514 49.561C22.1019 48.9427 22.6898 48.3244 23.2777 47.7061C24.4723 48.976 25.6836 50.2339 26.9115 51.4799C27.0011 51.5614 27.1073 51.5968 27.2302 51.5866C27.8259 51.471 27.9817 51.1439 27.6977 50.6058C27.3405 50.2689 27.0076 49.9137 26.699 49.5397Z" fill="#FECA41"/>
        <path opacity="0.998" fill-rule="evenodd" clip-rule="evenodd" d="M40.8939 47.2797C42.8342 47.467 44.7751 47.6519 46.7164 47.834C46.3165 49.106 45.7074 50.2574 44.8889 51.288C44.8711 51.2573 44.8428 51.236 44.8039 51.2241C42.2031 50.9938 39.6106 50.7452 37.0264 50.4778C37.9045 49.561 38.7757 48.6374 39.6401 47.7061C40.228 48.3244 40.816 48.9427 41.4039 49.561C41.5003 49.6271 41.6065 49.6629 41.7226 49.6676C42.2707 49.5627 42.4407 49.2502 42.2326 48.7295C41.7776 48.2519 41.3314 47.7683 40.8939 47.2797Z" fill="#FECE46"/>
        <path opacity="0.984" fill-rule="evenodd" clip-rule="evenodd" d="M19.2188 52.4393C26.4086 53.0952 33.5911 53.7634 40.7662 54.4435C39.0934 55.1509 37.3509 55.5987 35.5387 55.7867C34.8104 55.8592 34.0879 55.9232 33.3712 55.9786C32.1387 55.9786 30.9062 55.9786 29.6737 55.9786C27.4425 55.8968 25.2608 55.5062 23.1287 54.806C21.8916 54.3561 20.7583 53.731 19.7287 52.9297C19.5374 52.7873 19.3674 52.624 19.2188 52.4393Z" fill="#FFC73C"/>
    </g>
    <defs>
        <clipPath id="clip0_123_128">
            <rect width="34" height="51" fill="white" transform="translate(15.5 5)"/>
        </clipPath>
    </defs>
</svg>
