<svg xmlns="http://www.w3.org/2000/svg" width="65" height="65" viewBox="0 0 65 65" fill="none">
    <g clip-path="url(#clip0_123_176)">
        <path d="M49.7656 0H15.2344C6.82066 0 0 6.82066 0 15.2344V49.7656C0 58.1793 6.82066 65 15.2344 65H49.7656C58.1793 65 65 58.1793 65 49.7656V15.2344C65 6.82066 58.1793 0 49.7656 0Z" fill="#242938"/>
        <path d="M51.6648 37.7528C46.5054 38.8167 46.1307 37.069 46.1307 37.069C51.581 28.9816 53.8608 18.7163 51.8933 16.2044C46.5306 9.34891 37.2452 12.5928 37.0898 12.6767L37.0398 12.6856C35.9059 12.458 34.7529 12.3379 33.5961 12.3268C31.2609 12.2911 29.4899 12.9391 28.144 13.9585C28.144 13.9585 11.5801 7.13516 12.3513 22.5403C12.5156 25.8182 17.0466 47.3558 22.456 40.8395C24.4484 38.4437 26.3585 36.4315 26.3585 36.4315C27.3048 37.0617 28.442 37.3831 29.6329 37.2671L29.7255 37.1886C29.6984 37.4971 29.7111 37.8079 29.7631 38.1133C28.3707 39.67 28.7813 39.9432 25.9962 40.5163C23.179 41.0965 24.8358 42.1301 25.9141 42.4016C27.2246 42.7301 30.2559 43.1943 32.3055 40.3272L32.2232 40.6537C32.7696 41.0912 33.1515 43.4977 33.0873 45.6792C33.023 47.8611 32.9801 49.3571 33.4087 50.5281C33.837 51.6994 34.2656 54.3308 37.9254 53.563C40.9837 52.908 42.5671 51.2065 42.7903 48.3752C42.9475 46.3612 43.3009 46.6575 43.326 44.8581L43.6117 44.0047C43.9382 41.2732 43.665 40.3932 45.5485 40.8037L46.0073 40.8449C47.3946 40.9073 49.2103 40.6217 50.2742 40.1271C52.5682 39.0632 53.9286 37.2848 51.6666 37.7528H51.6648Z" fill="#336791"/>
        <path d="M37.0883 12.3389C36.517 12.5174 46.3076 8.75942 51.874 15.8702C53.838 18.3821 51.5617 28.6475 46.1111 36.7347M32.5251 39.0468C32.3824 44.1277 32.5609 49.2441 33.0573 50.4725C33.5534 51.7007 34.6193 54.1323 38.2809 53.3503C41.3392 52.6952 42.4531 51.4257 42.9353 48.6246L44.0651 39.6681L32.5251 39.0468ZM28.1371 13.5761C28.1371 13.5761 11.5625 6.79919 12.3337 22.2043C12.498 25.4821 17.029 47.0197 22.4384 40.5034C24.4129 38.1236 26.1983 36.2617 26.1983 36.2617L28.1371 13.5761Z" stroke="white" stroke-linecap="round" stroke-linejoin="round"/>
        <path d="M46.1126 36.7311C46.1126 36.7311 46.4698 38.4807 51.647 37.4131C53.909 36.9454 52.5468 38.7235 50.2546 39.7876C48.3729 40.6623 44.1524 40.8855 44.0829 39.6805C43.9044 36.565 46.3038 37.5113 46.1306 36.7311C45.9735 36.0278 44.8987 35.3387 44.1918 33.6177C43.5723 32.1179 35.6938 20.6029 46.3769 22.3114C46.7697 22.2311 43.5918 12.1353 33.5943 11.989C23.5967 11.8426 23.9127 24.2806 23.9127 24.2806" stroke="white" stroke-linecap="round" stroke-linejoin="bevel"/>
        <path d="M29.7273 37.7988C28.3348 39.3555 28.7454 39.6287 25.9606 40.2017C23.1433 40.7819 24.8 41.8156 25.8783 42.087C27.1887 42.4155 30.2201 42.8797 32.2696 40.0105C32.8945 39.1358 32.2661 37.7434 31.4091 37.39C30.995 37.2186 30.4415 37.0043 29.7311 37.8005L29.7273 37.7988Z" stroke="white" stroke-linejoin="round"/>
        <path d="M29.6363 37.7718C29.4933 36.856 29.9361 35.7688 30.4092 34.4942C31.1198 32.584 32.7588 30.6736 31.4484 24.6091C30.4719 20.0923 23.9144 23.6682 23.9144 24.2806C23.9144 24.8929 24.2108 27.3871 23.8073 30.2879C23.2771 34.0765 26.2174 37.2793 29.6022 36.9525" stroke="white" stroke-linecap="round" stroke-linejoin="round"/>
        <path d="M28.0763 24.1895C28.0458 24.3984 28.4599 24.9572 28.9975 25.0322C29.5347 25.1072 29.9935 24.6715 30.024 24.4609C30.0542 24.2502 29.6401 24.0217 29.1028 23.9467C28.5653 23.8717 28.1029 23.9824 28.0763 24.1895Z" fill="white" stroke="white" stroke-width="1.68"/>
        <path d="M44.4363 23.7629C44.4647 23.9718 44.0524 24.5305 43.5151 24.6055C42.9776 24.6805 42.5152 24.2449 42.4886 24.0343C42.4616 23.8236 42.8725 23.5951 43.4097 23.5201C43.947 23.4451 44.4094 23.5558 44.4363 23.7629Z" fill="white" stroke="white" stroke-width="0.837"/>
        <path d="M46.3576 22.3149C46.4468 23.9574 46.0039 25.0732 45.9468 26.8211C45.8648 29.3596 47.1574 32.2661 45.2095 35.1761" stroke="white" stroke-linecap="round" stroke-linejoin="round"/>
    </g>
    <defs>
        <clipPath id="clip0_123_176">
            <rect width="65" height="65" fill="white"/>
        </clipPath>
    </defs>
</svg>
