<svg width="65" height="65" viewBox="0 0 65 65" fill="none" xmlns="http://www.w3.org/2000/svg">
<path d="M49.7656 0H15.2344C6.82066 0 0 6.82066 0 15.2344V49.7656C0 58.1793 6.82066 65 15.2344 65H49.7656C58.1793 65 65 58.1793 65 49.7656V15.2344C65 6.82066 58.1793 0 49.7656 0Z" fill="#242938"/>
<path d="M32.7146 7.74122C30.7356 7.75059 28.8465 7.91887 27.1834 8.21325C22.2849 9.07856 21.3962 10.8898 21.3962 14.2306V18.642H32.971V20.1125H17.0518C13.6881 20.1125 10.7424 22.1342 9.82088 25.9817C8.75775 30.3903 8.71088 33.1418 9.82088 37.7454C10.6435 41.1725 12.6085 43.6137 15.9728 43.6137H19.9529V38.3253C19.9529 34.5045 23.2581 31.1347 27.1838 31.1347H38.7456C41.964 31.1347 44.5328 28.4843 44.5328 25.2528V14.2311C44.5328 11.0937 41.8862 8.73731 38.7456 8.21372C36.7562 7.88278 34.6932 7.73231 32.7146 7.74122ZM26.4549 11.2892C27.6503 11.2892 28.6271 12.2815 28.6271 13.5022C28.6271 14.7176 27.6507 15.7006 26.4549 15.7006C25.2549 15.7006 24.2832 14.7176 24.2832 13.5022C24.2828 12.2815 25.2549 11.2892 26.4549 11.2892Z" fill="url(#paint0_linear_0_1)"/>
<path d="M45.9763 20.1125V25.2528C45.9763 29.2372 42.5976 32.5911 38.7454 32.5911H27.1837C24.0168 32.5911 21.3965 35.3019 21.3965 38.4735V49.4961C21.3965 52.6325 24.1237 54.478 27.1837 55.3775C30.8474 56.4543 34.3612 56.6493 38.7454 55.3775C41.6591 54.5333 44.5326 52.8355 44.5326 49.4961V45.0843H32.9713V43.6133H50.3207C53.6845 43.6133 54.9388 41.2672 56.1088 37.745C57.3173 34.1193 57.2652 30.6322 56.1088 25.9813C55.2773 22.6321 53.6896 20.1121 50.3207 20.1121L45.9763 20.1125ZM39.4734 48.0252C40.6738 48.0252 41.6455 49.0082 41.6455 50.2246C41.6455 51.4443 40.6734 52.4366 39.4734 52.4366C38.278 52.4366 37.3016 51.4443 37.3016 50.2246C37.3016 49.0082 38.278 48.0252 39.4734 48.0252Z" fill="url(#paint1_linear_0_1)"/>
<path opacity="0.444" d="M48.6131 58.0611C48.6131 59.7219 41.6681 61.0686 33.1017 61.0686C24.5348 61.0686 17.5898 59.7219 17.5898 58.0611C17.5898 56.3998 24.5344 55.0531 33.1017 55.0531C41.6681 55.0531 48.6131 56.3994 48.6131 58.0611Z" fill="url(#paint2_radial_0_1)"/>
<defs>
<linearGradient id="paint0_linear_0_1" x1="7.84551" y1="9.12058" x2="34.5426" y2="31.8877" gradientUnits="userSpaceOnUse">
<stop stop-color="#5A9FD4"/>
<stop offset="1" stop-color="#306998"/>
</linearGradient>
<linearGradient id="paint1_linear_0_1" x1="44.5874" y1="46.0402" x2="35.0134" y2="32.6142" gradientUnits="userSpaceOnUse">
<stop stop-color="#FFD43B"/>
<stop offset="1" stop-color="#FFE873"/>
</linearGradient>
<radialGradient id="paint2_radial_0_1" cx="0" cy="0" r="1" gradientUnits="userSpaceOnUse" gradientTransform="translate(33.039 57.975) rotate(-90) scale(3.00859 13.2252)">
<stop stop-color="#B8B8B8" stop-opacity="0.498"/>
<stop offset="1" stop-color="#7F7F7F" stop-opacity="0"/>
</radialGradient>
</defs>
</svg>
