<svg xmlns="http://www.w3.org/2000/svg" width="65" height="65" viewBox="0 0 65 65" fill="none">
    <g clip-path="url(#clip0_123_50)">
        <path d="M49.7656 0H15.2344C6.82066 0 0 6.82066 0 15.2344V49.7656C0 58.1793 6.82066 65 15.2344 65H49.7656C58.1793 65 65 58.1793 65 49.7656V15.2344C65 6.82066 58.1793 0 49.7656 0Z" fill="#242938"/>
        <path d="M32.5001 37.3118C35.1163 37.3118 37.2369 35.1909 37.2369 32.5749C37.2369 29.9589 35.1163 27.838 32.5001 27.838C29.8841 27.838 27.7632 29.9589 27.7632 32.5749C27.7632 35.1909 29.8841 37.3118 32.5001 37.3118Z" fill="#00D8FF"/>
        <path fill-rule="evenodd" clip-rule="evenodd" d="M32.5005 22.9438C38.8604 22.9438 44.7685 23.8564 49.2233 25.39C54.5906 27.2378 57.8906 30.0386 57.8906 32.5749C57.8906 35.2178 54.3933 38.1933 48.6294 40.1029C44.2719 41.5467 38.5376 42.3003 32.5005 42.3003C26.3108 42.3003 20.4493 41.5929 16.0427 40.087C10.4674 38.1814 7.10938 35.1675 7.10938 32.5749C7.10938 30.0592 10.2602 27.2799 15.5521 25.435C20.0235 23.8761 26.0774 22.9438 32.4995 22.9438H32.5005Z" stroke="#00D8FF" stroke-width="2.91"/>
        <path fill-rule="evenodd" clip-rule="evenodd" d="M24.1163 27.787C27.2937 22.2778 31.0355 17.6156 34.5897 14.5227C38.8715 10.7962 42.9467 9.33684 45.1435 10.6037C47.433 11.924 48.2635 16.4403 47.0384 22.3872C46.113 26.8833 43.9004 32.227 40.8843 37.457C37.7919 42.819 34.2512 47.5432 30.7455 50.6073C26.3095 54.485 22.0209 55.8883 19.7751 54.5931C17.5958 53.3373 16.7624 49.2187 17.8079 43.7128C18.6912 39.0604 20.908 33.3503 24.1153 27.787H24.1163Z" stroke="#00D8FF" stroke-width="2.91"/>
        <path fill-rule="evenodd" clip-rule="evenodd" d="M24.1242 37.471C20.9379 31.9678 18.7685 26.3966 17.863 21.7729C16.773 16.202 17.5437 11.9426 19.7386 10.672C22.0259 9.34788 26.3534 10.8839 30.8937 14.9154C34.3265 17.9633 37.8515 22.5482 40.8763 27.773C43.9775 33.1299 46.3018 38.5572 47.2059 43.1244C48.35 48.9044 47.424 53.3206 45.1803 54.6193C43.0033 55.8797 39.0192 54.5454 34.7711 50.8897C31.1819 47.8011 27.3418 43.029 24.1242 37.471Z" stroke="#00D8FF" stroke-width="2.91"/>
    </g>
    <defs>
        <clipPath id="clip0_123_50">
            <rect width="65" height="65" fill="white"/>
        </clipPath>
    </defs>
</svg>
