<svg xmlns="http://www.w3.org/2000/svg" width="65" height="65" viewBox="0 0 65 65" fill="none">
    <g clip-path="url(#clip0_123_38)">
        <path d="M49.7656 0H15.2344C6.82066 0 0 6.82066 0 15.2344V49.7656C0 58.1793 6.82066 65 15.2344 65H49.7656C58.1793 65 65 58.1793 65 49.7656V15.2344C65 6.82066 58.1793 0 49.7656 0Z" fill="#764ABC"/>
        <path d="M42.2954 42.0466C44.1695 41.8526 45.5911 40.237 45.5264 38.2984C45.4619 36.3599 43.8463 34.809 41.9077 34.809H41.7785C39.7752 34.8735 38.2243 36.5536 38.2888 38.5569C38.3535 39.5263 38.7413 40.3663 39.3227 40.948C37.1257 45.2776 33.7655 48.444 28.7249 51.0935C25.3 52.9029 21.7458 53.5491 18.1917 53.0969C15.2837 52.7091 13.022 51.4165 11.6003 49.2842C9.53242 46.1177 9.33857 42.6928 11.0833 39.2679C12.3111 36.8121 14.2498 35.0027 15.4776 34.0981C15.2191 33.2582 14.8314 31.8363 14.6375 30.8024C5.26743 37.5878 6.23675 46.7639 9.08007 51.0935C11.2126 54.3245 15.5422 56.3278 20.3242 56.3278C21.6166 56.3278 22.909 56.1986 24.2015 55.8754C32.4731 54.26 38.7413 49.3487 42.2954 42.0466Z" fill="white"/>
        <path d="M53.6686 34.0336C48.7576 28.2821 41.52 25.1158 33.2485 25.1158H32.2146C31.6329 23.9526 30.405 23.1771 29.0481 23.1771H28.9189C26.9156 23.2417 25.3646 24.9219 25.4292 26.9252C25.4939 28.8638 27.1093 30.4147 29.0481 30.4147H29.1774C30.599 30.3502 31.8269 29.4455 32.3438 28.2176H33.507C38.418 28.2176 43.0709 29.6392 47.2712 32.418C50.5022 34.5505 52.8287 37.3293 54.1211 40.6895C55.2198 43.4035 55.155 46.053 53.9919 48.3148C52.1825 51.7397 49.1453 53.6138 45.1387 53.6138C42.5539 53.6138 40.0984 52.8384 38.8057 52.2567C38.0951 52.9029 36.8027 53.9368 35.898 54.583C38.6765 55.8754 41.52 56.5863 44.234 56.5863C50.4377 56.5863 55.0258 53.1614 56.7706 49.7364C58.6447 45.9885 58.5155 39.5263 53.6686 34.0336Z" fill="white"/>
        <path d="M20.8413 43.1453C20.9059 45.0838 22.5214 46.6347 24.4601 46.6347H24.5893C26.5924 46.57 28.1436 44.8899 28.0788 42.8865C28.0143 40.948 26.3987 39.3971 24.4601 39.3971H24.3308C24.2016 39.3971 24.0077 39.3971 23.8785 39.4619C21.229 35.0675 20.1304 30.2854 20.5181 25.1158C20.7766 21.2385 22.069 17.8782 24.3308 15.0995C26.2047 12.7085 29.8236 11.5453 32.2792 11.4807C39.1291 11.3515 42.037 19.8815 42.2308 23.3064C43.071 23.5003 44.4926 23.9526 45.462 24.2757C44.6866 13.8071 38.2244 8.37891 32.0207 8.37891C26.2047 8.37891 20.8413 12.5793 18.7088 18.7829C15.7362 27.0545 17.6748 35.0028 21.2936 41.2712C20.9705 41.7234 20.7766 42.4343 20.8413 43.1453Z" fill="white"/>
    </g>
    <defs>
        <clipPath id="clip0_123_38">
            <rect width="65" height="65" fill="white"/>
        </clipPath>
    </defs>
</svg>
