<svg xmlns="http://www.w3.org/2000/svg" width="65" height="65" viewBox="0 0 65 65" fill="none">
    <g clip-path="url(#clip0_123_103)">
        <path d="M49.7656 0H15.2344C6.82066 0 0 6.82066 0 15.2344V49.7656C0 58.1793 6.82066 65 15.2344 65H49.7656C58.1793 65 65 58.1793 65 49.7656V15.2344C65 6.82066 58.1793 0 49.7656 0Z" fill="#CD6799"/>
        <mask id="mask0_123_103" style="mask-type:luminance" maskUnits="userSpaceOnUse" x="7" y="13" width="51" height="39">
            <path d="M57.8906 13.457H7.10938V51.5199H57.8906V13.457Z" fill="white"/>
        </mask>
        <g mask="url(#mask0_123_103)">
            <path d="M50.8084 35.3344C49.0377 35.3435 47.499 35.7701 46.2104 36.4003C45.7376 35.4641 45.2649 34.6298 45.1813 34.0179C45.0887 33.3041 44.9774 32.8684 45.0887 32.0156C45.1999 31.1627 45.7006 29.9485 45.6912 29.8558C45.682 29.7629 45.58 29.3275 44.5603 29.3181C43.5406 29.3089 42.66 29.5128 42.558 29.7817C42.4559 30.0503 42.2614 30.6622 42.1317 31.2927C41.9555 32.2197 40.092 35.5291 39.0261 37.2625C38.6831 36.5859 38.3865 35.9925 38.3215 35.5197C38.2289 34.806 38.1177 34.3703 38.2289 33.5174C38.3401 32.6645 38.8408 31.4501 38.8314 31.3574C38.8222 31.2648 38.7202 30.8291 37.7005 30.8199C36.6808 30.8105 35.8 31.0144 35.6982 31.2833C35.5961 31.5522 35.4849 32.1826 35.2716 32.7943C35.0586 33.4062 32.5835 38.9312 31.9345 40.3587C31.6009 41.0909 31.3135 41.6749 31.1096 42.0736C31.1096 42.0736 31.1002 42.1015 31.0725 42.1477C30.8963 42.4907 30.7942 42.6761 30.7942 42.6761C30.7942 42.6761 30.7942 42.6761 30.7942 42.6855C30.6553 42.9358 30.5068 43.1674 30.4327 43.1674C30.3771 43.1674 30.2753 42.5001 30.4512 41.5916C30.8222 39.6726 31.7027 36.6877 31.6936 36.5859C31.6936 36.5303 31.8604 36.011 31.1187 35.7421C30.3956 35.4733 30.1361 35.9184 30.0711 35.9184C30.0064 35.9184 29.9599 36.076 29.9599 36.076C29.9599 36.076 30.7666 32.7202 28.4212 32.7202C26.9564 32.7202 24.9356 34.3238 23.9345 35.7701C23.3041 36.1131 21.9599 36.8454 20.5231 37.6332C19.9762 37.9392 19.4107 38.2452 18.8823 38.5326C18.8452 38.4955 18.8082 38.449 18.7711 38.412C15.9344 35.3806 10.6876 33.2394 10.9101 29.1698C10.9935 27.6865 11.5034 23.7931 20.9866 19.0654C28.7919 15.2183 35.003 16.2844 36.0783 18.6483C37.617 22.0225 32.7503 28.289 24.6854 29.1975C21.6077 29.5405 19.9947 28.354 19.5868 27.9091C19.1604 27.4455 19.0955 27.4178 18.9379 27.5105C18.6784 27.6494 18.8452 28.0666 18.9379 28.3075C19.1789 28.938 20.1708 30.0503 21.8487 30.5972C23.3319 31.0794 26.9379 31.3483 31.3041 29.6611C36.1895 27.77 40.0087 22.5139 38.887 18.1106C37.7655 13.6424 30.3494 12.1685 23.3319 14.6621C19.1604 16.1454 14.6366 18.4814 11.3829 21.522C7.51725 25.1373 6.90542 28.2798 7.15572 29.5961C8.0549 34.2682 14.4976 37.3087 17.0746 39.5614C16.9449 39.6355 16.8244 39.7005 16.7224 39.7561C15.4338 40.3957 10.5207 42.9635 9.29709 45.6798C7.90659 48.7574 9.51958 50.9636 10.5856 51.2601C13.895 52.178 17.2971 50.5279 19.1233 47.8024C20.9495 45.077 20.7271 41.536 19.8835 39.9138C19.8742 39.8953 19.8649 39.8768 19.8464 39.8582C20.1801 39.6635 20.5231 39.4596 20.8568 39.2648C21.515 38.8756 22.1639 38.514 22.7201 38.2172C22.4049 39.0795 22.1732 40.1083 22.0619 41.5916C21.9229 43.3344 22.6367 45.5962 23.5729 46.4862C23.9901 46.8754 24.4814 46.8848 24.7966 46.8848C25.8905 46.8848 26.3819 45.9763 26.9288 44.9011C27.596 43.5845 28.1988 42.055 28.1988 42.055C28.1988 42.055 27.4478 46.1896 29.4871 46.1896C30.2288 46.1896 30.9796 45.2255 31.3135 44.7342C31.3135 44.7434 31.3135 44.7434 31.3135 44.7434C31.3135 44.7434 31.332 44.7157 31.3691 44.6507C31.4432 44.5301 31.4894 44.456 31.4894 44.456C31.4894 44.456 31.4894 44.4468 31.4894 44.4374C31.7862 43.9184 32.4535 42.7411 33.4455 40.785C34.7247 38.2637 35.9577 35.1119 35.9577 35.1119C35.9577 35.1119 36.0689 35.8813 36.449 37.1605C36.6714 37.9115 37.135 38.7365 37.5057 39.5337C37.2092 39.9509 37.0238 40.1825 37.0238 40.1825C37.0238 40.1825 37.0238 40.1825 37.033 40.1919C36.792 40.507 36.5325 40.85 36.2451 41.1836C35.2345 42.3889 34.0295 43.7702 33.8627 44.1688C33.6679 44.6416 33.7144 44.9843 34.0851 45.2626C34.354 45.4665 34.8359 45.4942 35.3272 45.4665C36.2357 45.4015 36.8755 45.1791 37.1906 45.0399C37.6819 44.864 38.2568 44.5951 38.7943 44.1965C39.7863 43.4642 40.3888 42.4166 40.3332 41.0353C40.3053 40.2751 40.055 39.5152 39.7493 38.8012C39.8419 38.6715 39.9252 38.5417 40.0179 38.412C41.5847 36.1222 42.7989 33.6101 42.7989 33.6101C42.7989 33.6101 42.9101 34.3794 43.2902 35.6589C43.4756 36.3076 43.8557 37.0122 44.1896 37.6982C42.7156 38.8941 41.8072 40.2845 41.4827 41.193C40.8987 42.8802 41.3529 43.6402 42.2149 43.8164C42.6044 43.8999 43.1605 43.7145 43.5685 43.5383C44.0875 43.3715 44.6994 43.0841 45.2834 42.6575C46.2752 41.9253 47.2301 40.9056 47.1745 39.5243C47.1466 38.8941 46.9797 38.2728 46.7479 37.6703C47.9994 37.1513 49.6125 36.8639 51.6704 37.1049C56.083 37.6241 56.9545 40.3772 56.7874 41.536C56.6206 42.6946 55.6936 43.3251 55.3876 43.5198C55.0819 43.7145 54.9798 43.7793 55.0078 43.9184C55.0448 44.1223 55.1931 44.1129 55.4526 44.0759C55.8142 44.0111 57.77 43.1397 57.8535 41.0077C57.9927 38.2822 55.397 35.3064 50.8084 35.3344ZM16.7687 46.8107C15.3041 48.405 13.2647 49.0077 12.384 48.4979C11.4385 47.9507 11.8093 45.5962 13.6077 43.909C14.7015 42.8802 16.1106 41.9253 17.0468 41.3413C17.26 41.2115 17.5752 41.0262 17.9553 40.7944C18.0202 40.7573 18.0573 40.7388 18.0573 40.7388C18.1314 40.6923 18.2056 40.6461 18.2798 40.5996C18.9379 43.01 18.3076 45.1329 16.7687 46.8107ZM27.4292 39.5614C26.9194 40.8038 25.8535 43.9832 25.2045 43.8072C24.6483 43.6587 24.3053 41.2486 25.0932 38.8662C25.4919 37.6703 26.3354 36.2428 26.8267 35.6865C27.624 34.7966 28.5045 34.5 28.7178 34.8616C28.9867 35.3344 27.7446 38.7827 27.4292 39.5614ZM36.2266 43.7701C36.0133 43.8814 35.8094 43.9555 35.7167 43.8999C35.6517 43.8628 35.8094 43.7145 35.8094 43.7145C35.8094 43.7145 36.9126 42.5278 37.3483 41.9903C37.5984 41.6749 37.8952 41.3042 38.2103 40.887C38.2103 40.9241 38.2103 40.9706 38.2103 41.0077C38.2103 42.426 36.8385 43.3807 36.2266 43.7701ZM43.0122 42.2218C42.8545 42.1106 42.8825 41.7399 43.4108 40.5811C43.6147 40.1269 44.0969 39.3669 44.9218 38.6344C45.0145 38.9312 45.0795 39.2184 45.0701 39.4873C45.061 41.2765 43.7815 41.9438 43.0122 42.2218Z" fill="white"/>
        </g>
    </g>
    <defs>
        <clipPath id="clip0_123_103">
            <rect width="65" height="65" fill="white"/>
        </clipPath>
    </defs>
</svg>
