<svg xmlns="http://www.w3.org/2000/svg" width="65" height="65" viewBox="0 0 65 65" fill="none">
    <g clip-path="url(#clip0_123_92)">
        <path d="M49.7656 0H15.2344C6.82066 0 0 6.82066 0 15.2344V49.7656C0 58.1793 6.82066 65 15.2344 65H49.7656C58.1793 65 65 58.1793 65 49.7656V15.2344C65 6.82066 58.1793 0 49.7656 0Z" fill="url(#paint0_linear_123_92)"/>
        <path d="M2.91682 32.774L15.6893 37.9496V41.5726L0.569336 34.5671V32.4414L2.91682 32.774ZM15.6893 28.5228L2.93531 33.7721L0.569336 34.0311V31.8868L15.6893 24.8998V28.5228Z" fill="white"/>
        <path d="M61.2857 33.5133L48.1436 28.3933V24.8629L63.9289 31.8497V34.0125L61.2857 33.5133ZM48.1436 38.0235L61.3228 32.7925L63.9289 32.4043V34.5485L48.1436 41.554V38.0235Z" fill="white"/>
        <path fill-rule="evenodd" clip-rule="evenodd" d="M44.7068 15.5134C44.6337 16.6728 44.1114 17.8835 44.2569 19.0106C45.1692 20.6237 47.1771 20.8811 48.8336 20.9917C49.9812 21.1967 49.9668 20.4369 49.8898 19.5832C49.8944 18.2186 49.899 16.854 49.9038 15.4894C48.1714 15.4956 46.4385 15.4722 44.7068 15.5134ZM31.0464 18.756C28.226 19.2346 25.3671 20.5823 23.0208 22.2049C21.1322 23.6746 24.642 25.0991 25.9152 25.3373C28.4772 25.3685 30.7494 23.6405 32.4323 21.8468C32.9817 21.0925 33.668 19.9382 32.9776 19.0642C32.4505 18.6071 31.684 18.718 31.0464 18.756ZM37.048 22.8577C34.7291 23.2992 32.5226 24.2551 30.5704 25.5859C29.1391 26.0353 27.9594 27.6067 29.733 28.3941C31.5954 29.8782 33.7538 29.5146 35.469 28.5127C37.0396 27.579 38.7362 26.4271 39.4629 24.6696C40.1492 22.7442 38.3785 22.6727 37.048 22.8577ZM43.6265 30.3182C43.1946 32.1219 41.3781 32.942 40.4118 34.3713C39.6216 35.4138 39.9875 36.642 40.8871 37.4626C41.3251 38.3708 42.0929 38.8784 42.9163 38.0895C45.0369 36.6478 45.6234 33.8396 45.5353 31.4064C45.692 30.4015 44.539 31.3099 43.6265 30.3182ZM35.5566 33.7061C32.7405 34.188 29.9239 35.5601 27.5766 37.18C25.7543 38.6478 29.1863 40.0184 30.4701 40.2358C33.0795 40.2396 35.407 38.5579 37.0569 36.6481C37.6307 35.8896 38.3262 34.4167 37.19 33.8137C36.6819 33.5984 36.0921 33.6616 35.5566 33.7061Z" fill="#B956A6"/>
        <path fill-rule="evenodd" clip-rule="evenodd" d="M23.021 22.2049C20.8552 23.0715 18.7658 24.1237 16.7028 25.2255C16.3193 26.6513 16.6268 28.4167 16.5274 29.98C16.5199 36.4079 16.5236 42.836 16.5223 49.2639C18.1153 49.2639 19.7082 49.2639 21.3012 49.2639C22.2659 48.3554 23.4746 47.6905 24.5226 46.8655C28.5581 43.9712 32.5924 41.0658 36.6227 38.1796C36.9192 38.3129 36.7293 36.4351 36.0788 37.7394C34.5373 39.1899 32.4914 40.383 30.3258 40.2665C29.0969 39.8623 27.1159 39.1765 27.1035 37.6706C27.9685 36.6521 25.5074 38.2038 24.8341 38.4259C22.6448 39.4771 20.5073 40.6509 18.3136 41.6825C18.8409 41.1163 19.8273 40.5884 20.5263 40.0268C25.5214 36.4411 30.5152 32.8415 35.5223 29.2586C36.4853 28.5825 37.4156 27.8449 38.4084 27.2129C38.4991 27.5631 38.6692 25.5389 37.9308 26.7851C36.4257 28.277 34.3954 29.3876 32.2542 29.4029C31.0499 29.0372 28.485 28.163 29.056 26.6081C29.3346 26.0625 26.4692 27.7713 27.7352 26.8077C29.0827 25.823 30.4408 24.8559 31.7987 23.8815C32.4845 23.8298 32.3385 21.2826 31.4067 22.9257C29.8414 24.3011 27.7847 25.5595 25.6288 25.2612C24.4177 24.9126 22.9645 24.2373 22.5244 22.9708C22.3785 22.6666 23.3398 22.1928 23.021 22.2049ZM31.9937 23.7774C31.8736 24.1209 32.2113 23.6518 31.9937 23.7774V23.7774Z" fill="#FCCC44"/>
        <path fill-rule="evenodd" clip-rule="evenodd" d="M45.6773 20.5028C45.0011 23.7317 44.262 27.1109 43.6265 30.3182C45.4526 32.6196 45.6295 28.8643 45.9489 27.8025C46.4651 25.5831 47.0765 23.9072 47.1413 21.6093C47.2784 20.8253 46.3567 20.3502 45.6773 20.5028ZM47.7722 23.0348C47.7151 23.3659 47.8555 23.097 47.7722 23.0348V23.0348ZM45.642 30.2748C45.7298 30.0854 45.7298 30.4639 45.642 30.2748V30.2748Z" fill="#62777F"/>
        <path fill-rule="evenodd" clip-rule="evenodd" d="M46.8752 20.8683C47.445 24.0684 45.5577 27.9556 44.9404 30.9725C46.342 29.9411 47.4249 25.2616 47.7017 23.43C47.773 23.2205 47.8609 22.6933 47.8799 22.6744C47.968 22.2296 48.7889 21.4763 48.8338 20.9917C49.3117 20.6544 46.4852 20.6001 46.8752 20.8683ZM45.7131 30.2748C45.625 30.0853 45.625 30.4639 45.7131 30.2748V30.2748Z" fill="#4E5E67"/>
        <path fill-rule="evenodd" clip-rule="evenodd" d="M23.0681 22.2581C22.278 23.0492 22.5745 22.856 23.1628 22.1981L23.0681 22.2581ZM31.6147 22.6499C30.6993 24.0254 27.3986 25.1755 26.9829 25.2646C28.9685 24.8928 30.8192 23.6577 32.1215 22.2106C31.9145 22.3028 31.7917 22.5196 31.6147 22.6499ZM22.5252 23.0966C23.0186 24.2828 24.8125 25.0711 25.6842 25.2549C24.4941 24.8716 23.0932 24.1915 22.5252 23.0966ZM31.9224 23.7825C31.6733 24.0766 30.7862 24.5166 30.3185 24.9479C29.3153 25.6879 28.2776 26.3755 27.2858 27.1339C27.9173 27.1068 29.7678 25.7245 28.8192 27.1271C29.623 28.5106 31.3732 29.4727 32.969 29.3848C35.0764 29.054 37.0198 27.8888 38.4168 26.2684C36.721 27.9464 34.479 29.5257 31.9981 29.3081C30.7974 29.0309 27.5164 27.336 29.7111 26.148C30.4851 25.5115 31.8193 25.178 31.9704 24.0594C31.9387 23.9198 32.1989 23.7834 31.9224 23.7825ZM25.9152 25.3373C26.7138 25.233 26.7138 25.4416 25.9152 25.3373V25.3373ZM38.3574 27.2479C35.1889 29.4554 32.0664 31.7492 28.9253 33.9963C25.3656 36.544 21.8211 39.101 18.2622 41.6467C19.6003 41.1955 20.9409 40.3145 22.2702 39.7058C24.1006 38.7374 26.031 37.9724 27.7439 36.7961C31.1305 34.8024 34.7121 32.9029 37.3169 29.8528C37.8854 29.186 38.4554 28.1127 38.4808 27.3909C38.3988 27.414 38.461 27.1022 38.3574 27.2479ZM27.5766 37.18C27.0065 37.8241 26.775 38.2845 27.3666 37.4654C27.3562 37.5603 27.8467 36.9568 27.5766 37.18ZM36.249 37.4882C34.7474 39.0716 32.5265 40.2137 30.4426 40.2906C32.8517 40.3081 35.0251 38.8781 36.6573 37.1912C36.5501 37.0617 36.333 37.4928 36.249 37.4882ZM36.7078 37.9859C31.6629 41.6584 26.4439 45.4677 21.382 49.127C22.1795 49.3771 23.9157 49.4944 24.708 48.4735C26.3941 47.3101 28.2895 46.4547 29.981 45.2755C32.4305 43.6861 35.0531 41.9489 36.4442 39.2775C36.5105 38.9192 37.0028 38.2748 36.7078 37.9859ZM27.1068 38.219C27.3409 39.2072 30.2675 40.3414 29.9501 40.1243C28.871 39.746 27.8005 39.1564 27.1068 38.219Z" fill="#DC9624"/>
    </g>
    <defs>
        <linearGradient id="paint0_linear_123_92" x1="0" y1="65" x2="65" y2="0" gradientUnits="userSpaceOnUse">
            <stop stop-color="#DB7093"/>
            <stop offset="1" stop-color="#F3B661"/>
        </linearGradient>
        <clipPath id="clip0_123_92">
            <rect width="65" height="65" fill="white"/>
        </clipPath>
    </defs>
</svg>
