<svg xmlns="http://www.w3.org/2000/svg" width="65" height="65" viewBox="0 0 65 65" fill="none">
    <g clip-path="url(#clip0_123_59)">
        <path d="M49.7656 0H15.2344C6.82066 0 0 6.82066 0 15.2344V49.7656C0 58.1793 6.82066 65 15.2344 65H49.7656C58.1793 65 65 58.1793 65 49.7656V15.2344C65 6.82066 58.1793 0 49.7656 0Z" fill="#007ACC"/>
        <path d="M14.3742 32.7156L14.3535 35.3775H18.5837H22.8138V47.3974V59.4171H25.806H28.798V47.3974V35.3775H33.0281H37.2582V32.7671C37.2582 31.3226 37.2274 30.1156 37.1861 30.0846C37.1551 30.0435 32.0066 30.0226 25.7646 30.0331L14.4051 30.064L14.3742 32.7156Z" fill="white"/>
        <path d="M52.4484 29.9883C54.0991 30.4012 55.3579 31.1337 56.5135 32.3304C57.1119 32.9702 57.9991 34.1361 58.0714 34.4147C58.092 34.4972 55.265 36.3957 53.5524 37.4583C53.4904 37.4996 53.2426 37.2313 52.9641 36.8187C52.1285 35.6012 51.2515 35.0748 49.9101 34.9822C47.9395 34.8478 46.6705 35.8797 46.6809 37.6027C46.6809 38.1083 46.753 38.4074 46.9595 38.8202C47.3926 39.7178 48.1975 40.2543 50.7254 41.3478C55.3785 43.3496 57.3696 44.6702 58.6079 46.5478C59.9904 48.6423 60.3 51.9853 59.361 54.4718C58.3294 57.1748 55.7705 59.0113 52.1696 59.6202C51.0555 59.8162 48.4141 59.7852 47.2174 59.5687C44.607 59.1043 42.1309 57.8147 40.6039 56.1227C40.0055 55.4622 38.8395 53.7392 38.9119 53.6153C38.9426 53.5742 39.211 53.4092 39.5101 53.2337C39.7991 53.0687 40.8929 52.4392 41.9245 51.8408L43.792 50.7574L44.184 51.3353C44.7309 52.1709 45.9276 53.3162 46.65 53.6978C48.7236 54.7917 51.5714 54.6368 52.9745 53.3782C53.573 52.8313 53.8205 52.2638 53.8205 51.4282C53.8205 50.6748 53.7276 50.3448 53.3356 49.7773C52.83 49.0552 51.7984 48.4463 48.8681 47.1773C45.515 45.7328 44.0705 44.8352 42.75 43.4113C41.9865 42.5861 41.2641 41.2653 40.965 40.1613C40.7174 39.2432 40.6555 36.9423 40.8515 36.0138C41.5426 32.7742 43.988 30.5147 47.5165 29.8439C48.6619 29.6273 51.3236 29.7098 52.4484 29.9883Z" fill="white"/>
    </g>
    <defs>
        <clipPath id="clip0_123_59">
            <rect width="65" height="65" fill="white"/>
        </clipPath>
    </defs>
</svg>
