<svg xmlns="http://www.w3.org/2000/svg" width="65" height="65" viewBox="0 0 65 65" fill="none">
    <g clip-path="url(#clip0_123_84)">
        <path d="M49.7656 0H15.2344C6.82066 0 0 6.82066 0 15.2344V49.7656C0 58.1793 6.82066 65 15.2344 65H49.7656C58.1793 65 65 58.1793 65 49.7656V15.2344C65 6.82066 58.1793 0 49.7656 0Z" fill="#242938"/>
        <path d="M46.2109 12.6953H55.3516L32.5 52.1143L9.64844 12.6953H18.6748H27.1299L32.5 21.8359L37.7559 12.6953H46.2109Z" fill="#41B883"/>
        <path d="M9.64844 12.6953L32.5 52.1143L55.3516 12.6953H46.2109L32.5 36.3467L18.6748 12.6953H9.64844Z" fill="#41B883"/>
        <path d="M18.6748 12.6953L32.5 36.4609L46.2109 12.6953H37.7559L32.5 21.8359L27.1299 12.6953H18.6748Z" fill="white"/>
    </g>
    <defs>
        <clipPath id="clip0_123_84">
            <rect width="65" height="65" fill="white"/>
        </clipPath>
    </defs>
</svg>
