<svg width="65" height="65" viewBox="0 0 65 65" fill="none" xmlns="http://www.w3.org/2000/svg">
    <path d="M49.7656 0H15.2344C6.82066 0 0 6.82066 0 15.2344V49.7656C0 58.1793 6.82066 65 15.2344 65H49.7656C58.1793 65 65 58.1793 65 49.7656V15.2344C65 6.82066 58.1793 0 49.7656 0Z" fill="#242938"/>
    <path opacity="0.999" fill-rule="evenodd" clip-rule="evenodd" d="M28.2108 19.6608C26.0779 23.9456 23.9309 28.2206 21.7698 32.4858C18.2249 25.3674 14.6719 18.2519 11.1108 11.1393C15.3953 11.1013 19.6798 11.1013 23.9643 11.1393C25.3879 13.9769 26.8034 16.8174 28.2108 19.6608Z" fill="#35495E"/>
    <path opacity="0.999" fill-rule="evenodd" clip-rule="evenodd" d="M43.2017 32.4858C41.0406 28.2206 38.8937 23.9456 36.7607 19.6608C38.1681 16.8174 39.5837 13.9769 41.0072 11.1393C45.2916 11.1013 49.5763 11.1013 53.8607 11.1393C50.2997 18.2519 46.7466 25.3674 43.2017 32.4858Z" fill="#35495E"/>
    <path fill-rule="evenodd" clip-rule="evenodd" d="M28.2108 19.6608C29.635 22.49 31.06 25.321 32.4858 28.1538C33.9117 25.321 35.3367 22.49 36.7608 19.6608C38.8938 23.9456 41.0407 28.2206 43.2018 32.4858C46.7467 39.6042 50.2998 46.7198 53.8608 53.8323C49.5764 53.8702 45.2917 53.8702 41.0073 53.8323C38.1742 48.1562 35.3336 42.4847 32.4858 36.8178C29.6381 42.4847 26.7976 48.1562 23.9643 53.8323C19.6798 53.8702 15.3953 53.8702 11.1108 53.8323C14.6719 46.7198 18.2249 39.6042 21.7698 32.4858C23.9309 28.2206 26.0779 23.9456 28.2108 19.6608Z" fill="#4EBF8C"/>
</svg>
