<svg width="65" height="65" viewBox="0 0 65 65" fill="none" xmlns="http://www.w3.org/2000/svg">
    <path d="M49.7656 0H15.2344C6.82066 0 0 6.82066 0 15.2344V49.7656C0 58.1793 6.82066 65 15.2344 65H49.7656C58.1793 65 65 58.1793 65 49.7656V15.2344C65 6.82066 58.1793 0 49.7656 0Z" fill="#242938"/>
    <path fill-rule="evenodd" clip-rule="evenodd" d="M28.0773 15.1928C27.7857 14.8663 27.4316 14.6278 27.0151 14.4776C27.0151 14.4181 27.0151 14.3584 27.0151 14.2988C27.2746 14.1474 27.4223 13.9091 27.4577 13.5836C27.5899 12.9714 27.5603 12.3755 27.3691 11.7957C27.5947 11.6724 27.5947 11.5234 27.3691 11.3487C26.5325 10.9455 25.7948 11.0945 25.1562 11.7957C24.8754 12.1837 24.6392 12.6009 24.448 13.0472C24.1609 12.9402 23.8953 12.821 23.6514 12.6896C24.2352 11.7293 25.0025 10.9247 25.9528 10.2759C27.1424 9.69902 27.998 10.0268 28.5199 11.2593C28.638 11.9149 28.638 12.5704 28.5199 13.226C28.3163 13.8719 28.1688 14.5273 28.0773 15.1928Z" fill="#403A36"/>
    <path fill-rule="evenodd" clip-rule="evenodd" d="M27.3691 11.7957C27.5603 12.3755 27.5899 12.9714 27.4577 13.5836C27.4223 13.9091 27.2746 14.1474 27.0151 14.2988C26.3121 13.8239 25.6039 13.3471 24.8906 12.8684C25.3047 11.7587 26.0718 11.3117 27.1921 11.5275C27.2905 11.5959 27.3495 11.6853 27.3691 11.7957Z" fill="#BB7364"/>
    <path fill-rule="evenodd" clip-rule="evenodd" d="M27.369 11.7957C27.3494 11.6853 27.2904 11.5959 27.192 11.5275C26.0717 11.3117 25.3046 11.7587 24.8905 12.8684C25.6038 13.3471 26.3119 13.8239 27.0149 14.2988C27.0149 14.3584 27.0149 14.4181 27.0149 14.4776C25.351 13.4157 23.5216 12.8197 21.5268 12.6896C20.1091 12.7021 18.7519 12.9702 17.4549 13.4942C17.6228 13.5806 17.7998 13.6103 17.9861 13.5836C17.8671 13.7208 17.7196 13.84 17.5435 13.9412C16.8137 13.0537 15.9581 12.3385 14.9764 11.7957C14.2617 11.7377 13.7897 12.0357 13.5601 12.6896C13.4015 12.8696 13.2836 12.8696 13.2061 12.6896C13.7163 11.5483 14.5425 11.2205 15.6846 11.7063C16.246 12.1249 16.7771 12.5719 17.2779 13.0472C19.3705 12.2832 21.4949 12.164 23.6512 12.6896C23.8952 12.821 24.1608 12.9402 24.4479 13.0472C24.6391 12.6009 24.8753 12.1837 25.1561 11.7957C25.7946 11.0945 26.5323 10.9455 27.369 11.3487C27.5946 11.5234 27.5946 11.6724 27.369 11.7957Z" fill="#262220"/>
    <path fill-rule="evenodd" clip-rule="evenodd" d="M14.9764 11.7957C14.4569 11.9993 13.9849 12.2973 13.5601 12.6896C13.7897 12.0357 14.2617 11.7377 14.9764 11.7957Z" fill="#ACA9A7"/>
    <path fill-rule="evenodd" clip-rule="evenodd" d="M14.9762 11.7956C15.9579 12.3384 16.8135 13.0536 17.5432 13.9412C17.7194 13.84 17.8669 13.7207 17.9858 13.5836C19.1575 13.2474 20.3376 12.9494 21.5266 12.6896C23.5214 12.8197 25.3507 13.4157 27.0147 14.4776C27.2732 14.8286 27.5683 15.1563 27.8999 15.461C27.2238 15.8447 27.1944 16.2917 27.8114 16.802C28.0173 16.4828 28.1354 16.1252 28.1655 15.7292C28.6767 16.3053 29.1193 16.931 29.4932 17.6065C29.3601 17.7265 29.301 17.8755 29.3162 18.0535C29.3162 18.2919 29.3162 18.5304 29.3162 18.7687C29.3162 18.9475 29.3162 19.1263 29.3162 19.3051C29.1742 19.0455 29.0857 18.7476 29.0506 18.4111C29.0096 18.6323 28.9211 18.8111 28.7851 18.9475C28.1361 17.2094 26.9558 16.2559 25.2443 16.0868C23.6105 15.7824 22.2533 16.2593 21.1725 17.5171C20.2535 18.2987 19.8405 19.3119 19.9332 20.5567C19.7217 20.6222 19.6038 20.7711 19.5792 21.0037C19.7089 21.3195 19.7681 21.6472 19.7562 21.9871C19.489 21.7441 19.371 21.8335 19.4021 22.2553C19.9313 24.8339 21.4951 26.2942 24.0936 26.6359C24.2706 26.3975 24.4477 26.159 24.6247 25.9207C24.6957 26.282 24.9023 26.5206 25.2443 26.6359C25.5145 26.3845 25.8096 26.176 26.1295 26.0101C26.427 26.004 26.6925 25.9741 26.9262 25.9207C27.0675 26.2352 27.0379 26.5332 26.8377 26.8147C26.7152 26.7208 26.6267 26.6015 26.5721 26.4571C26.3597 26.7989 26.0646 27.0373 25.6869 27.1723C25.435 28.0879 25.258 28.0879 25.1558 27.1723C24.4611 27.4864 23.9005 27.9631 23.474 28.6027C23.3472 28.4577 23.1996 28.3384 23.0314 28.2451C22.6339 28.359 22.2503 28.5079 21.8806 28.6921C21.9615 28.7661 22.0207 28.8555 22.0577 28.9603C21.8806 29.1391 21.7036 29.3179 21.5266 29.4967C21.517 29.3125 21.4579 29.1038 21.3495 28.8709C21.0661 28.822 20.8005 28.7326 20.5529 28.6027C20.3758 28.841 20.1988 29.0795 20.0218 29.3179C20.0218 29.0795 20.0218 28.841 20.0218 28.6027C19.9628 28.6622 19.9037 28.7219 19.8447 28.7815C19.6333 28.6152 19.3973 28.4959 19.1366 28.4239C18.6749 28.7546 18.2912 29.172 17.9858 29.6755C17.9269 29.6456 17.8677 29.6159 17.8088 29.5861C17.9492 29.3921 18.0673 29.1834 18.1629 28.9603C17.5809 28.8637 17.0794 28.6252 16.658 28.2451C16.2456 28.7246 16.157 28.6651 16.3925 28.0663C15.9766 27.8773 15.6226 27.6091 15.3303 27.2617C14.4516 27.0414 13.655 26.6541 12.9403 26.0995C12.8725 26.1989 12.7839 26.2584 12.6747 26.2783C11.1386 23.0982 11.286 19.9991 13.1173 16.9808C13.1686 17.2568 13.2866 17.4952 13.4714 17.6959C13.4174 17.1612 13.2993 16.6248 13.1173 16.0868C13.0801 16.3653 12.9916 16.6037 12.8518 16.802C12.8367 16.0244 12.7778 15.2496 12.6747 14.4776C12.6434 13.7992 12.8204 13.2033 13.2058 12.6896C13.2834 12.8695 13.4013 12.8695 13.5599 12.6896C13.9848 12.2972 14.4568 11.9992 14.9762 11.7956Z" fill="#433D37"/>
    <path fill-rule="evenodd" clip-rule="evenodd" d="M21.5269 12.6896C20.3379 12.9494 19.1578 13.2475 17.9862 13.5836C17.7999 13.6103 17.6229 13.5806 17.4551 13.4942C18.7521 12.9702 20.1092 12.7021 21.5269 12.6896Z" fill="#868381"/>
    <path fill-rule="evenodd" clip-rule="evenodd" d="M16.5697 14.6564C15.7496 15.2461 14.9824 15.9016 14.2682 16.6232C14.0722 15.8041 14.0428 14.9697 14.1797 14.12C14.4791 13.4562 14.9808 13.2477 15.6845 13.4942C16.0455 13.8386 16.3406 14.2261 16.5697 14.6564Z" fill="#CA8273"/>
    <path fill-rule="evenodd" clip-rule="evenodd" d="M27.0146 14.4776C27.4312 14.6278 27.7853 14.8663 28.0769 15.1928C28.6942 15.844 29.2253 16.5592 29.6702 17.3384C29.8347 17.6641 29.7166 17.9025 29.3161 18.0536C29.3009 17.8755 29.36 17.7265 29.4932 17.6066C29.1193 16.9311 28.6767 16.3053 28.1654 15.7292C28.1353 16.1252 28.0172 16.4828 27.8113 16.802C27.1943 16.2917 27.2237 15.8447 27.8998 15.461C27.5682 15.1563 27.2731 14.8286 27.0146 14.4776Z" fill="#1F1C1A"/>
    <path fill-rule="evenodd" clip-rule="evenodd" d="M25.2447 16.0868C23.7523 16.1324 22.3951 16.6093 21.1729 17.5172C22.2537 16.2594 23.6108 15.7825 25.2447 16.0868Z" fill="#B4B0AC"/>
    <path fill-rule="evenodd" clip-rule="evenodd" d="M16.5695 14.6564C16.7427 14.712 16.8608 14.8312 16.9236 15.014C16.7466 15.1928 16.5695 15.3716 16.3925 15.5504C16.2888 15.513 16.2002 15.4533 16.127 15.3716C16.028 15.8695 15.792 16.2867 15.4188 16.6232C15.3599 16.5636 15.3007 16.5039 15.2418 16.4444C14.942 17.4605 14.6175 17.5202 14.2681 16.6232C14.9822 15.9015 15.7495 15.246 16.5695 14.6564Z" fill="#A86352"/>
    <path fill-rule="evenodd" clip-rule="evenodd" d="M25.2447 16.0868C26.9561 16.2559 28.1364 17.2095 28.7854 18.9476C29.3902 22.5665 27.9148 24.712 24.3595 25.3843C24.1235 25.3545 23.8874 25.3248 23.6514 25.2949C24.0423 25.2608 24.3963 25.1714 24.7136 25.0267C27.2571 24.5125 28.5553 22.9332 28.6084 20.2886C28.4721 18.0729 27.3507 16.6724 25.2447 16.0868Z" fill="#161412"/>
    <path fill-rule="evenodd" clip-rule="evenodd" d="M30.2017 17.1596C30.5605 17.1306 30.9146 17.1605 31.2639 17.249C31.3623 17.3174 31.4213 17.4068 31.4409 17.5172C30.9966 17.4408 30.5835 17.3217 30.2017 17.1596Z" fill="#262120"/>
    <path fill-rule="evenodd" clip-rule="evenodd" d="M25.2448 16.0868C27.3508 16.6724 28.4722 18.0729 28.6085 20.2886C28.5554 22.9332 27.2571 24.5125 24.7137 25.0267C24.1432 25.0968 23.6121 25.0074 23.1203 24.7585C23.3961 24.721 23.6321 24.6316 23.8285 24.4903C24.0818 24.4222 24.2293 24.2434 24.2711 23.9539C24.4072 23.4892 24.3776 23.0422 24.1825 22.6129C24.9378 22.4186 25.6459 22.1205 26.307 21.7189C26.8898 21.2877 27.0964 20.7214 26.9266 20.0204C26.7685 19.9165 26.5915 19.8568 26.3955 19.8416C25.7265 20.1378 25.0479 20.3463 24.3596 20.4674C24.1925 19.9812 24.1335 19.4747 24.1825 18.9476C23.8237 18.9186 23.4696 18.9485 23.1203 19.037C23.3749 19.0761 23.6109 19.1655 23.8285 19.3052C23.9866 19.7672 24.0455 20.244 24.0055 20.7356C23.1913 20.6819 22.3947 20.7415 21.6155 20.9144C21.217 22.0946 21.6596 22.631 22.9433 22.5235C22.9433 22.5831 22.9433 22.6428 22.9433 22.7023C22.7593 23.3893 22.7593 24.1045 22.9433 24.8479C21.5429 24.4767 20.6282 23.5827 20.1992 22.1659C20.0305 21.6417 19.942 21.1053 19.9337 20.5568C19.8409 19.312 20.2539 18.2987 21.1729 17.5172C22.3952 16.6092 23.7523 16.1324 25.2448 16.0868Z" fill="#706156"/>
    <path fill-rule="evenodd" clip-rule="evenodd" d="M31.441 17.5172C31.908 17.6499 32.144 17.9776 32.1491 18.5006C32.0077 18.8848 31.86 19.2723 31.7065 19.6628C31.5621 19.8993 31.3555 20.0184 31.0869 20.0204C31.8257 19.2709 31.9438 18.4364 31.441 17.5172Z" fill="#45403E"/>
    <path fill-rule="evenodd" clip-rule="evenodd" d="M40.4699 17.696C40.335 18.0111 40.0988 18.1899 39.7617 18.2324C39.7617 17.9941 39.7617 17.7556 39.7617 17.5172C40.0448 17.4693 40.2808 17.529 40.4699 17.696Z" fill="#AC861F"/>
    <path fill-rule="evenodd" clip-rule="evenodd" d="M24.5364 17.696C24.1317 17.7129 23.7776 17.8322 23.4742 18.0536C23.0755 18.1279 22.8099 18.3663 22.6775 18.7687C22.5516 18.4349 22.6401 18.1667 22.9431 17.9642C23.457 17.5551 23.9881 17.4657 24.5364 17.696Z" fill="#251E1B"/>
    <path fill-rule="evenodd" clip-rule="evenodd" d="M24.5362 17.696C24.9774 18.0484 24.9183 18.3761 24.3592 18.6794C23.887 18.7986 23.415 18.7986 22.9429 18.6794C23.1571 18.4936 23.3341 18.2849 23.474 18.0536C23.7774 17.8322 24.1315 17.713 24.5362 17.696Z" fill="#DF6D35"/>
    <path fill-rule="evenodd" clip-rule="evenodd" d="M51.4462 36.8275C51.4462 36.7082 51.4462 36.5891 51.4462 36.4699C56.3257 36.3467 59.3647 33.9032 60.5636 29.1391C60.9258 24.0843 58.7718 20.6575 54.1017 18.8582C53.8124 18.7699 53.5173 18.7402 53.2165 18.7688C50.1248 18.2521 47.4692 19.0865 45.2499 21.272C44.1845 22.4685 43.3878 23.8392 42.8599 25.3844C42.7912 25.2184 42.6731 25.0992 42.5058 25.0268C40.4952 24.6935 39.1674 23.5611 38.5225 21.6296C38.9355 21.6296 39.3487 21.6296 39.7617 21.6296C40.2408 21.6632 40.6538 21.842 41.001 22.166C41.0599 22.166 41.1191 22.166 41.178 22.166C41.178 22.4043 41.2961 22.5236 41.5321 22.5236C41.3968 23.1883 41.4854 23.844 41.7976 24.4904C42.1032 24.6827 42.4277 24.7126 42.7713 24.5798C45.3908 18.9658 49.6397 17.0586 55.518 18.8582C59.6214 21.037 61.4213 24.4641 60.9176 29.1391C59.6791 34.1153 56.5218 36.678 51.4462 36.8275Z" fill="#262524"/>
    <path fill-rule="evenodd" clip-rule="evenodd" d="M17.4549 18.2324C18.1365 18.2684 18.3135 18.5961 17.986 19.2158C17.2844 19.2369 17.1074 18.909 17.4549 18.2324Z" fill="#0D0B0A"/>
    <path fill-rule="evenodd" clip-rule="evenodd" d="M41.7092 18.2324C42.2908 18.7005 42.8219 19.2369 43.3025 19.8416C42.5859 20.6846 41.8188 21.4594 41.001 22.166C40.6539 21.842 40.2409 21.6632 39.7618 21.6296C39.2425 21.246 38.7114 20.8586 38.1685 20.4674C38.4406 20.1622 38.7357 19.894 39.0536 19.6628C39.1239 19.8461 39.2418 19.8759 39.4077 19.7522C39.9388 19.2158 40.4699 18.6794 41.001 18.143C41.2346 18.1081 41.4707 18.138 41.7092 18.2324Z" fill="#ED6E2D"/>
    <path fill-rule="evenodd" clip-rule="evenodd" d="M42.7712 21.272C43.0955 21.1575 43.1545 20.9787 42.9482 20.7356C42.697 20.8258 42.5791 21.0046 42.5942 21.272C41.9777 21.4763 41.6237 21.8935 41.532 22.5235C41.296 22.5235 41.1779 22.4043 41.1779 22.1659C41.1189 22.1659 41.0598 22.1659 41.0008 22.1659C41.8186 21.4593 42.5857 20.6846 43.3023 19.8416C42.8217 19.2369 42.2906 18.7005 41.709 18.2324C41.5755 17.8844 41.3393 17.7355 41.0008 17.7854C40.2707 18.3316 39.6215 18.9574 39.0534 19.6628C38.7355 19.894 38.4404 20.1621 38.1682 20.4674C38.7112 20.8586 39.2423 21.246 39.7616 21.6295C39.3486 21.6295 38.9353 21.6295 38.5223 21.6295C38.3081 21.5523 38.1311 21.433 37.9912 21.272C38.1312 20.9485 38.1312 20.5909 37.9912 20.1992C38.1344 19.9286 38.164 19.6306 38.0797 19.3052C38.446 19.1686 38.8297 19.0792 39.2305 19.037C39.521 18.8351 39.698 18.5669 39.7616 18.2324C40.0987 18.1898 40.3348 18.011 40.4697 17.696C40.7066 17.4076 41.0017 17.3182 41.3549 17.4278C42.0926 18.1728 42.8302 18.9177 43.5679 19.6628C43.4319 20.1673 43.3138 20.7037 43.2138 21.272C43.0408 21.4997 42.8932 21.4997 42.7712 21.272Z" fill="#4B362A"/>
    <path fill-rule="evenodd" clip-rule="evenodd" d="M53.2163 18.7688C51.8223 18.9486 50.406 19.1573 48.9674 19.3945C47.6175 19.983 46.4078 20.7876 45.3381 21.8083C45.2526 21.6388 45.2232 21.46 45.2496 21.2719C47.4689 19.0865 50.1245 18.252 53.2163 18.7688Z" fill="#E8E8E7"/>
    <path fill-rule="evenodd" clip-rule="evenodd" d="M31.0868 20.0204C30.8148 20.7744 30.6378 21.5491 30.5557 22.3448C30.5851 21.6271 30.5555 20.9119 30.4671 20.1992C29.9267 20.0919 29.5432 19.794 29.3164 19.3052C29.3164 19.1264 29.3164 18.9476 29.3164 18.7688C29.4442 18.6941 29.5327 18.575 29.582 18.4112C29.7094 18.6994 29.68 18.9676 29.4934 19.2158C29.582 19.3052 29.6705 19.3946 29.759 19.484C29.7978 19.2269 29.8863 18.9885 30.0246 18.7688C30.0697 19.0983 30.0993 19.4559 30.1131 19.8416C30.1864 19.7599 30.2749 19.7002 30.3786 19.6628C30.5599 19.9047 30.7959 20.024 31.0868 20.0204Z" fill="#946C62"/>
    <path fill-rule="evenodd" clip-rule="evenodd" d="M30.2016 17.1596C30.5835 17.3218 30.9965 17.4409 31.4409 17.5172C31.9436 18.4364 31.8256 19.2709 31.0868 20.0204C30.7959 20.024 30.5599 19.9047 30.3786 19.6628C30.2749 19.7002 30.1864 19.7599 30.1131 19.8416C30.0993 19.4559 30.0697 19.0983 30.0246 18.7688C29.8863 18.9885 29.7978 19.2269 29.759 19.484C29.6705 19.3946 29.582 19.3052 29.4934 19.2158C29.68 18.9676 29.7094 18.6994 29.582 18.4112C29.5327 18.575 29.4442 18.6941 29.3164 18.7688C29.3164 18.5305 29.3164 18.2919 29.3164 18.0536C29.7169 17.9025 29.8349 17.6642 29.6705 17.3384C29.8668 17.3282 30.0439 17.2687 30.2016 17.1596Z" fill="#CD9184"/>
    <path fill-rule="evenodd" clip-rule="evenodd" d="M53.2165 18.7688C53.5173 18.7402 53.8124 18.7698 54.1017 18.8582C58.7718 20.6574 60.9258 24.0843 60.5635 29.1391C59.3647 33.9032 56.3256 36.3466 51.4461 36.4698C46.2352 35.7961 43.3435 32.8161 42.7713 27.5299C42.3631 27.4417 41.9501 27.3822 41.5321 27.3511C41.4731 27.3511 41.414 27.3511 41.355 27.3511C39.5142 26.6243 38.2749 25.313 37.6373 23.4175C37.3421 22.9407 37.0472 22.464 36.7521 21.9871C35.7769 20.7831 34.5377 20.4255 33.0343 20.9143C32.8226 20.8525 32.8226 20.7631 33.0343 20.6462C34.8011 19.9156 36.4534 20.1242 37.9913 21.2719C38.1312 21.433 38.3082 21.5523 38.5224 21.6295C39.1674 23.5611 40.4952 24.6934 42.5058 25.0267C42.6731 25.0991 42.7912 25.2184 42.8598 25.3843C43.3878 23.8391 44.1844 22.4685 45.2498 21.2719C45.2235 21.46 45.2529 21.6388 45.3384 21.8083C46.408 20.7876 47.6177 19.983 48.9676 19.3946C50.4062 19.1573 51.8225 18.9486 53.2165 18.7688Z" fill="#CAC9CC"/>
    <path fill-rule="evenodd" clip-rule="evenodd" d="M41.7088 18.2324C41.4703 18.138 41.2341 18.1081 41.0006 18.143C40.4695 18.6794 39.9384 19.2158 39.4073 19.7522C39.2414 19.8759 39.1235 19.846 39.0532 19.6628C39.6213 18.9574 40.2705 18.3316 41.0006 17.7854C41.3391 17.7355 41.5753 17.8844 41.7088 18.2324Z" fill="#EDB08D"/>
    <path fill-rule="evenodd" clip-rule="evenodd" d="M38.3452 19.3052C38.9289 19.2746 38.9881 19.3937 38.5223 19.6628C38.381 19.581 38.3221 19.4618 38.3452 19.3052Z" fill="#CF9E0B"/>
    <path fill-rule="evenodd" clip-rule="evenodd" d="M11.6127 19.3052C11.63 19.6722 11.5119 19.9703 11.2586 20.1992C11.1996 20.1992 11.1405 20.1992 11.0815 20.1992C11.1895 19.8534 11.3666 19.5553 11.6127 19.3052Z" fill="#7D6132"/>
    <path fill-rule="evenodd" clip-rule="evenodd" d="M37.9911 20.1991C38.1312 20.5909 38.1312 20.9485 37.9911 21.2719C36.4532 20.1242 34.8009 19.9156 33.0341 20.6461C32.8224 20.7631 32.8224 20.8525 33.0341 20.9143C34.5375 20.4255 35.7768 20.7831 36.7519 21.9871C36.5918 22.1139 36.5329 22.2927 36.5749 22.5235C36.5159 22.5235 36.4568 22.5235 36.3978 22.5235C36.284 21.8999 35.9299 21.4529 35.3356 21.1825C34.4462 21.0636 33.561 21.0935 32.68 21.2719C32.503 21.2124 32.326 21.1527 32.1489 21.0931C33.1391 19.9755 34.3784 19.5882 35.8667 19.9309C36.5662 20.0268 37.1858 20.295 37.7256 20.7355C37.7667 20.5144 37.8552 20.3356 37.9911 20.1991Z" fill="#393837"/>
    <path fill-rule="evenodd" clip-rule="evenodd" d="M23.8282 24.4903C24.021 23.8506 24.0504 23.195 23.9167 22.5236C23.5931 22.2997 23.2686 22.2997 22.943 22.5236C21.6593 22.631 21.2167 22.0946 21.6152 20.9144C22.3944 20.7415 23.191 20.6819 24.0052 20.7356C24.0453 20.2441 23.9863 19.7672 23.8282 19.3052C23.6106 19.1655 23.3746 19.0761 23.1201 19.037C23.4694 18.9485 23.8234 18.9186 24.1823 18.9476C24.1332 19.4747 24.1922 19.9812 24.3593 20.4674C25.0476 20.3463 25.7262 20.1379 26.3952 19.8416C26.5912 19.8568 26.7683 19.9165 26.9264 20.0204C27.0961 20.7215 26.8895 21.2877 26.3067 21.719C25.6457 22.1205 24.9375 22.4186 24.1823 22.613C24.3774 23.0423 24.4069 23.4893 24.2708 23.9539C24.229 24.2434 24.0815 24.4222 23.8282 24.4903Z" fill="#1E1A17"/>
    <path fill-rule="evenodd" clip-rule="evenodd" d="M30.3785 23.5964C30.409 23.7738 30.3498 23.8928 30.2015 23.954C28.8149 26.3322 26.8084 28.2096 24.1822 29.5861C20.4425 30.6697 17.0198 30.0737 13.9141 27.7982C13.3966 27.3662 12.9834 26.8595 12.6748 26.2784C12.784 26.2585 12.8726 26.199 12.9404 26.0996C13.6551 26.6542 14.4517 27.0415 15.3304 27.2618C15.6226 27.6092 15.9767 27.8774 16.3926 28.0663C16.1571 28.6651 16.2456 28.7247 16.6581 28.2451C17.0795 28.6253 17.581 28.8638 18.163 28.9603C18.0674 29.1835 17.9493 29.3921 17.8089 29.5861C17.8678 29.616 17.927 29.6457 17.9859 29.6755C18.2913 29.172 18.6749 28.7547 19.1367 28.4239C19.3974 28.496 19.6334 28.6153 19.8448 28.7815C19.9038 28.722 19.9629 28.6623 20.0218 28.6027C20.0218 28.8411 20.0218 29.0796 20.0218 29.3179C20.1989 29.0796 20.3759 28.8411 20.553 28.6027C20.8006 28.7327 21.0662 28.8221 21.3496 28.8709C21.458 29.1039 21.5171 29.3126 21.5267 29.4967C21.7037 29.3179 21.8807 29.1391 22.0578 28.9603C22.0208 28.8556 21.9616 28.7662 21.8807 28.6921C22.2504 28.508 22.634 28.359 23.0315 28.2451C23.1997 28.3385 23.3473 28.4577 23.4741 28.6027C23.9005 27.9632 24.4612 27.4865 25.1559 27.1724C25.2581 28.088 25.4351 28.088 25.687 27.1724C26.0646 27.0374 26.3598 26.799 26.5722 26.4572C26.6267 26.6016 26.7153 26.7209 26.8378 26.8148C27.038 26.5333 27.0676 26.2353 26.9263 25.9208C26.6926 25.9742 26.427 26.0041 26.1296 26.0102C25.8097 26.1761 25.5146 26.3846 25.2444 26.636C24.9024 26.5206 24.6958 26.2821 24.6248 25.9208C24.4478 26.1591 24.2707 26.3976 24.0937 26.636C21.4951 26.2943 19.9314 24.834 19.4022 22.2554C19.3711 21.8336 19.4891 21.7442 19.7563 21.9872C20.8359 25.3636 23.0782 26.5258 26.4837 25.4738C28.5074 24.1573 29.4222 22.2799 29.2278 19.8416C29.5663 20.0547 29.9203 20.2335 30.29 20.378C30.3268 21.4855 30.3564 22.5583 30.3785 23.5964Z" fill="#3A342F"/>
    <path fill-rule="evenodd" clip-rule="evenodd" d="M48.6133 20.378C49.0407 20.54 49.1882 20.8379 49.0559 21.272C48.7226 21.0658 48.5751 20.768 48.6133 20.378Z" fill="#7490CE"/>
    <path fill-rule="evenodd" clip-rule="evenodd" d="M42.7711 21.2719C42.7121 21.2719 42.653 21.2719 42.5941 21.2719C42.579 21.0046 42.6969 20.8258 42.9481 20.7355C43.1544 20.9787 43.0954 21.1575 42.7711 21.2719Z" fill="#B78E0D"/>
    <path fill-rule="evenodd" clip-rule="evenodd" d="M54.4557 20.1991C54.6322 20.1938 54.7503 20.2832 54.8098 20.4673C54.304 21.7393 54.1859 21.6499 54.4557 20.1991Z" fill="#7690CE"/>
    <path fill-rule="evenodd" clip-rule="evenodd" d="M52.6851 23.954C52.8032 22.7619 52.9211 21.57 53.0392 20.378C53.5788 21.8799 53.6673 23.4295 53.3047 25.0267C52.9728 26.0379 52.2942 26.3658 51.2688 26.0101C50.6405 25.4802 50.316 24.7948 50.2951 23.954C50.177 22.9407 50.177 21.9276 50.2951 20.9144C50.3333 20.5775 50.4514 20.2795 50.6492 20.0204C50.6357 21.7268 50.8719 23.3957 51.3573 25.0267C52.3351 25.382 52.7777 25.0244 52.6851 23.954Z" fill="#3D63C6"/>
    <path fill-rule="evenodd" clip-rule="evenodd" d="M39.0532 21.9872C39.5079 21.7828 39.98 21.8127 40.4695 22.0766C40.901 22.6679 41.1959 23.3235 41.3547 24.0434C41.038 24.1364 40.7429 24.0768 40.4695 23.8646C39.9708 23.3929 39.5578 22.8565 39.2303 22.2554C39.6608 22.061 39.6017 21.9716 39.0532 21.9872Z" fill="#4A443E"/>
    <path fill-rule="evenodd" clip-rule="evenodd" d="M10.7277 21.0932C10.4332 21.4828 10.4923 21.8105 10.9048 22.0766C10.6206 22.3198 10.3551 22.588 10.1081 22.8812C9.99889 23.0509 10.0283 23.1998 10.1966 23.3282C10.0915 23.4111 9.97339 23.441 9.84256 23.4176C9.88452 23.1868 9.82557 23.008 9.66553 22.8812C9.93108 22.2245 10.2852 21.6285 10.7277 21.0932Z" fill="#F6CE7C"/>
    <path fill-rule="evenodd" clip-rule="evenodd" d="M17.4548 21.0932C18.3142 21.81 18.3731 22.6146 17.6319 23.5069C17.1128 23.6773 16.5817 23.7667 16.0385 23.7751C15.8615 23.4771 15.6255 23.2388 15.3304 23.06C15.2782 22.6603 15.3373 22.3027 15.5074 21.9872C15.9077 21.192 16.5569 20.894 17.4548 21.0932Z" fill="#9C6C5F"/>
    <path fill-rule="evenodd" clip-rule="evenodd" d="M48.6133 23.0599C48.753 23.0093 48.8711 22.9199 48.9674 22.7917C48.0496 22.7606 47.1645 22.6712 46.3118 22.5235C47.4645 22.2879 48.6448 22.2879 49.8526 22.5235C48.9674 23.5963 48.0822 24.6691 47.197 25.7419C48.2053 25.854 49.2085 25.9136 50.2067 25.9207C49.9574 26.0536 49.7214 26.2027 49.4985 26.3677C48.4345 26.5102 47.3723 26.6593 46.3118 26.8147C45.8547 26.7705 45.7073 26.5322 45.8693 26.0995C46.7652 25.0468 47.68 24.0335 48.6133 23.0599Z" fill="#345FC6"/>
    <path fill-rule="evenodd" clip-rule="evenodd" d="M53.0395 20.378C52.9214 21.57 52.8035 22.7619 52.6854 23.9539C52.627 22.6966 52.6859 21.445 52.8624 20.1992C52.9699 20.2213 53.0288 20.2809 53.0395 20.378Z" fill="#97A6CB"/>
    <path fill-rule="evenodd" clip-rule="evenodd" d="M46.3121 22.5236C47.1647 22.6713 48.0499 22.7607 48.9676 22.7918C48.8713 22.92 48.7532 23.0094 48.6136 23.06C47.7551 22.9409 46.8699 22.8216 45.958 22.7024C46.0389 22.5597 46.157 22.5002 46.3121 22.5236Z" fill="#6C89CB"/>
    <path fill-rule="evenodd" clip-rule="evenodd" d="M55.6949 21.6296C56.3542 21.4996 56.8263 21.7379 57.1112 22.3448C57.0522 22.4043 56.9931 22.464 56.9342 22.5236C56.1924 21.9804 55.6613 22.1295 55.3408 22.9705C55.363 23.2615 55.4515 23.5297 55.6064 23.7751C57.2493 25.2719 57.1018 26.5533 55.1638 27.6193C54.0683 27.8221 53.5078 27.3751 53.4819 26.2783C54.2405 27.2297 55.0078 27.2297 55.7834 26.2783C55.9015 25.8612 55.9015 25.4439 55.7834 25.0267C54.5153 23.9053 54.4857 22.773 55.6949 21.6296Z" fill="#3861C6"/>
    <path fill-rule="evenodd" clip-rule="evenodd" d="M16.0388 23.7751C16.582 23.7667 17.1131 23.6773 17.6321 23.5069C18.3734 22.6146 18.3144 21.81 17.4551 21.0932C16.7691 20.5932 16.1495 20.7125 15.5962 21.4508C15.5107 21.6203 15.4813 21.7991 15.5077 21.9872C15.3376 22.3027 15.2784 22.6603 15.3307 23.0599C14.8741 21.6598 15.3756 20.8253 16.8355 20.5568C18.3375 20.8684 18.8096 21.7624 18.2518 23.2387C17.607 23.9048 16.8693 24.0836 16.0388 23.7751Z" fill="#201B18"/>
    <path fill-rule="evenodd" clip-rule="evenodd" d="M17.4548 21.0932C16.5569 20.894 15.9077 21.1921 15.5074 21.9872C15.481 21.7991 15.5104 21.6203 15.5959 21.4508C16.1492 20.7125 16.7688 20.5933 17.4548 21.0932Z" fill="#B7A79C"/>
    <path fill-rule="evenodd" clip-rule="evenodd" d="M11.0815 20.1992C10.9634 20.4972 10.8455 20.7951 10.7274 21.0932C10.2848 21.6285 9.93073 22.2244 9.66518 22.8811C9.47115 23.3339 9.23516 23.751 8.95703 24.1327C9.29871 22.6072 10.0069 21.2961 11.0815 20.1992Z" fill="#5B5347"/>
    <path fill-rule="evenodd" clip-rule="evenodd" d="M9.66518 22.8812C9.82522 23.0079 9.88417 23.1867 9.84222 23.4176C9.54462 23.9009 9.24967 24.3775 8.95703 24.8479C8.95703 24.6096 8.95703 24.3711 8.95703 24.1328C9.23516 23.751 9.47115 23.3339 9.66518 22.8812Z" fill="#EFDEBA"/>
    <path fill-rule="evenodd" clip-rule="evenodd" d="M58.3508 23.4175C58.676 23.4424 58.735 23.5617 58.5278 23.7751C58.1925 24.183 57.7793 24.3916 57.2886 24.4009C57.6242 24.0312 57.9783 23.7034 58.3508 23.4175Z" fill="#8097CE"/>
    <path fill-rule="evenodd" clip-rule="evenodd" d="M33.7422 24.1328C32.495 24.2248 31.2557 24.4632 30.0244 24.848C31.1617 24.013 32.401 23.7746 33.7422 24.1328Z" fill="#DEA486"/>
    <path fill-rule="evenodd" clip-rule="evenodd" d="M37.6371 23.4175C38.2748 25.313 39.5141 26.6243 41.3549 27.3511C40.8815 28.998 39.8193 30.2198 38.1682 31.0165C37.7573 31.1661 37.3441 31.2257 36.929 31.1953C37.4277 29.9026 37.5754 28.5616 37.3716 27.1723C37.0876 27.1003 36.881 26.8619 36.752 26.4571C37.1846 25.4841 37.4796 24.471 37.6371 23.4175Z" fill="#423C36"/>
    <path fill-rule="evenodd" clip-rule="evenodd" d="M44.7186 23.9539C45.1411 24.11 45.4951 24.3782 45.7809 24.7585C45.4659 24.7506 45.171 24.6314 44.8957 24.4009C44.7626 24.2809 44.7034 24.132 44.7186 23.9539Z" fill="#7892CE"/>
    <path fill-rule="evenodd" clip-rule="evenodd" d="M29.3166 19.3052C29.5434 19.794 29.9269 20.0919 30.4674 20.1992C30.5557 20.9119 30.5853 21.6271 30.5559 22.3448C30.5651 22.7744 30.5061 23.1916 30.3788 23.5964C30.3567 22.5582 30.3272 21.4855 30.2903 20.378C29.9207 20.2335 29.5666 20.0547 29.2281 19.8416C29.4225 22.2799 28.5077 24.1572 26.484 25.4737C23.0785 26.5258 20.8362 25.3636 19.7566 21.9872C19.7685 21.6473 19.7094 21.3195 19.5796 21.0038C19.6042 20.7712 19.7221 20.6222 19.9337 20.5568C19.942 21.1053 20.0305 21.6417 20.1992 22.166C20.6282 23.5828 21.5429 24.4768 22.9433 24.8479C22.7594 24.1045 22.7594 23.3893 22.9433 22.7024C22.8737 23.3156 22.9916 23.8817 23.2974 24.4009C23.4652 24.4873 23.6422 24.517 23.8285 24.4903C23.6321 24.6316 23.3962 24.721 23.1203 24.7585C23.6121 25.0074 24.1433 25.0968 24.7137 25.0267C24.3964 25.1714 24.0423 25.2608 23.6514 25.2949C23.8874 25.3248 24.1236 25.3545 24.3596 25.3843C27.9148 24.7121 29.3903 22.5665 28.7855 18.9476C28.9215 18.8112 29.01 18.6324 29.0511 18.4112C29.0861 18.7477 29.1746 19.0456 29.3166 19.3052Z" fill="#2A2622"/>
    <path fill-rule="evenodd" clip-rule="evenodd" d="M23.8284 24.4904C23.6421 24.517 23.4651 24.4873 23.2973 24.401C22.9915 23.8818 22.8736 23.3157 22.9432 22.7024C22.9432 22.6429 22.9432 22.5831 22.9432 22.5236C23.2688 22.2997 23.5933 22.2997 23.9169 22.5236C24.0506 23.195 24.0212 23.8506 23.8284 24.4904Z" fill="#B62347"/>
    <path fill-rule="evenodd" clip-rule="evenodd" d="M58.7045 25.2055C58.9662 25.1587 59.2022 25.2182 59.4127 25.3843C58.9164 25.701 58.3853 25.8499 57.8193 25.8313C58.1261 25.6187 58.4213 25.4101 58.7045 25.2055Z" fill="#7D95CE"/>
    <path fill-rule="evenodd" clip-rule="evenodd" d="M37.106 24.3116C37.0959 24.5099 37.0369 24.6887 36.9289 24.848C35.755 25.9442 34.6043 27.0765 33.4767 28.2452C33.4471 28.1856 33.4177 28.1259 33.3882 28.0664C34.5722 26.7515 35.8115 25.4999 37.106 24.3116Z" fill="#F2AE60"/>
    <path fill-rule="evenodd" clip-rule="evenodd" d="M8.95689 24.848C8.98327 25.4035 8.89475 25.9399 8.69134 26.4571C8.62353 26.3577 8.53501 26.2982 8.42578 26.2784C8.53714 25.7604 8.71417 25.2835 8.95689 24.848Z" fill="#E3CC9C"/>
    <path fill-rule="evenodd" clip-rule="evenodd" d="M36.398 22.5236C36.457 22.5236 36.5161 22.5236 36.5751 22.5236C35.7441 23.4819 34.8589 24.3759 33.9195 25.2055C33.0278 26.1065 32.0835 26.941 31.0869 27.7087C32.1045 26.591 33.1667 25.4886 34.2736 24.4009C34.1751 24.3325 34.1162 24.2431 34.0965 24.1327C34.2828 24.1594 34.4598 24.1297 34.6277 24.0433C35.2473 23.5661 35.8373 23.0596 36.398 22.5236Z" fill="#3C281F"/>
    <path fill-rule="evenodd" clip-rule="evenodd" d="M8.95721 24.1328C8.95721 24.3711 8.95721 24.6096 8.95721 24.8479C8.71449 25.2835 8.53745 25.7604 8.4261 26.2783C8.28022 26.8619 8.22109 27.458 8.24906 28.0663C8.13098 29.1391 8.01307 30.2119 7.89499 31.2847C7.72291 28.906 7.98846 26.5816 8.69165 24.3116C8.75946 24.2121 8.84798 24.1526 8.95721 24.1328Z" fill="#453F39"/>
    <path fill-rule="evenodd" clip-rule="evenodd" d="M11.0814 20.1992C11.1404 20.1992 11.1995 20.1992 11.2585 20.1992C10.9587 22.7419 11.4898 25.0662 12.8518 27.1723C13.1832 27.966 13.4192 28.8004 13.5599 29.6755C13.4804 30.039 13.3034 30.337 13.0288 30.5695C12.0503 30.0495 11.1356 29.4534 10.2848 28.7815C9.73806 29.7068 9.23652 30.6603 8.77994 31.6423C8.69903 31.785 8.58095 31.8445 8.42586 31.8211C8.25042 30.6029 8.19129 29.3513 8.24883 28.0663C8.22085 27.458 8.27998 26.8619 8.42586 26.2783C8.5351 26.2982 8.62361 26.3577 8.69142 26.4571C8.89483 25.9398 8.98335 25.4034 8.95697 24.8479C9.24962 24.3775 9.54456 23.9008 9.84216 23.4175C9.97299 23.441 10.0911 23.4111 10.1962 23.3281C10.0279 23.1998 9.99848 23.0508 10.1077 22.8811C10.3547 22.5879 10.6202 22.3197 10.9044 22.0765C10.4919 21.8105 10.4328 21.4828 10.7273 21.0932C10.8454 20.7951 10.9633 20.4972 11.0814 20.1992Z" fill="#F9B224"/>
    <path fill-rule="evenodd" clip-rule="evenodd" d="M36.5751 22.5236C36.7521 22.5831 36.8702 22.7024 36.9292 22.8812C34.7421 25.2392 32.47 27.504 30.1133 29.6755C30.0311 29.5693 30.0015 29.45 30.0247 29.3179C31.4007 28.018 32.7578 26.6771 34.0966 25.2949C34.0562 25.2236 33.9971 25.1939 33.9196 25.2055C34.8589 24.3759 35.7441 23.4819 36.5751 22.5236Z" fill="#F1A461"/>
    <path fill-rule="evenodd" clip-rule="evenodd" d="M44.1875 27.1723C44.6421 26.968 45.1143 26.9978 45.6038 27.2617C45.115 27.3908 44.643 27.361 44.1875 27.1723Z" fill="#849ACD"/>
    <path fill-rule="evenodd" clip-rule="evenodd" d="M57.6421 26.9935C57.7124 26.8102 57.8303 26.7804 57.9962 26.9041C58.32 27.1031 58.4676 27.3713 58.4388 27.7087C58.196 27.4332 57.9305 27.1947 57.6421 26.9935Z" fill="#7490CE"/>
    <path fill-rule="evenodd" clip-rule="evenodd" d="M36.5749 27.1724C37.0369 28.7606 36.742 30.191 35.6897 31.4635C34.8512 32.1226 34.025 32.7782 33.2112 33.4303C33.1522 33.6091 33.0341 33.7284 32.8571 33.7879C32.6119 33.9799 32.4055 34.2183 32.2375 34.5031C31.7745 36.4545 30.7418 38.0042 29.1393 39.1519C27.732 39.8624 26.2568 40.0412 24.7134 39.6883C26.6314 38.3471 28.1066 36.6187 29.1393 34.5031C29.7099 34.1291 30.064 33.5927 30.2015 32.8939C30.4533 32.8565 30.6893 32.7672 30.9097 32.6257C32.8286 30.8367 34.7169 29.019 36.5749 27.1724Z" fill="#EF6A2B"/>
    <path fill-rule="evenodd" clip-rule="evenodd" d="M50.915 27.3511C51.1836 27.3531 51.3902 27.4722 51.5347 27.7087C51.8216 29.6744 51.8512 31.6412 51.6232 33.6091C51.5642 33.7283 51.5051 33.8474 51.4462 33.9667C51.3132 33.8101 51.2247 33.6313 51.1806 33.4303C51.0923 32.6577 51.0627 31.883 51.0921 31.1059C50.5622 30.9924 50.0311 30.9627 49.4987 31.0165C49.2259 31.5379 48.931 32.0444 48.6136 32.5363C48.5546 32.417 48.4955 32.298 48.4365 32.1787C49.0333 30.4363 49.8595 28.8271 50.915 27.3511Z" fill="#3460C6"/>
    <path fill-rule="evenodd" clip-rule="evenodd" d="M36.3979 26.6359C36.558 26.7627 36.6169 26.9415 36.575 27.1723C34.717 29.019 32.8287 30.8366 30.9098 32.6257C30.6894 32.7671 30.4534 32.8565 30.2016 32.8939C30.1887 32.6209 30.3068 32.4421 30.5557 32.3575C32.5079 30.4454 34.4553 28.5382 36.3979 26.6359Z" fill="#B84813"/>
    <path fill-rule="evenodd" clip-rule="evenodd" d="M44.7188 28.0663C46.0773 28.0366 47.4347 28.0663 48.7906 28.1557C49.0266 28.3345 49.0266 28.5133 48.7906 28.6921C48.2034 28.7811 47.6133 28.811 47.0202 28.7815C47.2187 30.5103 47.2187 32.2386 47.0202 33.9667C46.627 33.3736 46.4204 32.7181 46.4006 31.9999C46.3123 30.9287 46.2827 29.8559 46.3121 28.7815C45.7778 28.745 45.2467 28.6855 44.7188 28.6027C44.7188 28.4239 44.7188 28.2451 44.7188 28.0663Z" fill="#325EC6"/>
    <path fill-rule="evenodd" clip-rule="evenodd" d="M31.0866 27.7087C30.5555 28.3047 30.0244 28.9008 29.4933 29.4967C29.2573 29.616 29.0803 29.7948 28.9622 30.0331C28.8441 30.0331 28.7852 29.9736 28.7852 29.8543C29.445 29.0086 30.2121 28.2934 31.0866 27.7087Z" fill="#512D1C"/>
    <path fill-rule="evenodd" clip-rule="evenodd" d="M55.1641 28.0663C55.3405 28.0509 55.4879 28.1107 55.6067 28.2451C55.7248 29.2584 55.7248 30.2715 55.6067 31.2847C55.421 31.4665 55.2144 31.4964 54.9871 31.3741C54.6074 30.7819 54.1352 30.2752 53.5708 29.8543C53.3396 30.7934 53.1921 31.7471 53.1282 32.7151C53.0549 32.7968 52.9664 32.8565 52.8627 32.8939C52.6564 31.4673 52.6269 30.0369 52.7741 28.6027C52.9599 28.4209 53.1665 28.391 53.3938 28.5133C53.7735 29.1055 54.2457 29.6122 54.8101 30.0331C54.9398 29.3708 55.0579 28.7152 55.1641 28.0663Z" fill="#3B63C6"/>
    <path fill-rule="evenodd" clip-rule="evenodd" d="M36.398 26.4572C36.398 26.5167 36.398 26.5764 36.398 26.636C34.4553 28.5382 32.5079 30.4454 30.5557 32.3575C30.3697 32.2284 30.2516 32.0496 30.2017 31.8211C30.3651 31.9647 30.5421 31.9945 30.7328 31.9105C32.5444 29.9909 34.4328 28.1733 36.398 26.4572Z" fill="#422214"/>
    <path fill-rule="evenodd" clip-rule="evenodd" d="M50.7379 28.6027C50.967 28.8794 51.0851 29.237 51.092 29.6755C51.2531 30.8968 50.899 31.0458 50.0298 30.1224C50.3375 29.6499 50.5736 29.1432 50.7379 28.6027Z" fill="#B8BCCC"/>
    <path fill-rule="evenodd" clip-rule="evenodd" d="M33.9191 25.2056C33.9966 25.194 34.0558 25.2236 34.0961 25.295C32.7574 26.6771 31.4002 28.0181 30.0243 29.3179C29.8665 29.427 29.6895 29.4866 29.4932 29.4967C30.0243 28.9008 30.5554 28.3047 31.0865 27.7088C32.083 26.941 33.0274 26.1065 33.9191 25.2056Z" fill="#E7C2AD"/>
    <path fill-rule="evenodd" clip-rule="evenodd" d="M12.6751 26.2783C12.9837 26.8594 13.3969 27.3661 13.9144 27.7981C17.0201 30.0737 20.4428 30.6696 24.1825 29.5861C26.8087 28.2095 28.8152 26.3321 30.2018 23.9539C30.1786 24.1106 30.2376 24.2298 30.3788 24.3115C31.5014 23.7884 32.6817 23.6392 33.9196 23.8645C34.018 23.933 34.077 24.0224 34.0966 24.1327C33.9785 24.1327 33.8606 24.1327 33.7425 24.1327C32.4013 23.7746 31.162 24.0129 30.0248 24.8479C29.4513 25.9052 28.8021 26.9184 28.0773 27.8875C27.4067 28.4952 26.6986 29.0615 25.9529 29.5861C24.4548 30.3748 22.9204 31.0006 21.3499 31.4635C21.3689 31.1275 21.2804 31.068 21.0844 31.2847C18.7216 31.1946 16.5676 30.4794 14.6225 29.1391C14.1706 28.7642 13.7575 28.347 13.3833 27.8875C13.1781 27.6658 13.001 27.4273 12.8522 27.1723C11.4902 25.0662 10.9591 22.7419 11.2588 20.1992C11.5122 19.9703 11.6303 19.6722 11.6129 19.3052C11.839 18.3717 12.2522 17.5372 12.8522 16.802C12.992 16.6037 13.0805 16.3654 13.1177 16.0868C13.2997 16.6248 13.4178 17.1612 13.4718 17.696C13.287 17.4952 13.1691 17.2569 13.1177 16.9808C11.2864 19.9991 11.139 23.0982 12.6751 26.2783Z" fill="#211D19"/>
    <path fill-rule="evenodd" clip-rule="evenodd" d="M28.077 27.8875C26.4824 30.1547 24.299 31.4658 21.5266 31.8211C21.5266 31.7018 21.4677 31.6423 21.3496 31.6423C21.3496 31.5827 21.3496 31.523 21.3496 31.4635C22.9201 31.0006 24.4545 30.3748 25.9526 29.5861C26.6983 29.0615 27.4064 28.4952 28.077 27.8875Z" fill="#B24614"/>
    <path fill-rule="evenodd" clip-rule="evenodd" d="M36.9291 22.8812C37.3079 23.3069 37.3669 23.7837 37.1061 24.3116C35.8116 25.4998 34.5724 26.7514 33.3883 28.0663C33.4179 28.1259 33.4473 28.1856 33.4768 28.2451C34.6044 27.0765 35.7551 25.9442 36.9291 24.8479C36.9948 25.4743 36.8177 26.0107 36.398 26.4571C34.4328 28.1732 32.5444 29.9909 30.7328 31.9105C30.5421 31.9945 30.3651 31.9647 30.2017 31.8211C30.1328 30.962 29.7196 30.366 28.9624 30.0331C29.0805 29.7948 29.2575 29.616 29.4935 29.4967C29.6898 29.4865 29.8669 29.427 30.0246 29.3179C30.0014 29.45 30.031 29.5693 30.1131 29.6755C32.4699 27.504 34.742 25.2392 36.9291 22.8812Z" fill="#EE9260"/>
    <path fill-rule="evenodd" clip-rule="evenodd" d="M13.5601 29.6755C13.7084 29.7367 13.7676 29.8558 13.7371 30.0331C13.559 30.1115 13.559 30.2305 13.7371 30.3907C13.641 30.4015 13.582 30.461 13.5601 30.5695C13.7293 30.8511 13.8474 31.1492 13.9141 31.4635C13.6805 31.2057 13.3855 31.0866 13.029 31.1059C13.0897 31.4605 12.9716 31.699 12.6749 31.8211C13.0785 30.9137 12.7834 30.3773 11.7897 30.2119C11.479 30.4211 11.302 30.7192 11.2586 31.1059C11.4043 31.4773 11.6403 31.7754 11.9667 31.9999C11.6555 31.9325 11.3604 31.8133 11.0816 31.6423C10.9778 31.6797 10.8893 31.7394 10.816 31.8211C10.8615 31.1878 11.0679 30.5917 11.4356 30.0331C11.1297 29.7245 10.7756 29.4862 10.3734 29.318C10.1107 30.26 9.63871 31.1242 8.95711 31.9105C9.09379 32.1288 9.27082 32.3076 9.48822 32.4469C9.16602 32.3618 8.8709 32.3917 8.60304 32.5363C8.43769 32.3454 8.37856 32.107 8.426 31.8211C8.58109 31.8446 8.69917 31.785 8.78008 31.6423C9.23665 30.6604 9.7382 29.7068 10.2849 28.7816C11.1357 29.4535 12.0505 30.0496 13.029 30.5695C13.3035 30.3371 13.4806 30.039 13.5601 29.6755Z" fill="#F9CA67"/>
    <path fill-rule="evenodd" clip-rule="evenodd" d="M12.8521 27.1724C13.0009 27.4273 13.178 27.6658 13.3832 27.8876C13.6926 28.6909 14.0467 29.4656 14.4454 30.2119C14.2683 30.2119 14.0913 30.2119 13.9143 30.2119C13.9143 30.0927 13.8553 30.0331 13.7372 30.0331C13.7677 29.8558 13.7086 29.7367 13.5602 29.6755C13.4195 28.8005 13.1835 27.9661 12.8521 27.1724Z" fill="#805913"/>
    <path fill-rule="evenodd" clip-rule="evenodd" d="M45.2499 29.6755C45.6127 29.7123 45.6718 29.8612 45.427 30.1225C45.1596 30.2745 44.8941 30.4234 44.6303 30.5695C44.5418 30.5099 44.4533 30.4502 44.3647 30.3907C44.633 30.1078 44.9279 29.8693 45.2499 29.6755Z" fill="#7892CE"/>
    <path fill-rule="evenodd" clip-rule="evenodd" d="M56.5798 27.8875C58.2339 28.3039 58.8535 29.3767 58.4387 31.1059C58.079 31.9757 57.4594 32.5717 56.5798 32.8939C56.3239 32.7739 56.2059 32.5652 56.2258 32.2681C56.4025 30.8127 56.5205 29.3526 56.5798 27.8875Z" fill="#3861C6"/>
    <path fill-rule="evenodd" clip-rule="evenodd" d="M57.1115 28.6027C58.3066 29.6581 58.2771 30.7309 57.0229 31.821C57.0357 30.7518 57.0653 29.679 57.1115 28.6027Z" fill="#BDC0CC"/>
    <path fill-rule="evenodd" clip-rule="evenodd" d="M36.7517 21.9872C37.0468 22.464 37.3417 22.9407 37.6369 23.4176C37.4793 24.4711 37.1844 25.4841 36.7517 26.4571C36.8807 26.8619 37.0873 27.1003 37.3713 27.1723C37.5751 28.5616 37.4274 29.9026 36.9287 31.1953C37.3439 31.2257 37.7571 31.1662 38.168 31.0165C39.819 30.2198 40.8812 28.9981 41.3546 27.3511C41.4136 27.3511 41.4727 27.3511 41.5317 27.3511C41.5906 27.4704 41.6498 27.5895 41.7087 27.7087C40.6959 31.2361 38.3355 32.8751 34.6272 32.6257C34.1742 32.9434 33.702 33.2116 33.2109 33.4303C34.0248 32.7782 34.851 32.1226 35.6895 31.4635C36.7418 30.191 37.0367 28.7606 36.5746 27.1723C36.6166 26.9415 36.5576 26.7627 36.3976 26.6359C36.3976 26.5764 36.3976 26.5167 36.3976 26.4571C36.8174 26.0107 36.9944 25.4743 36.9287 24.848C37.0367 24.6887 37.0957 24.5099 37.1058 24.3116C37.3665 23.7838 37.3076 23.3069 36.9287 22.8812C36.8698 22.7024 36.7517 22.5831 36.5746 22.5236C36.5327 22.2927 36.5916 22.114 36.7517 21.9872Z" fill="#25201C"/>
    <path fill-rule="evenodd" clip-rule="evenodd" d="M12.6751 31.8211C12.4612 31.9523 12.2252 32.0119 11.9669 31.9999C11.6405 31.7753 11.4045 31.4773 11.2588 31.1059C11.3022 30.7192 11.4792 30.4211 11.7899 30.2119C12.7836 30.3773 13.0787 30.9137 12.6751 31.8211Z" fill="#FEAE0A"/>
    <path fill-rule="evenodd" clip-rule="evenodd" d="M13.3828 27.8875C13.7571 28.347 14.1701 28.7642 14.6221 29.1391C14.5833 29.3492 14.6423 29.528 14.7991 29.6755C16.3337 30.7946 18.0451 31.5098 19.9332 31.8211C19.8222 31.985 19.7631 32.1638 19.7561 32.3575C18.4535 32.9042 17.2142 32.7852 16.0384 31.9999C15.5021 31.3993 14.971 30.8034 14.445 30.2119C14.0463 29.4656 13.6923 28.6909 13.3828 27.8875Z" fill="#F3AF28"/>
    <path fill-rule="evenodd" clip-rule="evenodd" d="M14.6224 29.1391C16.5675 30.4794 18.7215 31.1946 21.0842 31.2847C21.2802 31.068 21.3687 31.1275 21.3498 31.4635C20.8787 32.1447 20.7016 32.9196 20.8187 33.7879C20.6416 33.7879 20.4646 33.7879 20.2876 33.7879C20.2876 33.4898 20.2876 33.1919 20.2876 32.8939C20.1105 32.8939 19.9335 32.8939 19.7564 32.8939C19.6789 32.9055 19.6198 32.8758 19.5794 32.8045C19.7354 32.6779 19.8533 32.5288 19.9335 32.3575C19.8745 32.3575 19.8154 32.3575 19.7564 32.3575C19.7634 32.1638 19.8225 31.985 19.9335 31.8211C18.0454 31.5098 16.334 30.7946 14.7994 29.6755C14.6426 29.528 14.5836 29.3492 14.6224 29.1391Z" fill="#A56F0B"/>
    <path fill-rule="evenodd" clip-rule="evenodd" d="M33.7423 24.1328C33.8604 24.1328 33.9783 24.1328 34.0963 24.1328C34.116 24.2431 34.175 24.3325 34.2734 24.4009C33.1665 25.4886 32.1043 26.5911 31.0867 27.7087C30.2122 28.2934 29.4451 29.0086 28.7852 29.8543C26.938 29.4447 25.8169 30.1599 25.4215 31.9999C24.1626 32.7802 22.8055 33.3166 21.3497 33.6091C21.1349 33.5649 21.0168 33.4457 20.9956 33.2515C21.1705 32.7909 21.3476 32.314 21.5267 31.8211C24.2991 31.4658 26.4825 30.1547 28.0771 27.8875C28.8019 26.9184 29.4511 25.9052 30.0245 24.8479C31.2558 24.4632 32.495 24.2248 33.7423 24.1328Z" fill="#EC692B"/>
    <path fill-rule="evenodd" clip-rule="evenodd" d="M14.4453 30.2119C14.9713 30.8034 15.5024 31.3993 16.0386 31.9999C15.2606 31.6312 14.7295 31.0351 14.4453 30.2119Z" fill="#412C08"/>
    <path fill-rule="evenodd" clip-rule="evenodd" d="M13.9141 31.4635C13.9011 31.7365 14.0192 31.9153 14.2681 31.9999C14.2782 32.1982 14.3372 32.377 14.4452 32.5363C14.2168 32.6361 14.0693 32.8149 14.0026 33.0727C13.7671 32.8792 13.5016 32.76 13.2059 32.7151C12.891 32.5059 12.7139 32.208 12.6748 31.8211C12.9715 31.699 13.0896 31.4605 13.0289 31.1059C13.3854 31.0866 13.6804 31.2057 13.9141 31.4635Z" fill="#FEAE0B"/>
    <path fill-rule="evenodd" clip-rule="evenodd" d="M13.914 31.4634C14.163 31.548 14.281 31.7268 14.2681 31.9998C14.0192 31.9153 13.9011 31.7365 13.914 31.4634Z" fill="#E0C895"/>
    <path fill-rule="evenodd" clip-rule="evenodd" d="M19.9331 32.3575C20.1211 31.9539 20.4161 31.7455 20.8183 31.7317C20.5901 32.0539 20.295 32.2625 19.9331 32.3575Z" fill="#362405"/>
    <path fill-rule="evenodd" clip-rule="evenodd" d="M14.2681 31.9999C15.2241 33.0793 16.4044 33.7945 17.8088 34.1455C17.5344 34.3636 17.2395 34.3636 16.9236 34.1455C16.6876 34.0859 16.4515 34.0262 16.2155 33.9667C15.5787 33.5633 14.9884 33.0864 14.4451 32.5363C14.3371 32.377 14.2782 32.1982 14.2681 31.9999Z" fill="#E6D0A1"/>
    <path fill-rule="evenodd" clip-rule="evenodd" d="M13.9141 30.2119C14.0911 30.2119 14.2681 30.2119 14.4452 30.2119C14.7293 31.0351 15.2604 31.6312 16.0385 31.9999C16.2727 32.3908 16.6268 32.659 17.1007 32.8045C17.8319 33.0568 18.54 33.1462 19.2252 33.0727C19.0496 33.3455 18.784 33.4648 18.4285 33.4303C16.3115 33.2288 14.8067 32.156 13.9141 30.2119Z" fill="#A46D06"/>
    <path fill-rule="evenodd" clip-rule="evenodd" d="M16.0386 31.9999C17.2145 32.7852 18.4537 32.9042 19.7564 32.3575C19.8153 32.3575 19.8744 32.3575 19.9334 32.3575C19.8532 32.5288 19.7353 32.6779 19.5793 32.8045C19.6197 32.8758 19.6788 32.9055 19.7564 32.8939C19.6308 33.0555 19.4538 33.115 19.2252 33.0727C18.5401 33.1462 17.832 33.0568 17.1008 32.8045C16.6269 32.6589 16.2728 32.3907 16.0386 31.9999Z" fill="#593C0B"/>
    <path fill-rule="evenodd" clip-rule="evenodd" d="M13.7371 30.3907C14.7829 32.6493 16.5532 33.8412 19.0482 33.9667C18.9227 34.1284 18.7457 34.1879 18.5171 34.1455C18.5591 34.3763 18.5001 34.5551 18.3401 34.6819C18.3401 34.5031 18.3401 34.3243 18.3401 34.1455C18.163 34.1455 17.986 34.1455 17.8089 34.1455C16.4045 33.7945 15.2242 33.0793 14.2682 31.9999C14.2811 31.7269 14.163 31.5481 13.9141 31.4635C13.8474 31.1492 13.7293 30.8512 13.5601 30.5695C13.582 30.461 13.641 30.4015 13.7371 30.3907Z" fill="#463418"/>
    <path fill-rule="evenodd" clip-rule="evenodd" d="M13.7371 30.0331C13.8552 30.0331 13.9141 30.0926 13.9141 30.2119C14.8067 32.156 16.3116 33.2287 18.4286 33.4303C18.7841 33.4648 19.0496 33.3455 19.2252 33.0727C19.4538 33.115 19.6308 33.0555 19.7564 32.8939C19.9334 32.8939 20.1104 32.8939 20.2875 32.8939C20.2875 33.1919 20.2875 33.4898 20.2875 33.7879C19.895 33.9432 19.4819 34.0028 19.0482 33.9667C16.5532 33.8411 14.7828 32.6493 13.7371 30.3907C13.559 30.2305 13.559 30.1114 13.7371 30.0331Z" fill="#E4A028"/>
    <path fill-rule="evenodd" clip-rule="evenodd" d="M8.24909 28.0663C8.19156 29.3513 8.25069 30.6029 8.42613 31.8211C8.37868 32.107 8.43782 32.3453 8.60317 32.5362C8.67894 33.1236 8.85598 33.66 9.13428 34.1454C9.1626 34.441 9.28051 34.6793 9.48835 34.8606C9.79746 35.5449 10.1515 36.2004 10.5506 36.8274C9.19571 35.5211 8.39904 33.9119 8.16058 31.9999C8.09277 31.9004 8.00425 31.8409 7.89502 31.8211C7.89502 31.6423 7.89502 31.4635 7.89502 31.2847C8.0131 30.2119 8.13101 29.1391 8.24909 28.0663Z" fill="#47310E"/>
    <path fill-rule="evenodd" clip-rule="evenodd" d="M11.9667 31.9999C12.0469 32.1712 12.1648 32.3203 12.3208 32.4469C12.1069 32.8492 11.871 33.2367 11.6127 33.6091C11.4443 33.4614 11.2673 33.4317 11.0815 33.5197C11.5079 33.9433 11.5079 34.3903 11.0815 34.8607C10.9284 35.0543 10.7514 35.084 10.5504 34.9501C10.2553 34.7414 9.96037 34.533 9.66525 34.3243C9.91824 33.9969 10.0068 33.6393 9.93081 33.2515C9.82246 33.7191 9.5569 34.0169 9.13414 34.1455C8.85584 33.6601 8.6788 33.1237 8.60303 32.5363C8.87088 32.3917 9.16601 32.3618 9.48821 32.4469C9.27081 32.3076 9.09377 32.1288 8.9571 31.9105C9.63869 31.1242 10.1107 30.26 10.3734 29.3179C10.7756 29.4862 11.1297 29.7245 11.4356 30.0331C11.0679 30.5917 10.8615 31.1878 10.816 31.8211C10.8893 31.7394 10.9778 31.6797 11.0815 31.6423C11.3604 31.8132 11.6555 31.9325 11.9667 31.9999Z" fill="#FCAD11"/>
    <path fill-rule="evenodd" clip-rule="evenodd" d="M54.8096 32.8939C55.2768 33.1095 55.4242 33.4671 55.2522 33.9667C55.0187 33.6471 54.8712 33.2895 54.8096 32.8939Z" fill="#728ECE"/>
    <path fill-rule="evenodd" clip-rule="evenodd" d="M13.2061 32.7151C13.3962 32.9627 13.6322 33.1712 13.9142 33.3408C13.7065 33.8969 13.7951 33.9268 14.1798 33.4302C14.4165 33.6564 14.682 33.7458 14.9764 33.6984C14.7001 33.5302 14.4639 33.3215 14.2683 33.0727C14.3793 32.9087 14.4384 32.7299 14.4453 32.5363C14.9886 33.0864 15.5789 33.5633 16.2157 33.9666C16.2021 34.1901 16.084 34.3391 15.8616 34.4136C15.9673 34.6035 16.0263 34.812 16.0386 35.0394C15.7108 36.182 15.4748 37.3441 15.3305 38.526C15.3567 38.7506 15.4158 38.9592 15.5075 39.1518C14.9796 39.069 14.4485 39.0095 13.9142 38.973C13.7961 38.8537 13.6782 38.7347 13.5601 38.6154C13.7503 37.9351 13.9864 37.2796 14.2683 36.6486C13.6494 36.8373 13.1772 36.6286 12.852 36.0228C12.9456 35.7441 13.0637 35.4759 13.2061 35.2182C13.4907 35.0856 13.7859 35.0557 14.0912 35.1288C13.8738 34.9896 13.6968 34.8108 13.5601 34.5924C13.6818 34.3847 13.7111 34.1762 13.6486 33.9666C13.5107 34.1862 13.3337 34.365 13.1175 34.503C12.7674 34.2516 12.3837 34.0729 11.9668 33.9666C12.0119 33.5168 12.1596 33.0995 12.4094 32.7151C12.6597 32.5518 12.9253 32.5518 13.2061 32.7151Z" fill="#FAAC15"/>
    <path fill-rule="evenodd" clip-rule="evenodd" d="M14.4453 32.5363C14.4384 32.7299 14.3793 32.9087 14.2683 33.0727C14.4639 33.3215 14.7001 33.5302 14.9764 33.6984C14.682 33.7458 14.4165 33.6564 14.1798 33.4302C13.7951 33.9268 13.7065 33.8969 13.9142 33.3408C13.6322 33.1712 13.3962 32.9627 13.2061 32.7151C13.5017 32.7599 13.7673 32.8792 14.0027 33.0727C14.0695 32.8148 14.2169 32.636 14.4453 32.5363Z" fill="#FCCE69"/>
    <path fill-rule="evenodd" clip-rule="evenodd" d="M49.6756 33.4303C49.8307 33.4068 49.9488 33.4664 50.0297 33.6091C49.8791 34.0349 49.6431 34.3925 49.3216 34.6818C49.2626 34.5924 49.2035 34.503 49.1445 34.4136C49.3642 34.1041 49.5413 33.7764 49.6756 33.4303Z" fill="#7791CE"/>
    <path fill-rule="evenodd" clip-rule="evenodd" d="M53.9244 33.6091C54.2052 33.8918 54.3823 34.2493 54.4555 34.6819C54.3966 34.7414 54.3375 34.8011 54.2785 34.8607C54.0229 34.4838 53.905 34.0666 53.9244 33.6091Z" fill="#7E95CE"/>
    <path fill-rule="evenodd" clip-rule="evenodd" d="M50.561 34.3243C50.7864 34.8063 50.7272 35.283 50.384 35.7547C50.2108 35.2598 50.2698 34.7831 50.561 34.3243Z" fill="#8298CD"/>
    <path fill-rule="evenodd" clip-rule="evenodd" d="M12.675 31.8211C12.7141 32.208 12.8912 32.5059 13.2061 32.7151C12.9253 32.5519 12.6598 32.5519 12.4095 32.7151C12.1597 33.0995 12.012 33.5168 11.9669 33.9667C11.4549 34.3711 11.2778 34.8777 11.4358 35.4865C11.1824 35.5696 10.976 35.7187 10.8161 35.9335C10.672 35.3059 10.2884 34.8886 9.66539 34.6819C9.55793 34.7041 9.49897 34.7636 9.48835 34.8607C9.28051 34.6794 9.1626 34.441 9.13428 34.1455C9.55704 34.0169 9.8226 33.7191 9.93094 33.2515C10.0069 33.6393 9.91837 33.9969 9.66539 34.3243C9.96051 34.5329 10.2555 34.7414 10.5506 34.9501C10.7515 35.084 10.9285 35.0543 11.0817 34.8607C11.508 34.3903 11.508 33.9433 11.0817 33.5197C11.2674 33.4317 11.4444 33.4614 11.6128 33.6091C11.8711 33.2367 12.1071 32.8492 12.3209 32.4469C12.165 32.3203 12.0471 32.1712 11.9669 31.9999C12.2252 32.0119 12.4612 31.9523 12.675 31.8211Z" fill="#FACD6D"/>
    <path fill-rule="evenodd" clip-rule="evenodd" d="M14.2682 36.6487C14.2633 36.2764 14.3813 35.9485 14.6223 35.6653C14.5633 35.6058 14.5042 35.5461 14.4453 35.4865C14.7108 35.3376 14.9174 35.1289 15.0649 34.8607C14.8677 35.2485 14.9562 35.5763 15.3304 35.8441C15.1624 35.9544 15.015 35.9247 14.8878 35.7547C14.6773 36.0646 14.4707 36.3626 14.2682 36.6487Z" fill="#FCD47C"/>
    <path fill-rule="evenodd" clip-rule="evenodd" d="M11.9668 33.9667C12.1111 34.2057 12.3177 34.3845 12.5864 34.5031C12.7247 34.7228 12.8132 34.9612 12.852 35.2183C12.5243 35.8516 12.2292 36.5072 11.9668 37.185C11.8207 37.3435 11.6437 37.403 11.4357 37.3638C11.2779 37.2548 11.1009 37.1952 10.9046 37.185C10.8456 37.0063 10.7275 36.887 10.5505 36.8275C10.1515 36.2004 9.79739 35.5449 9.48828 34.8607C9.4989 34.7636 9.55786 34.704 9.66532 34.6819C10.2883 34.8886 10.672 35.3059 10.8161 35.9335C10.9759 35.7187 11.1823 35.5696 11.4357 35.4865C11.2778 34.8777 11.4548 34.3711 11.9668 33.9667Z" fill="#F0A110"/>
    <path fill-rule="evenodd" clip-rule="evenodd" d="M11.9667 33.9667C12.3836 34.0729 12.7672 34.2517 13.1174 34.5031C13.3336 34.365 13.5106 34.1862 13.6485 33.9667C13.711 34.1762 13.6816 34.3847 13.56 34.5925C13.6967 34.8108 13.8737 34.9896 14.0911 35.1289C13.7857 35.0557 13.4906 35.0856 13.2059 35.2183C13.0636 35.4759 12.9455 35.7441 12.8518 36.0229C13.1771 36.6286 13.6492 36.8373 14.2681 36.6487C13.9863 37.2796 13.7501 37.9351 13.56 38.6154C13.2272 38.6639 12.9912 38.5446 12.8518 38.2578C14.0691 37.5882 14.0102 36.9923 12.6748 36.4699C12.4755 36.8798 12.2395 37.2673 11.9667 37.632C12.2896 37.7501 12.5256 37.9587 12.6748 38.2578C12.5567 38.2578 12.4388 38.2578 12.3207 38.2578C11.9914 38.0006 11.6963 37.7027 11.4355 37.3638C11.6436 37.403 11.8206 37.3435 11.9667 37.1851C12.229 36.5072 12.5241 35.8516 12.8518 35.2183C12.8131 34.9612 12.7246 34.7228 12.5863 34.5031C12.3175 34.3845 12.1109 34.2057 11.9667 33.9667Z" fill="#F9C762"/>
    <path fill-rule="evenodd" clip-rule="evenodd" d="M41.5322 27.3511C41.9502 27.3822 42.3632 27.4418 42.7715 27.5299C43.3437 32.8161 46.2354 35.7962 51.4463 36.4699C51.4463 36.5891 51.4463 36.7082 51.4463 36.8275C47.0406 36.462 44.1784 34.1376 42.86 29.8543C42.6943 29.2081 42.6058 28.5527 42.5944 27.8875C42.2907 27.8645 41.9955 27.8049 41.7093 27.7087C41.6503 27.5895 41.5912 27.4704 41.5322 27.3511Z" fill="#3F3E3D"/>
    <path fill-rule="evenodd" clip-rule="evenodd" d="M34.4505 40.761C34.8108 42.3019 34.8697 43.8514 34.6275 45.4098C34.6564 44.9883 34.627 44.5712 34.539 44.1582C34.2228 44.4441 33.8392 44.5932 33.3883 44.6052C33.6775 44.6935 33.9727 44.7232 34.2734 44.6946C33.78 44.8693 33.2489 44.9288 32.6801 44.8734C31.5308 44.7479 30.3505 44.7479 29.1394 44.8734C28.976 43.4821 28.6219 42.1412 28.0771 40.8504C28.9848 40.2319 29.7815 39.4869 30.4671 38.6154C30.9961 37.7869 31.5272 36.9526 32.0605 36.1122C33.3626 37.7298 34.1299 39.5774 34.362 41.655C34.4494 41.3628 34.4788 41.0648 34.4505 40.761Z" fill="#40525B"/>
    <path fill-rule="evenodd" clip-rule="evenodd" d="M12.852 38.2578C12.793 38.2578 12.7339 38.2578 12.6749 38.2578C12.5257 37.9587 12.2897 37.75 11.9668 37.632C12.2396 37.2673 12.4756 36.8798 12.6749 36.4698C14.0103 36.9923 14.0693 37.5882 12.852 38.2578Z" fill="#EE9C07"/>
    <path fill-rule="evenodd" clip-rule="evenodd" d="M16.924 34.1454C17.2399 34.3636 17.5348 34.3636 17.8092 34.1454C17.9863 34.1454 18.1633 34.1454 18.3403 34.1454C18.3403 34.3242 18.3403 34.503 18.3403 34.6818C18.1421 35.9985 17.9061 37.3096 17.6322 38.6154C17.526 38.9673 17.29 39.1461 16.924 39.1518C16.57 39.1518 16.2159 39.1518 15.8618 39.1518C16.1065 37.4575 16.4606 35.7886 16.924 34.1454Z" fill="#F7B029"/>
    <path fill-rule="evenodd" clip-rule="evenodd" d="M17.101 34.6819C17.7047 34.6611 17.9408 34.959 17.8091 35.5759C17.0946 35.6148 16.8584 35.3168 17.101 34.6819Z" fill="#FEF7E8"/>
    <path fill-rule="evenodd" clip-rule="evenodd" d="M10.9043 37.1851C11.1006 37.1953 11.2777 37.2548 11.4354 37.3639C11.6962 37.7027 11.9913 38.0006 12.3206 38.2579C11.6974 38.1053 11.2253 37.7477 10.9043 37.1851Z" fill="#4A391C"/>
    <path fill-rule="evenodd" clip-rule="evenodd" d="M16.2158 33.9667C16.4517 34.0262 16.6879 34.0859 16.9239 34.1455C16.4604 35.7886 16.1063 37.4575 15.8617 39.1518C15.7436 39.1518 15.6257 39.1518 15.5076 39.1518C15.4159 38.9593 15.3568 38.7506 15.3306 38.526C15.4749 37.3442 15.7108 36.182 16.0387 35.0395C16.0263 34.812 15.9674 34.6036 15.8617 34.4137C16.084 34.3391 16.2021 34.1902 16.2158 33.9667Z" fill="#926412"/>
    <path fill-rule="evenodd" clip-rule="evenodd" d="M29.1392 34.5031C28.1066 36.6186 26.6313 38.347 24.7133 39.6882C24.427 39.592 24.1319 39.5325 23.8281 39.5094C23.7092 39.3723 23.5617 39.253 23.3855 39.1518C23.2637 39.0031 23.2933 38.884 23.4741 38.7942C25.4505 38.022 27.0438 36.7407 28.254 34.95C28.5334 34.7544 28.8285 34.6053 29.1392 34.5031Z" fill="#B04311"/>
    <path fill-rule="evenodd" clip-rule="evenodd" d="M12.3208 38.2579C12.4389 38.2579 12.5568 38.2579 12.6749 38.2579C12.7338 38.2579 12.793 38.2579 12.8519 38.2579C12.9912 38.5447 13.2272 38.6639 13.5601 38.6155C13.6781 38.7347 13.7961 38.8538 13.9141 38.9731C13.2653 38.9727 12.7342 38.7344 12.3208 38.2579Z" fill="#403116"/>
    <path fill-rule="evenodd" clip-rule="evenodd" d="M28.7852 29.8543C28.7852 29.9736 28.8442 30.0331 28.9623 30.0331C29.7194 30.366 30.1326 30.962 30.2015 31.8211C30.2514 32.0496 30.3695 32.2284 30.5556 32.3575C30.3067 32.4421 30.1886 32.6209 30.2015 32.8939C30.064 33.5926 29.7099 34.129 29.1393 34.5031C28.8286 34.6053 28.5335 34.7545 28.2541 34.9501C27.0439 36.7407 25.4505 38.022 23.4741 38.7942C23.2934 38.884 23.2638 39.0031 23.3856 39.1518C23.5617 39.253 23.7092 39.3723 23.8282 39.5094C23.3847 39.4236 22.9717 39.2448 22.5889 38.973C20.7768 39.2656 18.9474 39.4145 17.1008 39.42C16.1166 40.3258 15.1135 41.1901 14.0911 42.0126C14.068 41.8805 14.0975 41.7612 14.1797 41.655C15.0107 40.964 15.8073 40.2488 16.5697 39.5094C16.7467 39.4499 16.8648 39.3306 16.9237 39.1518C17.2897 39.1461 17.5257 38.9673 17.6319 38.6154C17.9058 37.3097 18.1418 35.9985 18.34 34.6819C18.5001 34.5551 18.559 34.3763 18.5171 34.1455C18.7456 34.1879 18.9227 34.1283 19.0482 33.9667C19.4819 34.0028 19.8949 33.9433 20.2874 33.7879C20.4645 33.7879 20.6415 33.7879 20.8186 33.7879C20.7015 32.9196 20.8786 32.1447 21.3497 31.4635C21.3497 31.523 21.3497 31.5828 21.3497 31.6423C21.0967 32.1444 20.9788 32.6808 20.9956 33.2515C21.0168 33.4457 21.1349 33.5649 21.3497 33.6091C22.8054 33.3166 24.1626 32.7802 25.4215 31.9999C25.8168 30.1599 26.938 29.4447 28.7852 29.8543Z" fill="#231E1A"/>
    <path fill-rule="evenodd" clip-rule="evenodd" d="M28.2542 32.1787C27.7866 32.0423 27.3145 32.0124 26.8379 32.0893C25.7817 32.5648 24.7195 33.0414 23.6512 33.5197C23.4301 33.652 23.2531 33.6222 23.1201 33.4303C24.3171 32.9753 25.4974 32.4686 26.6609 31.9105C27.2562 31.7448 27.7873 31.8342 28.2542 32.1787Z" fill="#928E8B"/>
    <path fill-rule="evenodd" clip-rule="evenodd" d="M29.6706 31.8211C29.852 31.8921 29.8816 32.0112 29.7591 32.1787C29.562 32.5057 29.2965 32.6548 28.9624 32.6257C29.2352 32.3806 29.4714 32.1124 29.6706 31.8211Z" fill="#927942"/>
    <path fill-rule="evenodd" clip-rule="evenodd" d="M28.2544 32.1787C28.5718 32.2473 28.7489 32.4558 28.7855 32.8045C28.5095 34.315 27.7422 35.5068 26.484 36.3804C25.7205 36.7917 24.9532 37.2088 24.1826 37.632C23.2317 37.8711 22.3171 38.1988 21.4385 38.6154C20.417 38.4347 19.3841 38.4347 18.3403 38.6154C18.519 37.1704 18.755 35.74 19.0485 34.3243C20.44 34.1666 21.7972 33.8685 23.1203 33.4303C23.2533 33.6221 23.4303 33.652 23.6514 33.5197C24.7197 33.0414 25.7819 32.5647 26.8381 32.0893C27.3147 32.0124 27.7869 32.0422 28.2544 32.1787Z" fill="#443D37"/>
    <path fill-rule="evenodd" clip-rule="evenodd" d="M21.3498 31.6423C21.4679 31.6423 21.5268 31.7019 21.5268 31.8211C21.3477 32.3141 21.1706 32.7909 20.9957 33.2515C20.9789 32.6808 21.0968 32.1444 21.3498 31.6423Z" fill="#E5C7B1"/>
    <path fill-rule="evenodd" clip-rule="evenodd" d="M29.3165 30.9271C29.5871 30.9302 29.6756 31.0494 29.5821 31.2847C29.3304 31.667 29.0058 31.8757 28.6084 31.9105C28.9561 31.6511 29.1921 31.3233 29.3165 30.9271Z" fill="#8C7340"/>
    <path fill-rule="evenodd" clip-rule="evenodd" d="M28.9624 30.3907C29.1438 30.4617 29.1734 30.5808 29.0509 30.7483C28.7558 31.0464 28.4608 31.3443 28.1657 31.6423C28.0476 31.5231 28.0476 31.404 28.1657 31.2847C28.4679 31.0099 28.7335 30.7119 28.9624 30.3907Z" fill="#9B7F45"/>
    <path fill-rule="evenodd" clip-rule="evenodd" d="M7.89481 33.0726C8.36874 36.1828 9.01776 39.2819 9.84222 42.3702C10.2838 43.0237 10.6378 43.7389 10.9044 44.5157C10.6527 44.471 10.4757 44.3221 10.3733 44.0687C8.83594 44.1236 7.4786 43.6766 6.30148 42.7278C6.06319 43.1998 6.06319 43.7957 6.30148 44.5157C6.2728 44.8782 6.30237 45.2358 6.39 45.5885C6.89155 45.976 7.39327 46.3633 7.89481 46.7507C7.02698 46.4137 6.23031 45.907 5.50481 45.2309C5.24723 45.6052 4.92272 45.9032 4.53111 46.1249C4.77702 46.5483 5.01301 46.9655 5.23926 47.3765C4.60706 46.8771 4.19403 46.2217 4 45.4097C4.00513 45.1364 4.12322 44.9277 4.35407 44.7839C4.7841 44.6582 5.19712 44.6879 5.59333 44.8733C5.64343 45.0144 5.73195 45.1337 5.85889 45.2309C6.003 44.4228 5.97343 43.6479 5.77037 42.9066C5.24262 40.4629 6.18676 39.0325 8.60296 38.6154C8.18285 36.7918 7.94686 34.9443 7.89481 33.0726Z" fill="#383026"/>
    <path fill-rule="evenodd" clip-rule="evenodd" d="M13.9141 38.973C14.4484 39.0095 14.9795 39.069 15.5074 39.1518C15.6255 39.1518 15.7434 39.1518 15.8615 39.1518C16.2155 39.1518 16.5696 39.1518 16.9237 39.1518C16.8647 39.3306 16.7467 39.4499 16.5696 39.5094C15.6228 39.5328 14.7376 39.354 13.9141 38.973Z" fill="#4E350A"/>
    <path fill-rule="evenodd" clip-rule="evenodd" d="M23.828 39.5094C24.0656 39.7406 24.3607 39.8895 24.7132 39.9564C25.3958 39.9881 26.045 40.0775 26.6606 40.2246C25.0904 40.4215 23.5856 40.1831 22.1461 39.5094C20.6502 39.8897 19.1454 39.9493 17.6317 39.6882C16.3257 40.7699 15.0864 41.9023 13.9139 43.0854C13.6997 43.0081 13.5227 42.8889 13.3828 42.7278C13.5598 42.4297 13.7958 42.1914 14.091 42.0126C15.1133 41.1901 16.1164 40.3258 17.1006 39.42C18.9473 39.4145 20.7766 39.2655 22.5887 38.973C22.9715 39.2448 23.3845 39.4236 23.828 39.5094Z" fill="#253138"/>
    <path fill-rule="evenodd" clip-rule="evenodd" d="M26.6607 40.2247C27.4029 41.2468 27.9635 42.3794 28.3426 43.6218C28.5616 44.2584 28.6501 44.914 28.6081 45.5886C26.1231 45.5402 23.7035 45.8978 21.3496 46.6614C21.0281 46.4263 20.733 46.1581 20.4644 45.8568C20.1945 45.6764 19.8993 45.587 19.5792 45.5886C17.6196 44.9285 15.7312 44.0942 13.9141 43.0854C15.0866 41.9023 16.3258 40.77 17.6318 39.6883C19.1455 39.9493 20.6503 39.8898 22.1463 39.5095C23.5858 40.1832 25.0906 40.4215 26.6607 40.2247Z" fill="#3E4F57"/>
    <path fill-rule="evenodd" clip-rule="evenodd" d="M32.8569 33.7879C32.6221 34.4393 32.386 35.0949 32.1487 35.7547C33.4052 37.1999 34.1723 38.8686 34.4502 40.761C34.4785 41.0648 34.4491 41.3629 34.3617 41.655C34.1296 39.5774 33.3623 37.7299 32.0602 36.1123C31.527 36.9526 30.9959 37.7869 30.4669 38.6155C29.7812 39.4869 28.9845 40.232 28.0769 40.8504C28.6216 42.1412 28.9757 43.4822 29.1391 44.8734C30.3502 44.7479 31.5305 44.7479 32.6798 44.8734C31.4932 44.9339 30.3128 45.0531 29.1391 45.231C29.1933 45.7468 29.1343 46.2237 28.9621 46.6614C29.0437 45.4381 28.8962 44.246 28.5195 43.0854C28.1027 42.0053 27.6012 40.9921 27.0146 40.0459C27.408 39.9883 27.7327 40.1075 27.9884 40.4035C28.0976 40.2338 28.0682 40.0848 27.8998 39.9565C28.3847 39.773 28.7978 39.5048 29.1391 39.1519C30.7416 38.0042 31.7743 36.4545 32.2372 34.5031C32.4052 34.2183 32.6117 33.9799 32.8569 33.7879Z" fill="#272F33"/>
    <path fill-rule="evenodd" clip-rule="evenodd" d="M25.2444 40.761C25.5027 40.749 25.7387 40.8086 25.9526 40.9398C25.7014 41.1099 25.4064 41.1694 25.0674 41.1186C25.1263 40.9994 25.1855 40.8803 25.2444 40.761Z" fill="#B8B282"/>
    <path fill-rule="evenodd" clip-rule="evenodd" d="M25.2446 40.761C25.5006 40.562 25.7957 40.5322 26.1298 40.6716C26.5995 40.9675 27.0125 41.3251 27.3691 41.7444C27.0894 42.1487 26.7944 42.5359 26.4839 42.9066C26.5407 42.6711 26.5997 42.4326 26.6609 42.1914C26.6046 41.9863 26.4867 41.8372 26.3069 41.7444C26.7183 41.3367 26.6002 41.0685 25.9528 40.9398C25.7389 40.8086 25.5029 40.749 25.2446 40.761Z" fill="#191E1A"/>
    <path fill-rule="evenodd" clip-rule="evenodd" d="M7.89502 31.8211C8.00425 31.841 8.09277 31.9005 8.16058 31.9999C8.39904 33.912 9.19571 35.5212 10.5506 36.8275C10.7276 36.887 10.8457 37.0063 10.9046 37.1851C11.2256 37.7477 11.6978 38.1053 12.3209 38.2579C12.7343 38.7344 13.2654 38.9727 13.9143 38.9731C14.7379 39.3541 15.623 39.5329 16.5698 39.5094C15.8075 40.2488 15.0108 40.964 14.1798 41.655C14.0977 41.7612 14.0681 41.8805 14.0913 42.0126C13.7962 42.1914 13.5602 42.4298 13.3832 42.7278C12.6193 43.3195 11.8522 43.9156 11.0817 44.5158C11.0227 44.5158 10.9636 44.5158 10.9046 44.5158C10.638 43.7389 10.284 43.0237 9.84243 42.3702C9.01797 39.282 8.36895 36.1829 7.89502 33.0727C7.89502 32.6556 7.89502 32.2382 7.89502 31.8211Z" fill="#9F6A07"/>
    <path fill-rule="evenodd" clip-rule="evenodd" d="M13.0292 39.3306C13.7228 39.542 14.4309 39.7208 15.1536 39.867C14.5648 40.3129 14.0631 40.8493 13.6488 41.4762C12.9167 41.7196 12.2382 42.1666 11.6129 42.8172C11.447 42.9409 11.3291 42.9111 11.2588 42.7278C11.6966 41.9642 12.1392 41.1894 12.5866 40.4034C12.8233 40.6296 13.0888 40.719 13.3832 40.6716C12.6069 40.3879 12.4888 39.9409 13.0292 39.3306Z" fill="#F8AE1A"/>
    <path fill-rule="evenodd" clip-rule="evenodd" d="M12.8521 39.1518C12.2684 40.395 11.6783 41.5273 11.0817 42.549C10.7322 42.2042 10.4667 41.7871 10.285 41.2974C9.75975 40.0125 9.28759 38.7012 8.86872 37.3638C8.70762 36.465 8.58971 35.571 8.51465 34.6818C9.40692 36.745 10.8528 38.2349 12.8521 39.1518Z" fill="#FBAE17"/>
    <path fill-rule="evenodd" clip-rule="evenodd" d="M12.8519 39.1518C12.97 39.1518 13.029 39.2113 13.029 39.3306C12.4886 39.9408 12.6067 40.3878 13.383 40.6716C13.0886 40.719 12.8231 40.6296 12.5864 40.4034C12.139 41.1894 11.6964 41.9641 11.2586 42.7278C11.1405 42.7278 11.0815 42.6682 11.0815 42.549C11.6782 41.5273 12.2682 40.395 12.8519 39.1518Z" fill="#FBCC65"/>
    <path fill-rule="evenodd" clip-rule="evenodd" d="M25.9529 40.9398C26.6003 41.0686 26.7184 41.3368 26.307 41.7444C26.4869 41.8372 26.6048 41.9863 26.6611 42.1914C26.5998 42.4326 26.5409 42.6711 26.484 42.9066C25.5186 43.3384 24.8695 43.0702 24.5366 42.102C24.5818 41.8649 24.6998 41.6861 24.8907 41.5656C24.6459 41.3044 24.705 41.1555 25.0677 41.1186C25.4068 41.1694 25.7017 41.1099 25.9529 40.9398Z" fill="#6B8E13"/>
    <path fill-rule="evenodd" clip-rule="evenodd" d="M16.7466 42.1914C16.9231 41.9745 17.1001 42.0044 17.2777 42.2808C17.087 42.3648 16.91 42.335 16.7466 42.1914Z" fill="#8C702E"/>
    <path fill-rule="evenodd" clip-rule="evenodd" d="M9.84233 42.3702C9.87154 42.7863 9.98944 43.1735 10.1964 43.5324C9.05309 43.765 7.99087 43.5862 7.00973 42.996C5.87245 42.1415 5.69541 41.1284 6.47862 39.9564C7.1673 39.4295 7.9344 39.1018 8.7801 38.973C8.94634 40.1862 9.30042 41.3185 9.84233 42.3702Z" fill="#ADA075"/>
    <path fill-rule="evenodd" clip-rule="evenodd" d="M17.9858 42.7278C18.1623 42.5109 18.3394 42.5407 18.517 42.8172C18.3263 42.9012 18.1492 42.8713 17.9858 42.7278Z" fill="#B7881E"/>
    <path fill-rule="evenodd" clip-rule="evenodd" d="M19.0483 43.0854C19.3782 43.1473 19.5256 43.3261 19.4909 43.6218C19.2401 43.5184 19.0926 43.3396 19.0483 43.0854Z" fill="#9A772D"/>
    <path fill-rule="evenodd" clip-rule="evenodd" d="M5.7703 42.9066C5.97336 43.6479 6.00293 44.4228 5.85882 45.231C5.73188 45.1337 5.64336 45.0145 5.59326 44.8734C5.76711 44.2544 5.82607 43.5987 5.7703 42.9066Z" fill="#A2A2A2"/>
    <path fill-rule="evenodd" clip-rule="evenodd" d="M6.30177 42.7278C6.49474 43.351 6.49474 43.9471 6.30177 44.5158C6.06347 43.7958 6.06347 43.1999 6.30177 42.7278Z" fill="#887960"/>
    <path fill-rule="evenodd" clip-rule="evenodd" d="M13.383 42.7278C13.5228 42.8889 13.6999 43.0082 13.9141 43.0854C15.7312 44.0942 17.6196 44.9285 19.5793 45.5886C18.3506 45.3674 17.1703 44.98 16.0385 44.4264C14.5633 44.3072 13.0878 44.3072 11.6126 44.4264C11.4614 44.6092 11.2844 44.7581 11.0815 44.8734C10.911 44.7894 10.911 44.6701 11.0815 44.5158C11.8519 43.9156 12.619 43.3195 13.383 42.7278Z" fill="#211B15"/>
    <path fill-rule="evenodd" clip-rule="evenodd" d="M13.0289 43.0854C13.6362 43.3024 14.2264 43.5706 14.7993 43.89C13.9731 44.0092 13.147 44.0092 12.3208 43.89C12.5936 43.6448 12.8298 43.3767 13.0289 43.0854Z" fill="#AC9E75"/>
    <path fill-rule="evenodd" clip-rule="evenodd" d="M34.2733 44.6946C34.379 44.7366 34.4379 44.826 34.4503 44.9628C34.2935 45.705 34.1458 46.45 34.0077 47.1978C33.3699 47.3113 32.7503 47.4306 32.1489 47.5554C31.1633 47.5673 30.1896 47.6864 29.2277 47.913C29.0803 47.8534 28.9326 47.7937 28.7852 47.7342C28.9353 47.3928 28.9944 47.0352 28.9622 46.6614C29.1345 46.2237 29.1934 45.7468 29.1392 45.231C30.313 45.0531 31.4933 44.9338 32.68 44.8734C33.2488 44.9288 33.7799 44.8693 34.2733 44.6946Z" fill="#607E8C"/>
    <path fill-rule="evenodd" clip-rule="evenodd" d="M4.53132 44.8734C4.76731 44.8734 5.00348 44.8734 5.23947 44.8734C5.17627 45.5698 4.82219 45.7486 4.17725 45.4097C4.29993 45.2277 4.41784 45.0489 4.53132 44.8734Z" fill="#C1B496"/>
    <path fill-rule="evenodd" clip-rule="evenodd" d="M28.6083 47.7342C28.4334 48.1956 28.2564 48.6725 28.0772 49.1645C26.1442 48.9899 24.1968 48.9303 22.235 48.9857C22.1288 48.3001 21.8926 47.6446 21.5269 47.019C22.3021 46.4506 23.1873 46.1824 24.1824 46.2144C25.715 46.0826 27.2492 45.9932 28.7854 45.9462C28.7264 46.5421 28.6673 47.1382 28.6083 47.7342Z" fill="#5F7D8B"/>
    <path fill-rule="evenodd" clip-rule="evenodd" d="M33.0343 49.701C32.6675 50.7691 32.1364 51.7525 31.441 52.6512C30.642 53.1436 29.8158 53.2031 28.9625 52.8299C28.7282 52.6841 28.6103 52.4754 28.6084 52.2042C28.3791 51.8694 28.4087 51.5716 28.6969 51.3102C28.7125 50.3893 28.8599 49.4954 29.1395 48.6282C30.4981 48.3856 31.8552 48.3258 33.2113 48.4494C32.9442 48.8789 32.8852 49.296 33.0343 49.701Z" fill="#403A34"/>
    <path fill-rule="evenodd" clip-rule="evenodd" d="M22.2349 48.9858C24.1966 48.9304 26.144 48.9899 28.0771 49.1646C28.1293 49.5642 28.0702 49.9218 27.9 50.2374C27.9503 49.895 27.8914 49.5971 27.723 49.3434C25.8937 49.2241 24.0642 49.1051 22.2349 48.9858Z" fill="#405058"/>
    <path fill-rule="evenodd" clip-rule="evenodd" d="M29.1396 39.1518C28.7983 39.5047 28.3852 39.7729 27.9003 39.9564C28.0687 40.0848 28.0981 40.2337 27.9888 40.4034C27.7332 40.1075 27.4085 39.9882 27.0151 40.0458C27.6017 40.992 28.1032 42.0052 28.52 43.0854C28.8967 44.2459 29.0442 45.438 28.9626 46.6613C28.9948 47.0352 28.9356 47.3928 28.7855 47.7341C28.933 47.7937 29.0806 47.8534 29.2281 47.9129C30.1899 47.6864 31.1637 47.5673 32.1492 47.5553C32.5081 47.5264 32.8621 47.5562 33.2114 47.6447C32.0035 47.8105 30.7938 47.9594 29.5822 48.0917C29.1759 48.0833 28.8512 47.9642 28.6085 47.7341C28.6674 47.1382 28.7266 46.5421 28.7855 45.9461C27.2494 45.9932 25.7152 46.0826 24.1826 46.2143C23.1874 46.1823 22.3022 46.4505 21.527 47.0189C21.8928 47.6445 22.1289 48.3 22.2351 48.9857C24.0645 49.105 25.894 49.2241 27.7233 49.3433C27.4919 51.0069 26.7246 52.3182 25.4218 53.2769C26.1834 52.4753 26.8031 51.4621 27.2807 50.2373C27.4188 49.8999 27.3892 49.6019 27.1922 49.3433C25.5399 49.3433 23.8874 49.3433 22.2351 49.3433C22.1663 50.5661 22.0482 51.7582 21.8811 52.9193C21.9105 51.309 21.8811 49.6998 21.7926 48.0917C21.3259 46.9955 20.5882 46.1612 19.5796 45.5885C19.8997 45.5869 20.1948 45.6763 20.4648 45.8567C20.7333 46.158 21.0285 46.4262 21.35 46.6613C23.7038 45.8977 26.1234 45.5401 28.6085 45.5885C28.6504 44.9139 28.5619 44.2583 28.3429 43.6218C27.9639 42.3793 27.4032 41.2468 26.6611 40.2246C26.0455 40.0774 25.3963 39.988 24.7137 39.9564C24.3612 39.8895 24.0661 39.7406 23.8285 39.5094C24.1323 39.5325 24.4274 39.592 24.7137 39.6882C26.2571 40.0411 27.7323 39.8623 29.1396 39.1518Z" fill="#161616"/>
    <path fill-rule="evenodd" clip-rule="evenodd" d="M27.1918 49.3433C27.3888 49.6019 27.4184 49.8999 27.2803 50.2373C26.8026 51.4621 26.183 52.4753 25.4214 53.2769C25.2959 53.4385 25.1188 53.4981 24.8903 53.4557C24.5341 53.5476 24.18 53.5773 23.8281 53.5451C23.887 53.4856 23.9461 53.4258 24.0051 53.3663C23.798 52.9756 23.5915 52.5883 23.3855 52.2041C23.3941 52.593 23.4827 52.9804 23.651 53.3663C23.5329 53.7239 23.415 53.7239 23.2969 53.3663C22.9551 52.6747 22.9551 51.9595 23.2969 51.2207C23.3412 50.9398 23.2231 50.6716 22.9429 50.4161C22.9747 50.2277 23.0337 50.0489 23.1199 49.8797C24.544 49.8166 25.9013 49.6378 27.1918 49.3433Z" fill="#433D36"/>
    <path fill-rule="evenodd" clip-rule="evenodd" d="M34.6274 45.4098C34.4867 46.1207 34.3686 46.8359 34.2733 47.5554C34.0393 47.525 33.8327 47.5845 33.6537 47.7342C33.499 48.4115 33.2924 49.0669 33.0341 49.701C32.885 49.296 32.944 48.8788 33.2111 48.4494C31.855 48.3258 30.4979 48.3855 29.1393 48.6282C28.8597 49.4953 28.7123 50.3893 28.6967 51.3101C28.4085 51.5716 28.3789 51.8694 28.6082 52.2041C28.0278 51.6996 27.7918 51.0441 27.9 50.2374C28.0701 49.9218 28.1293 49.5642 28.077 49.1646C28.2562 48.6725 28.4332 48.1957 28.6082 47.7342C28.8509 47.9643 29.1756 48.0834 29.5819 48.0918C30.7935 47.9595 32.0032 47.8105 33.2111 47.6448C32.8618 47.5563 32.5078 47.5264 32.1489 47.5554C32.7503 47.4306 33.3699 47.3113 34.0078 47.1978C34.1459 46.45 34.2935 45.705 34.4504 44.9628C34.438 44.826 34.379 44.7366 34.2733 44.6946C33.9726 44.7232 33.6774 44.6935 33.3882 44.6052C33.8391 44.5932 34.2227 44.4441 34.5389 44.1582C34.6269 44.5712 34.6563 44.9884 34.6274 45.4098Z" fill="#2B2825"/>
    <path fill-rule="evenodd" clip-rule="evenodd" d="M27.192 49.3433C25.9016 49.6378 24.5442 49.8166 23.1201 49.8797C23.0339 50.0489 22.975 50.2277 22.9431 50.4161C23.2233 50.6716 23.3414 50.9398 23.2972 51.2207C22.9553 51.9595 22.9553 52.6747 23.2972 53.3663C23.4152 53.7239 23.5331 53.7239 23.6512 53.3663C23.4829 52.9804 23.3944 52.593 23.3857 52.2041C23.5917 52.5883 23.7982 52.9756 24.0053 53.3663C23.9464 53.4258 23.8872 53.4856 23.8283 53.5451C24.1802 53.5773 24.5343 53.5476 24.8905 53.4557C24.0065 54.2619 23.0918 54.3214 22.1464 53.6345C21.3531 53.9613 20.5564 54.2594 19.7564 54.5285C19.6256 54.5519 19.5075 54.522 19.4023 54.4391C20.3258 54.1382 21.211 53.7509 22.0579 53.2769C21.9936 53.1548 21.9347 53.0355 21.8809 52.9193C22.048 51.7582 22.1661 50.5661 22.2349 49.3433C23.8872 49.3433 25.5397 49.3433 27.192 49.3433Z" fill="#2F2B26"/>
    <path fill-rule="evenodd" clip-rule="evenodd" d="M5.23926 47.3766C5.74116 47.8531 6.27227 48.3001 6.83259 48.7176C6.48701 50.1891 6.36911 51.7089 6.47852 53.2769C6.33158 51.7589 6.24306 50.2093 6.21296 48.6282C5.77851 48.2811 5.454 47.8638 5.23926 47.3766Z" fill="#3E3C3A"/>
    <path fill-rule="evenodd" clip-rule="evenodd" d="M6.30162 42.7278C7.47874 43.6767 8.83608 44.1237 10.3735 44.0688C10.4758 44.3222 10.6528 44.4711 10.9046 44.5158C10.9635 44.5158 11.0227 44.5158 11.0816 44.5158C10.9111 44.6701 10.9111 44.7894 11.0816 44.8734C11.2845 44.7581 11.4615 44.6092 11.6127 44.4264C13.088 44.3072 14.5634 44.3072 16.0387 44.4264C17.1705 44.98 18.3508 45.3674 19.5794 45.5886C20.588 46.1613 21.3257 46.9956 21.7924 48.0918C21.8809 49.6999 21.9103 51.3091 21.8809 52.9194C21.9347 53.0356 21.9937 53.1548 22.0579 53.277C21.211 53.751 20.3258 54.1382 19.4024 54.4392C19.5075 54.5221 19.6256 54.552 19.7564 54.5286C19.6309 54.6902 19.4539 54.7497 19.2253 54.7074C16.3635 54.7748 13.4718 54.6854 10.5505 54.4392C9.48935 54.1116 8.42713 53.7837 7.36384 53.4558C7.25638 53.4779 7.19743 53.5375 7.18681 53.6346C6.92213 53.5471 6.68597 53.428 6.47866 53.277C6.36925 51.7089 6.48715 50.1891 6.83273 48.7176C6.27241 48.3001 5.7413 47.8531 5.2394 47.3766C5.01314 46.9656 4.77715 46.5484 4.53125 46.125C4.92286 45.9033 5.24736 45.6053 5.50495 45.231C6.23045 45.9071 7.02712 46.4138 7.89495 46.7508C7.39341 46.3634 6.89168 45.9761 6.39014 45.5886C6.30251 45.2359 6.27294 44.8783 6.30162 44.5158C6.49459 43.9471 6.49459 43.351 6.30162 42.7278Z" fill="#5A4522"/>
    <path fill-rule="evenodd" clip-rule="evenodd" d="M7.18652 53.6345C7.19715 53.5375 7.2561 53.4779 7.36356 53.4557C8.42684 53.7837 9.48907 54.1116 10.5502 54.4391C13.4715 54.6853 16.3632 54.7747 19.225 54.7073C15.6639 55.2126 12.1232 55.0637 8.60282 54.2603C8.10535 54.0984 7.63336 53.8897 7.18652 53.6345Z" fill="#221E1A"/>
</svg>
